<svg xmlns="http://www.w3.org/2000/svg" viewBox="0 0 160 211.02"><defs><style>.cls-1{fill:#fff;}</style></defs><title>Asset 3</title><g id="Layer_2" data-name="Layer 2"><g id="Layer_1-2" data-name="Layer 1"><path class="cls-1" d="M106.94,26.29a60.1,60.1,0,0,0-74.56,90.49A3.35,3.35,0,0,0,35,118.07a3.33,3.33,0,0,0,2.62-5.37,53.45,53.45,0,0,1,66.31-80.47,3.33,3.33,0,1,0,3-5.94Z"/><path class="cls-1" d="M133.49,52.85a3.32,3.32,0,0,0-5.93,3,53.45,53.45,0,0,1-80.48,66.3A3.32,3.32,0,0,0,43,127.4a60.09,60.09,0,0,0,90.49-74.55Z"/><path class="cls-1" d="M158.34,85.9a11.33,11.33,0,0,0,0-11.8L154,66.93a4.68,4.68,0,0,1-.63-3.16l1.31-8.29a11.28,11.28,0,0,0-4.53-10.92l-6.78-4.93A4.71,4.71,0,0,1,141.54,37l-2-8.16a11.27,11.27,0,0,0-8.34-8.35l-8.16-2a4.7,4.7,0,0,1-2.68-1.8l-4.94-6.78a11.28,11.28,0,0,0-10.92-4.53L96.23,6.67A4.68,4.68,0,0,1,93.07,6L85.9,1.66a11.33,11.33,0,0,0-11.8,0L66.93,6a4.68,4.68,0,0,1-3.16.63L55.48,5.36A11.28,11.28,0,0,0,44.56,9.89l-4.93,6.78A4.71,4.71,0,0,1,37,18.46l-8.16,2a11.27,11.27,0,0,0-8.35,8.34l-2,8.16a4.63,4.63,0,0,1-1.79,2.68L9.89,44.56A11.28,11.28,0,0,0,5.36,55.48l1.31,8.29A4.68,4.68,0,0,1,6,66.93L1.66,74.1a11.33,11.33,0,0,0,0,11.8L6,93.07a4.74,4.74,0,0,1,.63,3.16l-1.31,8.29a11.28,11.28,0,0,0,4.53,10.92l6.78,4.93a4.71,4.71,0,0,1,1.79,2.68l2,8.16a11.27,11.27,0,0,0,8.34,8.35l3.41.82L9.13,191.83a3.32,3.32,0,0,0,3.43,4.66l18.55-2.22L41.8,209.6A3.33,3.33,0,0,0,44.53,211h.31a3.34,3.34,0,0,0,2.73-1.95l23.55-52.54,3,1.82a11.31,11.31,0,0,0,11.8,0L89,156.45l23.58,52.61a3.33,3.33,0,0,0,2.72,1.95h.32a3.29,3.29,0,0,0,2.72-1.42L129,194.27l18.56,2.22a3.33,3.33,0,0,0,3.43-4.66l-23.08-51.47,3.28-.8a11.27,11.27,0,0,0,8.35-8.34l2-8.16a4.7,4.7,0,0,1,1.8-2.68l6.78-4.94a11.27,11.27,0,0,0,4.53-10.92l-1.31-8.29a4.68,4.68,0,0,1,.63-3.16ZM43.9,201l-8.47-12.15a3.33,3.33,0,0,0-3.13-1.4l-14.7,1.76,21-46.87a4.61,4.61,0,0,1,1,1l4.94,6.78c.46.65-1.87-2.67,1.57,1.75s9.35,2.78,9.35,2.78l8.29-1.31a4.9,4.9,0,0,1,1.48,0Zm98.64-11.79-14.71-1.76a3.3,3.3,0,0,0-3.12,1.4L116.24,201,94.88,153.33a4.08,4.08,0,0,1,1.35,0l8.29,1.3c6.73,1.64,9.45-2.87,9.45-2.87a11.71,11.71,0,0,0,1.47-1.66l4.93-6.78a4.64,4.64,0,0,1,1.12-1.09ZM152.66,82.43l-4.38,7.18a11.42,11.42,0,0,0-1.52,7.66l1.31,8.29a4.64,4.64,0,0,1-1.87,4.5L139.42,115a11.33,11.33,0,0,0-4.35,6.49l-2,8.16a4.69,4.69,0,0,1-3.45,3.45l-8.16,2a11.35,11.35,0,0,0-6.5,4.35l-4.93,6.78a4.66,4.66,0,0,1-4.51,1.87l-8.28-1.31a11.42,11.42,0,0,0-7.66,1.52l-7.18,4.38a4.67,4.67,0,0,1-4.86,0l-7.18-4.38a11.33,11.33,0,0,0-5.9-1.65,11.58,11.58,0,0,0-1.76.13l-8.29,1.31a4.64,4.64,0,0,1-4.5-1.87L45,139.42a11.33,11.33,0,0,0-6.49-4.35l-8.16-2a4.66,4.66,0,0,1-3.45-3.45l-2-8.16a11.4,11.4,0,0,0-4.35-6.5l-6.78-4.93a4.66,4.66,0,0,1-1.87-4.51l1.31-8.28a11.42,11.42,0,0,0-1.52-7.66L7.34,82.43a4.67,4.67,0,0,1,0-4.86l4.38-7.18a11.42,11.42,0,0,0,1.52-7.66l-1.31-8.29a4.64,4.64,0,0,1,1.87-4.5L20.58,45a11.33,11.33,0,0,0,4.35-6.49l2-8.16a4.69,4.69,0,0,1,3.45-3.45l8.16-2A11.35,11.35,0,0,0,45,20.58l4.93-6.78a4.66,4.66,0,0,1,4.51-1.87l8.28,1.31a11.42,11.42,0,0,0,7.66-1.52l7.18-4.38a4.67,4.67,0,0,1,4.86,0l7.18,4.38a11.42,11.42,0,0,0,7.66,1.52l8.29-1.31a4.64,4.64,0,0,1,4.5,1.87L115,20.58a11.33,11.33,0,0,0,6.49,4.35l8.16,2a4.69,4.69,0,0,1,3.45,3.45l2,8.16a11.35,11.35,0,0,0,4.35,6.5l6.78,4.93a4.66,4.66,0,0,1,1.87,4.51l-1.31,8.28a11.42,11.42,0,0,0,1.52,7.66l4.38,7.18A4.67,4.67,0,0,1,152.66,82.43Z"/><path class="cls-1" d="M118.91,69.65a6,6,0,0,0-5-4.11l-20-2.37-8.44-18.3a6,6,0,0,0-10.92,0L66.1,63.17l-20,2.37a6,6,0,0,0-3.37,10.38L57.51,89.6l-3.92,19.77a6,6,0,0,0,5.88,7.19,6,6,0,0,0,3-.78L80,105.94l17.58,9.84a6,6,0,0,0,8.83-6.41L102.48,89.6l14.8-13.68A5.94,5.94,0,0,0,118.91,69.65ZM96.6,86a3.32,3.32,0,0,0-1,3.09l4,20.23-18-10.07A3.22,3.22,0,0,0,80,98.8a3.29,3.29,0,0,0-1.63.43l-18,10.07,4-20.23a3.34,3.34,0,0,0-1-3.09L48.26,72l20.47-2.42a3.33,3.33,0,0,0,2.63-1.91L80,48.92l8.64,18.73a3.33,3.33,0,0,0,2.62,1.91L111.74,72Z"/></g></g></svg>