<svg xmlns="http://www.w3.org/2000/svg" viewBox="0 0 160 160"><defs><style>.cls-1{fill:#fff;}</style></defs><title>Asset 2</title><g id="Layer_2" data-name="Layer 2"><g id="Layer_1-2" data-name="Layer 1"><path class="cls-1" d="M157.58,19.12h0A64.94,64.94,0,0,0,152,6.37a3.38,3.38,0,0,0-3.6-1.52A64.78,64.78,0,0,0,135.3,9.72c-9.32,4.65-15.84,10.89-18.87,18-2.13,5-2.73,11.15-1.75,17.79a66.1,66.1,0,0,0-9.93-8.22A97.05,97.05,0,0,0,94,20.94a3.15,3.15,0,0,0-3-1.18A3.66,3.66,0,0,0,88.29,22a3.06,3.06,0,0,0,.56,3.15,92.49,92.49,0,0,1,7.32,10.48L77.68,32,59.13,6.76a29.07,29.07,0,0,1,3.56.48c6,1.17,11.92,4.23,17.63,9.09a3.09,3.09,0,0,0,3.14.63,3.67,3.67,0,0,0,2.3-2.7,3.15,3.15,0,0,0-1.12-3C78.05,5.64,71.1,2.09,64,.69c-10.85-2.12-23.47.65-36.49,8A92.19,92.19,0,0,0,11.1,20.39a3.39,3.39,0,0,0-.5,4.37A95.85,95.85,0,0,0,21.1,41.23,75.52,75.52,0,0,0,31.27,51.86c-.79.68-1.55,1.39-2.28,2.1a54.5,54.5,0,0,0,17.65,89.48,3.13,3.13,0,0,0,2.66-.07,3.47,3.47,0,0,0,1.61-1.8,3.18,3.18,0,0,0-1.76-4.31,48,48,0,0,1-9.29-5,27.11,27.11,0,0,0-4.17-18.32c-.13-.32.07-1.7,2.82-7.33A43.54,43.54,0,0,0,42,98.07a7.29,7.29,0,0,0-2.61-8,18.11,18.11,0,0,0-5.87-2.62,13.8,13.8,0,0,1-2.64-1c-.84-.7-2.54-3.94-3.68-6.09a47,47,0,0,0-3.94-6.63A48.2,48.2,0,0,1,36.73,56a41.87,41.87,0,0,0,17,6.72c-7.14,6.44-9.15,14.37-5.48,21.9,4.75,9.76,14.24,8.24,22.67,6.9,1.36-.21,2.77-.44,4.11-.6h.06c1.33,1.47,1.27,9.34,1.24,13.62,0,7.72-.1,15,2.92,18.94,2.57,3.32,6.9,4.11,11.6,2.09,7.32-3.13,14.92-12.64,13.75-20.21-.94-6-1.56-10-.18-13,1.22-2.69,4.16-5.21,9.77-8.39a47.9,47.9,0,0,1-13.54,43.23,48.39,48.39,0,0,1-38.77,13.35,3.34,3.34,0,0,0-.73,6.63,55.14,55.14,0,0,0,44.17-15.22,54.44,54.44,0,0,0-7.17-83.79c2.09-1.54,3.75-2.89,4.87-3.83A60.43,60.43,0,1,1,18,128.1a60,60,0,0,1-10.5-45,3.14,3.14,0,0,0-1.09-3A3.67,3.67,0,0,0,2.9,79.5,3.07,3.07,0,0,0,.91,82a67.09,67.09,0,0,0,55.29,77.1,68.91,68.91,0,0,0,11.08.91,67.11,67.11,0,0,0,61.88-92.8,67.12,67.12,0,0,0,9.75-3.94c9.32-4.65,15.84-10.89,18.87-18S160.74,29,157.58,19.12Zm-4.32,12.3-12.47,5.14,8.56-20.45c.73,1.72,1.37,3.44,1.9,5.13A43.5,43.5,0,0,1,153.26,31.42Zm-30.68-1.06A20.5,20.5,0,0,1,124,27.61l6.61,16L125,57.11a56.65,56.65,0,0,1-2-5.37C121.12,45.92,119.56,37.49,122.58,30.36Zm8.66,29,5.9-14.1,15.67-6.46a20.13,20.13,0,0,1-1.18,3.81c-3,7.13-10.16,11.89-15.62,14.62C134.49,58,132.89,58.73,131.24,59.38Zm-2.37-37.46a42.78,42.78,0,0,1,9.32-6.19c1.6-.8,3.28-1.55,5-2.23l-9,21.42ZM79.41,85.82a6.45,6.45,0,0,0-5.23-1.55c-1.42.18-2.86.4-4.27.63l-.12,0c-8.53,1.35-13.1,1.83-15.57-3.24-4.13-8.48,4.46-14.9,8.34-17.27a15.38,15.38,0,0,0,2.26-1.68c8.72-1.11,17.91-4.67,27.33-10.59a48.11,48.11,0,0,1,20.23,25.11c-8,4.33-12.08,7.9-14.06,12.26-2.22,4.85-1.43,9.89-.35,16.85.56,3.55-4.18,10.65-9.77,13-1.83.78-3.07.77-3.68,0-1.63-2.11-1.58-9.76-1.54-14.82C83,96.25,83.08,89.08,79.41,85.82Zm-26.49-30,23.5-17.22,18.44,3.59c-7.63,5.7-25.21,16.9-41.7,13.68ZM51,33.64l16.48,3.2L45.22,53.16a46.42,46.42,0,0,1-10.77-7.38ZM40.2,10A50.73,50.73,0,0,1,51.08,7.06L68,30.15l-15.21-3ZM20.9,21A90,90,0,0,1,34,12.79l9.18,12.52ZM42.11,31.9,29.68,41a89.4,89.4,0,0,1-9.92-13.46Zm-12,85.6a21,21,0,0,1,3.24,9.25,48,48,0,0,1-12.8-44.7l.79,1.49c1.77,3.35,3.44,6.52,5.29,8.06a13.82,13.82,0,0,0,5,2.25c4.25,1.31,4.16,1.7,3.93,2.65h0a39.86,39.86,0,0,1-3,7.16C30,108.81,27.61,113.68,30.06,117.5Z"/></g></g></svg>