<?xml version="1.0" encoding="UTF-8"?><svg id="a" xmlns="http://www.w3.org/2000/svg" xmlns:xlink="http://www.w3.org/1999/xlink" viewBox="0 0 910.17 600"><defs><style>.d{fill:#b85742;}.e{fill:#0f2e35;}.f{fill:#fff;}.g{fill:#e3ae5b;}.h{fill:#f2a392;}.i{fill:#36538a;}.j{fill:#89afdd;}.k{fill:#c8dff5;}.l{fill:#ed7457;}.m{fill:#9ad1c5;}.n{fill:#13375a;}.o{fill:#6591cc;}.p{fill:#df5a44;}.q{fill:#ee7357;}.r{clip-path:url(#b);}.s{fill:#ef8b7f;}.t{fill:#f7cc7f;}.u{clip-path:url(#c);}.v{fill:#6dc0ac;}.w{fill:#60bca4;}.x{opacity:.2;}.y{fill:#f19b8d;}.a`{fill:none;}.aa{fill:#9ebee5;}.ab{fill:#5ebca2;}.ac{fill:#f1a290;}.ad{fill:#438f7c;}.ae{fill:#476eb4;}.af{fill:#f2a491;}.ag{fill:#ef855c;}.ah{fill:#1b4655;}.ai{fill:#163558;}.aj{fill:#db523a;}</style><clipPath id="b"><rect class="a`" x="583.66" y="446.01" width="8.92" height="6.86"/></clipPath><clipPath id="c"><rect class="a`" x="222.04" y="152.37" width="66.15" height="66.49"/></clipPath></defs><path class="t" d="M688.96,152.41c-13.45,10.93-32.55,23.06-48.28,28.28l23.37,4.4-96.55,113.85-192.44,55.38-227.73,242.86,179.39-.06,91.41-146.75,183.13-108.8,71.12-151.57,15.15,18.34c-3.03-16.3-1.64-38.88,1.43-55.94"/><path class="y" d="M116.58,409.51s-10.43-18.7-12.97-22.67c-2.54-3.97-9.15-19.77-9.38-20.39-.24-.62,4.55-8.1,3.48-8.35-1.07-.26-2.25,3.94-3.39,3.44-1.14-.5-4.47-10.6-5.12-10.1-1.22,.94,1.8,6.27,1.15,6.6-.65,.34-2.61-5.86-3.89-5.68-1.27,.18,2.42,5.68,2.07,6.17-.36,.49-4.19-4.7-4.88-3.59-.38,.6,3.53,4.52,2.78,4.89-.75,.37-4.22-2.17-4.59-1.44-.37,.73,3.21,1.73,4.28,3.7,1.07,1.97,2.89,2.82,3.65,6.46,.76,3.65,1.89,16.84,5.76,23.42,3.88,6.58,12.4,21.15,12.4,21.15l8.66-3.61Z"/><path class="i" d="M113.69,403.46s11.54,12.43,13.25,17.45c1.72,5.01-1.67,12.18-6.35,12.49-4.68,.31-15.09-22.07-15.09-22.07l8.19-7.87Z"/><path class="s" d="M168.03,493.48c-.84-.7-1.86-.38-4.77-1.73-.56-.26-2.05-.68-2.71-.81-.12-.03-.22-.12-.26-.24-.89-3.35-4.77-18.85-5.19-23.32-.44-4.57-3.38-23.95-3.83-26.89-.03-.2-.23-.33-.43-.27l-8.47,2.36c-.17,.05-.28,.22-.24,.4,.52,2.31,3.78,16.81,4.73,24.15,.76,5.85,9.48,24.62,9.65,25.82v.03c.06,.36,.37,.63,.73,.63,2.15,0,9.04,0,9.44,0,.36,0,1.6,.1,1.34-.12"/><path class="n" d="M149.18,432.12c-4.51-13.67-9.55-13.09-9.55-13.09l3.9,28.74c2.78-.76,6.41-2.45,9.19-3.24-.92-4.32-2.43-9.05-3.54-12.41"/><path class="t" d="M147.78,396.57c-1.38-8.99-9.51-15.45-18.02-11.09-1.91,.98-4.5,2.97-5.82,4.67-3.57,4.58-4.49,10.25-8.18,14.7,1.35,1.03,3,2.11,4.95,3.14l2.3-3.06-.79,3.82c5.71,2.73,13.77,4.99,24.81,4.92,1.39-6.25,1.5-12.31,.76-17.1"/><path class="s" d="M150.43,595.86c-1.3-.96-2.35-1.59-6.49-3.6-.27-.13-1.25-.76-1.61-.98-.9-.55-1.8-1.42-2.58-2.29-.74-.83-1.1-3.49-1.26-5.61,.43-4.73,7.29-80.63,8.73-88.85,1.49-8.48-.78-21.42-.78-21.42l-5.29-2-10.05,34.83,.79,26.51s-2.36,7.64-2.66,12.21c-.3,4.57,3.42,41.64,3.42,41.64h0c0,1.32-.05,2.52-.2,3.27-.27,1.39-1.79,4.24-1.1,5.55,.7,1.3,1.49,1.63,1.49,1.63l18.06,.29c.98,.01,.33-.62-.46-1.2"/><path class="y" d="M123.02,470.4s-6.27,9.46-7.76,17.29c-1.49,7.83,1.1,31.89-1.78,42.15-1.55,5.55-7.45,14.13-8.34,21.31-.9,7.18-4.01,27.89-4.01,27.89-.47,2.18-1.21,4.86-2.17,6.11-.59,.77-1.66,1.73-2.36,3.12-1.1,2.15-.49,5.36,.32,7.12,.42,.91-.03,.9,.92,1.2,2.8,.87,5.77-.59,6.96-3.28,.66-1.5,1.25-3.5,1.37-6.02,.12-2.67,.54-4.8,.99-6.36l20.04-49.17,14.51-42.43,3.72-21.85-22.39,2.93Z"/><path class="j" d="M105.34,591.89c-4.34,.79-7.22-1.75-8.73-3.65-1.1,2.16-1.64,5.38-.83,7.15,.71,1.56,2.8,1.52,4.45,1.58,1.74,.06,3.08-.9,3.94-2.42,.4-.71,.82-1.59,1.17-2.65"/><path class="j" d="M142.33,591.28c-4.78,1.23-8.31,.39-10.28-.4-.51,1.45-1.18,3.26-.83,4.31,.44,1.28,1.06,1.57,1.61,1.58,4.36,.12,15.98,.27,19.31,.31,.46,0,.72-.54,.42-.9-.82-.99-9.88-4.69-10.23-4.91"/><path class="t" d="M127.09,531.85c.37,.03,.75,.05,1.13,.07h.06c.37,.03,.75,.05,1.12,.07h.07c.38,.02,.75,.04,1.13,.06h.06c.38,.02,.77,.03,1.15,.05,4.28,.14,9.57,.09,12.96-.49,1.73-17.31,2.37-33.11,3.01-36.61,1.55-8.48-1.35-21.87-1.35-21.87l-1.39-.25,.88-4.96-23.29,2.93s-6.52,9.46-8.07,17.29,1.14,31.89-1.85,42.15c0,0,6.65,1.04,14.38,1.56"/><path class="i" d="M128.1,416.58s-8.3-.53-11.59,3.06c-3.28,3.59,7.29,31.97,7.88,36.54,.6,4.57-3.04,16.71-3.04,16.71,0,0,19.5,3.93,25.08,.24,0,0,.6-32.84,0-36.1s-5.57-16.53-6.77-17.83c-1.19-1.31-11.56-2.61-11.56-2.61"/><path class="ac" d="M130.86,405.46s-.04,.24-.12,.66c-.37,2-1.8,8.64-2.76,10.46-1.16,2.21,3.98,9.24,8.94,8.38,1.47-.25-1.25-6.46-1.12-7.12,.25-1.26,.59-2.97,.94-4.73,.2-.99,.39-2,.58-2.95,.53-2.69,.96-4.89,.96-4.89l-7.43,.19Z"/><path class="q" d="M130.74,406.12c.08-.42,.12-.66,.12-.66l7.43-.19s-.43,2.2-.96,4.89c-.18,.94-.38,1.94-.58,2.93-1.15-.17-2.34-.73-3.55-1.78-1.31-1.15-2.17-2.53-2.69-4,.09-.47,.17-.88,.23-1.19"/><path class="ac" d="M135.86,388.54s-3.5-.4-5.69,2.44c-2.19,2.84-4.56,11.64,.89,16.42,5.45,4.78,10.83-.63,11.63-6.37,.8-5.74,1.11-12.69-6.83-12.49"/><path class="ac" d="M144.3,400.94c-.65,1.27-1.74,1.97-2.44,1.57-.7-.4-.73-1.76-.08-3.02,.65-1.27,1.74-1.97,2.44-1.57,.7,.4,.73,1.75,.08,3.02"/><path class="t" d="M136.25,387.6s-4.67,8.36-8.02,8.75c-3.34,.39-3.78,4.83-3.78,4.83,0,0,1.2-10.24,4.51-12.21,3.31-1.97,7.3-1.37,7.3-1.37"/><path class="ac" d="M129.11,398.45c.27,1.48-.28,2.85-1.22,3.04-.95,.2-1.93-.85-2.21-2.34-.27-1.48,.28-2.85,1.22-3.04,.95-.2,1.93,.85,2.21,2.34"/><path class="f" d="M133.23,403.85l5.06,1s-.49,1.9-2.73,1.52c-2.73-.45-2.33-2.52-2.33-2.52"/><rect class="ad" x="630.42" y="549.54" width="2.11" height="48.38" transform="translate(-95.75 127.56) rotate(-10.73)"/><polygon class="ad" points="538.95 597.92 536.46 597.92 545.76 549.76 547.83 550.15 538.95 597.92"/><polygon class="ad" points="611.8 597.92 609.31 597.92 618.6 549.76 620.68 550.15 611.8 597.92"/><polygon class="ah" points="561.69 597.92 563.72 597.94 554.8 549.98 552.73 550.37 561.69 597.92"/><path class="q" d="M597.6,445.4c11.08,1.19,25.41,2.44,39.8,26.86,15.73,26.69,7.45,66.55-4.97,77.63-12.41,11.08-52.95,24.76-87.03,4.28,0,0-20.58-12.41-10.02-33.01,16.25-31.7,13.96-38.3,21.22-50.73,7.27-12.42,17.48-27.55,40.99-25.04"/><path class="d" d="M637.39,472.26c-9.82-16.67-19.62-22.54-28.37-24.97,3.38,3.5,6.82,8.01,10.25,13.84,15.73,26.69,7.45,66.55-4.96,77.63-11.01,9.83-44.14,21.69-75.26,9.97,3.2,3.54,6.34,5.44,6.34,5.44,34.08,20.48,74.62,6.8,87.03-4.28,12.41-11.08,20.69-50.94,4.97-77.63"/><polygon class="y" points="562.04 485.97 559.19 494.51 567.87 491.1 562.04 485.97"/><path class="o" d="M570.98,460.55c-.58,.02-2.16,.55-4.48,4.92-2.96,5.57-7.29,22.41-7.29,22.41l12.91,4.79,1.66-3.51,2.73-27.06s-5.38-1.56-5.54-1.55"/><path class="j" d="M588.05,458.13c-3.69,0-12.83,1.08-17.07,2.43,0,0-3.11,26.68,2.8,46.96,1.32,4.54-1.1,18.81-1.1,18.81l38.26-.5s-4.53-34.51-2.82-40.09c1.71-5.58,1.75-25,1.75-25,0,0-.26-.04-8.6-1.48-3.89-.67-9.28-1.14-13.23-1.13"/><path class="af" d="M592.51,575.85s-.85,9.74-2.4,12.43c-1.56,2.7,.08,7.28,.16,7.91,.08,.63,3.28,1.53,8.35,.99,5.08-.54,5-1.71,4.59-3.59-.41-1.89-3.11-4.31-3.28-6.11-.16-1.8,1.56-8.27,1.56-8.27l-8.98-3.36Z"/><path class="g" d="M577.01,518.29s-26.41-1.46-32.31,2.1c-5.9,3.56,1.07,10.87,1.07,10.87,0,0,21.5,9.32,57.5,11.39,8.52,.49,9.26-22.15,7.66-24.02s-33.92-.33-33.92-.33"/><path class="q" d="M599.26,597.94c5.23-.55,4.58-3.11,4.16-5.06-.26-1.22-1.76-2.65-2.66-4.01-.47,.37-1.23,1.03-3.5,1.7-2.36,.69-5.59-.68-7.65-1.54-.73,2.72-.77,6.2-.7,6.72,.09,.65,5.12,2.75,10.35,2.19"/><path class="t" d="M596.37,537.12c-1.06,7.96-6.28,47.57-6.28,47.57l12.12,1.5s14.91-51.71,14.14-59.62c-.76-7.91-6.34-8.57-6.34-8.57,0,0-10.85-1.95-13.64,19.12"/><path class="af" d="M610.29,463.7c-3.58-1.34-5.33,30.79-5.81,44.01-6.33,.61-17.38,0-20.13-.2-1.29-.1-4.27-1.18-5.56-1.35-1.32-.17-2.51-.26-3.16-.15-.24,.04-6.84,2.73-7.41,3.32-.7,.73-2.59,2.58-2.27,3.38,.32,.8,3.64-2.22,3.64-2.22l1.62-.91c-2.02,1.97-5.88,4.56-5.32,5.5,.54,.92,4.02-1.71,6.5-3.5-2.13,1.91-4.77,5.34-4.16,5.87,.55,.48,3.55-3.49,6.76-4.63,1.19-.42,2.38,.75,3.31,.89,.69,.1,1.75,.33,2.43,.13l3.48-.98c1.18,.11,1.21,.8,2.41,1.06,1.39,.29,3.67,.61,5.44,1.04,10.18,2.48,13.58,3.63,16.7,3.63,9.44,0,9.99-51.72,1.54-54.88"/><path class="j" d="M617.08,493.86c.67-13.54,.57-30.24-7.05-33.08-3.01-1.12-8.3,5.63-7.35,33.36,4.07,.33,10.04,.6,14.4-.28"/><path class="af" d="M557.06,584.18s1.06,3.38-.84,5.62c-1.89,2.23-9.76,4.43-10.8,5.64-1.03,1.21-.95,2.24-.95,2.24l22.09-.61-.24-6.65-1.02-4.78-8.24-1.46Z"/><path class="q" d="M554.85,590.91s5.68,2.29,8.42,.93c2.74-1.35,2.66-1.73,3.45-1.22,.79,.51,1.08,7.3,1.08,7.3l-24.84,.17c-1.73-.04-2.6-1.31-1.2-2.4,.96-.74,2.08-1.24,2.71-1.6,1.94-1.11,10.38-3.17,10.38-3.17"/><path class="t" d="M557.9,524.53c-1.71-3.58-5.59-8.24-12.42-5.43-6.52,2.68-8.26,9.26-6.21,16,2.06,6.74,15.59,46.36,16.06,51.81l10.81,.07s-1.96-31.37-2.45-38.95c-.46-7.3-2.84-17.29-5.79-23.49"/><path class="i" d="M540.35,488.04h36.12c.96,0,1.82,.58,2.18,1.46l11.12,27.13h19.91c.56,0,1.01,.45,1.01,1.01s-.45,1.01-1.01,1.01h-56.68c-1.56,0-2.97-.92-3.61-2.34l-11.2-24.95c-.7-1.56,.44-3.32,2.15-3.32"/><path class="f" d="M559.8,503.84c.24,1.22,1.31,2.03,2.37,1.82,1.07-.21,1.73-1.37,1.49-2.59-.24-1.22-1.31-2.03-2.37-1.82-1.07,.21-1.73,1.37-1.49,2.59"/><path class="ac" d="M592.44,446.69l1.77,11.65s-6.46,13.87-10.31,12.67c-3.23-1.01-1.24-13.28-1.24-13.28,0,0,1.76-6.59,1.23-9.89-.53-3.3,8.55-1.15,8.55-1.15"/><g class="x"><g class="r"><path class="l" d="M583.89,447.83c-.53-3.3,8.55-1.14,8.55-1.14l.15,.97c-.27,.65-.59,1.2-.98,1.62-2.03,2.18-5.2,3.49-7.94,3.59,.27-1.78,.44-3.69,.23-5.04"/></g></g><path class="ac" d="M593.93,430.21c.26-.09,2.06,13.27-1.36,16.94-3.42,3.68-10.07,4.88-12.46,1.98-2.64-3.2-2.51-17.56,2.8-21.34,5.31-3.78,11.02,2.42,11.02,2.42"/><path class="t" d="M584.93,420.65c4.11,.84,6.76,3.35,7.74,4.42,1.86,.22,4.4,1.25,7.02,5.58,3.22,5.33,.84,11.23-2.9,14.12-3.74,2.9-3.69,6.24-3.69,6.24l-.59-1.73c-.44-1.31-.62-2.7-.47-4.07,.09-.83,.26-1.72,.61-2.45,.9-1.93-1.93-3.22-2.73-4.83-.61-1.24-.64-4.07-1.61-6.12l-1.15-1.56s-2.66-2.07-5.26-1.48c-2.6,.58-2.22-9.19,3.04-8.11"/><path class="ac" d="M590.08,440.3c-.03,1.63,.71,2.96,1.65,2.98,.94,.02,1.73-1.29,1.75-2.92,.03-1.63-.71-2.96-1.65-2.98-.94-.02-1.73,1.29-1.75,2.92"/><path class="f" d="M585.47,444.82l-5.15-.27s.02,1.96,2.28,2.14c2.76,.22,2.87-1.88,2.87-1.88"/><path class="ac" d="M765.24,379.88c.56,2.31,1.58,5.96,1.58,5.96-.08,1-.38,5.18-.73,10.29l7.52-3.01s-.09-8.34,.24-8.85c.28-.43,.76,.11,3.07-3.19,.67-.95,.79-2.65,.79-2.65,0,0,.14-2.09-.33-2.29-.47-.2-1.01,.12-1.18,.48-.17,.36-.13,1.21-.3,1.57-.17,.36-1.26,.8-1.72,.78-.46-.02,.06-6.19,.06-6.19,0,0,.26-1.75,.39-2.32,.11-.49,.55-1.92,.55-1.92,0,0,.52-2.08-.12-2.24-.38-.09-1.35,1.59-2.01,3.39-.71,1.93-1.12,3.97-1.32,3.95-.48-.07-.23-3.45-.23-3.45,0,0,.48-1.55,.47-2.28,.45-.9,.75-2.56-.04-2.7-.15-.03-1.19,2.09-1.19,2.09,0,0-.41,1.49-.65,2.18-.42,1.22-.49,3.16-.71,4.01-.18,.71-.35,.42-.43,.45-.06,.02,.04-.96,.16-2.3,.06-.68-.02-1.46,.17-2.23,.18-.71,.28-1.74,.32-2.36,.13-1.75-.97-1.57-1.35,.03-.15,.61-.3,1.28-.45,1.95-.59,2.62-.58,5.15-.86,5.17-.37,.03-.13-4.57-.13-4.57,0,0-.56-2.55-1.12-.18-.65,2.74-.58,4.98-.57,5.08,.06,.67-.42,3.07,.14,5.37"/><path class="ac" d="M845.05,373.8c-.56,2.31-1.58,5.96-1.58,5.96,.08,1,.38,5.18,.73,10.29l-7.52-3.01s.09-8.34-.24-8.85c-.28-.43-.76,.11-3.07-3.19-.67-.95-.79-2.65-.79-2.65,0,0-.14-2.09,.33-2.29,.47-.2,1.01,.12,1.18,.48,.17,.36,.13,1.21,.3,1.57,.17,.36,1.26,.8,1.72,.78,.46-.02-.06-6.19-.06-6.19,0,0-.26-1.75-.39-2.32-.11-.49-.55-1.92-.55-1.92,0,0-.52-2.08,.12-2.24,.38-.09,1.35,1.59,2.01,3.39,.71,1.93,1.12,3.97,1.32,3.95,.48-.06,.23-3.45,.23-3.45,0,0-.48-1.55-.47-2.28-.45-.9-.75-2.56,.04-2.7,.15-.03,1.19,2.09,1.19,2.09,0,0,.41,1.49,.65,2.18,.42,1.23,.49,3.16,.71,4.01,.18,.71,.35,.42,.43,.45,.06,.02-.04-.96-.16-2.3-.06-.68,.02-1.46-.17-2.23-.18-.71-.28-1.74-.32-2.36-.13-1.75,.97-1.57,1.35,.03,.15,.61,.3,1.28,.45,1.95,.59,2.62,.58,5.15,.86,5.17,.37,.03,.13-4.57,.13-4.57,0,0,.56-2.55,1.12-.18,.65,2.74,.58,4.98,.57,5.08-.06,.67,.42,3.07-.14,5.37"/><path class="af" d="M824.48,569.94s4.17,5.17,5.21,5.81-.46,8.15-3.29,8.64c-1.59,.28-2.48-1.48-2.48-1.48l.46-2.16-5.96-6.14,6.06-4.67Z"/><path class="af" d="M803,571.21s3.48,5.66,4.42,6.42c.95,.76-1.5,8.02-4.37,8.15-1.62,.07-2.27-1.78-2.27-1.78l.73-2.09-5.12-6.85,6.61-3.85Z"/><path class="n" d="M807.22,577.42s-2,2.55-3.09,3.56c-1.41,1.31-3.21,2.59-3.21,2.59,0,0-2.04,3.7-2.6,4.99-1.24,2.87-2.63,6.08-2.43,7.69,.06,.52,1.23,1.06,2.19,.77,4.03-1.24,14.33-10.66,15.63-13.19,1.5-2.92-6.5-6.41-6.5-6.41"/><path class="ad" d="M777.82,491.21c.37-1.05,.73-2.02,1.08-2.93,4.28,.94,9.12,1.96,14.1,3.02l.61,18.24c0-1.41-3.74,29.1-3.74,29.1,0,0,9.67,21.41,16.29,33.89-2.72,3.39-3.99,4.48-7.92,6.79-10.27-12.31-23.71-34.83-24.26-38.58-.32-2.15-.61-36.98,3.85-49.54"/><path class="ab" d="M816.06,496.49c-1.31,14.22-4.22,41.39-3.98,43.58,.73,2.73,13.68,27.87,16,31.53-1.85,2.79-4.72,5.8-7.79,6.63-.61,.16-21.97-30.24-23.13-32.65-1.32-2.73-3.51-17.61-3.55-36.03l-.61-18.24c8.29,1.77,15.92,3.5,23.05,5.18"/><path class="i" d="M788.83,431.69l9.76,1.34s7.81,.14,8.78,.14,7.12,35.66,8.89,49.06c1.78,13.4,.4,15.77,.4,15.77,0,0-12.38,2.78-21.53,1.97-9.52-.84-20.23-5.98-20.23-5.98,0,0,8.14-25.75,9.75-33.79,1.61-8.04,4.19-28.51,4.19-28.51"/><path class="j" d="M765.16,388.56s-.63,26.55,.37,28.58c1.46,2.95,17.85,23.9,17.85,23.9,0,0-7.83,32.77-11.12,44.08-.33,1.14-1.8,8.5-1.8,9.22,0,1.59,6.93,3.61,7.75,3.49,.74-.11,6.78-31.27,10.64-46.53,1.31-5.17,3.55-10.05,6.62-14.41l2.68-3.81-20.59-20.64s-2.54-22.97-2.54-24.88c0-.5-8.86-.87-9.86,1"/><path class="j" d="M807.03,433.17l25.68-26.16s3.58-24.74,3.83-25.67c.25-.92,6.63-1.41,9.2-1.66,.83-.08-.43,26.35-1.66,30.78-1.45,5.23-20.86,29.08-20.86,29.08,0,0-3.48,12.92-2.64,22.39,1.39,15.74,5.14,37.38,4.47,38.06-4.17,2.63-20.19,2.91-21.2,1.28-11.19-18.03,3.19-68.1,3.19-68.1"/><path class="n" d="M829.45,575.55s-1.65,2.78-2.61,3.92c-1.23,1.48-2.85,2.98-2.85,2.98,0,0-1.55,3.93-1.94,5.28-.86,3.01-1.84,6.64-1.43,8.21,.13,.5,1.24,1.47,2.15,.87,3.53-2.3,12.97-13.07,13.93-15.74,1.12-3.08-7.26-5.52-7.26-5.52"/><path class="e" d="M799.31,399.08c1.09,.04,2.19,.03,3.27-.06,1.23-.11,2.8-.19,3.7,0,1.9,.4,4.91,1.75,5.92,4.24,1.25,3.1,5.73,2.64,.43,14.4-6.01,13.31-13.02,8.95-13.12,8.65-.1-.3-3.47-11.28-3.47-11.28,0,0-4.2,4.16-4.13,3.98,.07-.18-5.72-20.4,7.4-19.93"/><path class="af" d="M798.72,428.2l-.7,5.21s-1.57,7.5,.45,8.95c2.02,1.45,8.58-9.16,8.58-9.16l-.69-13.2-7.63,8.2Z"/><path class="q" d="M806.57,424.27c-1.67,4.5-5.63,7.27-8.45,8.34l.59-4.42,7.63-8.2,.22,4.28Z"/><path class="af" d="M804.07,405.07c-3.75-2.15-8.55-.29-9.96,3.75-.61,1.76-1.29,3.98-1.81,6.46-1.25,5.95,.71,12.36,3.42,12.87,2.7,.52,10.92-1.93,12.82-10.36,1.17-5.2-.52-10.46-4.46-12.72"/><path class="af" d="M806.41,418.07c-.25,1.32,.41,2.55,1.49,2.76,1.07,.21,2.15-.7,2.4-2.01,.25-1.32-.41-2.55-1.49-2.76-1.07-.2-2.15,.7-2.4,2.02"/><path class="e" d="M808.81,416.06s-3.36-.4-3.75-2.8c-.39-2.4-2.86-8.2-8.7-8.39-5.84-.19,6.17-2.57,6.59-2.42,.41,.16,5.4,2,5.4,2,0,0,2.64,4.6,2.65,5,0,.4-.31,4.59-.31,4.59l-1.87,2.02Z"/><path class="f" d="M800.09,422.17l-5.99-1.04s-.26,2.3,2.36,2.84c3.19,.65,3.63-1.8,3.63-1.8"/><path class="h" d="M370.95,446.24c.23,.78,.36,1.04,.64,1.56,1.85,3.37,6.15,8.18,6.15,8.18l3.32-7.49s-.54-2.35-1.48-5.71c-3.21,.84-6.27,1.32-8.63,3.46"/><path class="n" d="M390,439.75s-18.53,7.98-19.13,7.83c-.39-.1-7.6-12.18-7.68-23.53-.04-5.25,5.41-11.56,11.49-10.31,3.06,.63,3.01,1.48,7.54,8.06,4.53,6.58,7.78,17.95,7.78,17.95"/><path class="af" d="M405.82,582.81s-.44,7.28-.44,7.29c-.16,.92-.8,3.21-.8,4.05,0,3.16,14.98-2.68,11.63-4.08-.3-.13-1.9-1.08-2-2.16-.15-1.65-.55-5-.55-5l-7.84-.1Z"/><path class="aj" d="M416.17,590.05s-3.52,.97-5.32,1.21c-1.8,.24-4.18-1.79-5.45-1.24-1.4,.61-1.35,6.04-1.35,6.04,0,0,18.87,1.55,24.17-.05,2.1-.63-4.86-3.7-12.05-5.95"/><path class="af" d="M375.17,582.81s-.44,7.28-.44,7.29c-.16,.92-.8,3.21-.8,4.05,0,3.16,14.98-2.68,11.63-4.08-.3-.13-2.37-1.8-2.47-2.87-.15-1.66-.07-4.29-.07-4.29l-7.84-.1Z"/><path class="aj" d="M385.52,590.05s-3.52,.97-5.32,1.21c-1.8,.24-4.18-1.79-5.45-1.24-1.4,.61-1.46,6.04-1.46,6.04,0,0,18.95,1.8,24.28-.05,2.07-.72-4.86-3.7-12.05-5.95"/><path class="ac" d="M379.75,450.27l13.2-18.49c.06-.16,.18-.49,.36-1,.66-1.83,2.05-5.65,3.25-9.45v-.04c.39-1.33,1.19-3.64,1.97-5.88,.86-2.49,1.93-5.58,1.97-6.11-.03-.09-.1-.25-.18-.47-.48-1.26-1.14-4.25-1.37-5.55-.15-.83-.29-2.84,.69-2.84,1.55,0,.81,2.01,1.52,3.27,.26-.84,.79-2.51,1.07-4.19l.26-3.93c.05-.3-.26-2.46,.82-2.46h.05c.98,.07,.95,2.38,1.36,6.28,.13-.45,.26-.99,.35-1.49-.01-.27,.18-1.44,.33-2.06-.2-1.09-.08-2.8,1.07-2.64,.58,.08,.53,2.47,.53,2.47,0,.33-.04,2.86-.02,3.36,.12-.85,.58-4.47,1.49-4.47,.75,0,.81,.97,.8,1.74,0,.46-.48,4.38-.51,4.83,.35-.6,.77-4.05,1.13-4.05,1.47,0,.94,4.91,.4,6.19-.05,.13-.1,.39-.17,.69-.18,.88-.49,2.34-1.26,3.65-.92,1.58-2.19,4.08-2.39,4.47-.14,.78-.58,3.6-1.14,7.14-.24,1.51-.5,3.18-.77,4.9h-.02c-.05,.37-.32,1.56-1.37,6-1.43,6.08-1.58,6.34-1.64,6.46-.62,1.1-14.85,20.42-15.46,21.24l-.36,.49-5.99-8.07Z"/><path class="l" d="M404.29,407.15s-1.07-2.74-2.98-2.74c0,0,1.07-.38,1.98,.34,.91,.72,1,2.41,1,2.41"/><path class="af" d="M376.56,401.86l-1.7,10.74s6.47,5.2,10.25,4.1c3.17-.92,.99-5.06,.99-5.06,0,0-1.69-5.74-1.17-8.74,.52-3.01-8.37-1.04-8.37-1.04"/><path class="ag" d="M377.78,405.11c1.62,.77,4.83,1.81,7.33,2.06-.24-1.5-.37-3.09-.17-4.27,.24-1.39-1.53-1.72-3.5-1.67-2.58,.22-4.88,.62-4.88,.62l-.33,2.06c.49,.52,1.01,.93,1.55,1.18"/><path class="af" d="M368.39,389.47c-.27,0,2.56,12,6.93,14.07,4.37,2.06,10.9,.99,12.12-2.24,1.35-3.58-3.58-15.82-9.74-17.38-6.15-1.56-9.32,5.55-9.32,5.55"/><path class="n" d="M373.45,378.44c-3.49,2.02-5.1,5-5.64,6.23-1.64,.78-3.62,2.46-4.58,7-1.17,5.58,2.99,9.87,7.41,11.17,4.41,1.29,5.1,4.21,5.1,4.21l.5-3.14s-.98-2.74-2.46-4.11c-1.48-1.37,.7-3.37,.89-4.99,.15-1.25-.78-3.69-.58-5.75,0,0,2.45-3.72,4.87-4.63,4.12-1.57-1.03-8.56-5.52-5.98"/><path class="af" d="M375.31,396.89c.57,1.39,.34,2.76-.52,3.07-.86,.31-2.02-.56-2.59-1.95s-.34-2.76,.52-3.07c.86-.31,2.02,.56,2.59,1.95"/><path class="h" d="M391.6,450.57l25.46-4.15s-2.9-7.29-3.93-7.29-19.25,7.95-19.25,7.95l-1.45,2.91-.83,.58Z"/><path class="ah" d="M378.56,468.02s-2.54,12.28-1.5,21.59c1.03,9.31,1.12,42.38,1.12,42.38l-3.95,52.91,9.37,.2s11.11-52.88,10.9-51.52c-.21,1.36,3.72-37.23,3.72-37.23l-13.25-29.48-6.42,1.16Z"/><path class="n" d="M381.04,467.44s-1.66,11.05,.41,15.9,17.75,52.42,17.96,56.3c.21,3.88,5.42,46.75,5.42,46.75l10.9-.31,2.36-47.66-4.93-59.9-4.79-15.15-27.32,4.07Z"/><path class="af" d="M374.86,412.6s2.69,1.76,5.19,1.56c2.5-.2,6.05-2.52,6.05-2.52l-.49-1.67s-6.48-.94-6.65-.84c-.16,.1-4.1,3.47-4.1,3.47"/><path class="h" d="M403.49,438.77s9.63,9.09,13.98,7.54c4.35-1.55,6.14-6.86-4.46-14.61-9.49-6.94-9.52,7.08-9.52,7.08"/><path class="i" d="M410.02,449.99c-1.43-7.78-11.8-32-12.62-36.46-.4-2.17-5.99-2.22-11.32-1.93-5.63,.3-11.21,1.01-11.21,1.01,0,0-4.98,.82-7.17,2.87-2.19,2.05-2.77,7.73,.38,18.51,2.49,8.51,5.57,13.18,7.09,19.38,.31,2.08,.57,4.13,.92,6.53,.56,9.27,0,21.51,0,21.51,0,0,27.11,5.62,37.25-2.91,0,0-1.85-20.53-3.31-28.51"/><path class="ae" d="M416.93,433.25s-10.64,8.78-11.26,8.78c-.4,0-15.18-10.87-18.59-19.81-1.89-4.94,2.07-10.46,6.59-10.45,3.13,.01,4.52,.82,10.73,6.06,6.21,5.24,12.53,15.42,12.53,15.42"/><path class="k" d="M425.25,239.89c-2.6-1.76-5.27-3.42-7.83-5.23-.47-.33-.88-1.17-.83-1.74,.34-3.62,.88-7.22,1.2-10.84,.09-1.05,.33-1.61,1.34-2,3.56-1.39,7.09-2.88,10.62-4.34,.57-.24,1.14-.49,2.13-.92-1.69-5.43-3.36-10.8-5.07-16.3-4.55,.9-8.71,1.66-12.82,2.58-1.45,.33-2.24,.16-3.18-1.19-1.91-2.75-4.2-5.23-6.26-7.88-.31-.41-.45-1.23-.27-1.7,1.4-3.62,2.79-7.25,4.41-10.77,.77-1.69,.39-2.6-1.13-3.39-.58-.3-1.06-.82-1.58-1.23-2.62-1.41-5.23-2.81-7.85-4.22-.33-.07-.68-.08-.98-.2-3.19-1.31-2.58-1.28-4.39,1.38-2.21,3.25-4.36,6.53-6.25,9.37-4.89-.46-9.46-.89-14.18-1.33-1.79-4.34-3.65-8.87-5.53-13.43-5.76,.77-11.05,2.59-16.25,5.05,.9,4.48,1.76,8.85,2.66,13.21,.16,.78,.11,1.26-.65,1.83-3,2.25-5.95,4.57-8.79,7.02-.82,.71-1.35,.71-2.23,.34-3.63-1.53-7.3-2.97-10.94-4.48-.9-.38-1.49-.35-2.16,.54-3,3.96-5.05,8.4-6.73,13.04-.33,.92,.11,1.32,.8,1.77,3.21,2.08,6.37,4.25,9.59,6.31,.93,.59,1.21,1.11,1.03,2.31-.64,4.14-1.04,8.33-1.57,12.83-3.94,1.62-8.42,3.47-12.89,5.31,.77,5.87,2.34,11.3,4.94,16.48,4.88-1,9.63-1.98,13.93-2.86,2.68,3.09,5.1,6.03,7.7,8.8,.98,1.05,1.16,1.84,.58,3.13-1.53,3.44-2.93,6.95-4.34,10.44-.28,.69-.83,1.49,.25,2.06,4.38,2.32,8.77,4.63,13.15,6.95,.93,.49,1.52,.18,2.08-.7,2.1-3.27,4.34-6.44,6.39-9.74,.79-1.27,1.64-1.32,2.96-1.14,3.26,.44,6.55,.81,9.84,.89,1.42,.03,1.94,.4,2.41,1.66,1.54,4.05,3.23,8.04,4.83,11.96,3.51,0,13.08-3,16.52-5.14-.9-4.31-1.77-8.68-2.76-13.01-.25-1.09,.08-1.55,.91-2.21,2.68-2.11,5.21-4.4,7.87-6.54,.45-.36,1.35-.56,1.87-.36,3.24,1.27,6.44,2.65,9.64,4.04,1.79,.77,2.51,1.09,3.19,.63l7.49-13.93c.02-1.13-.76-1.67-2.86-3.09m-27.83-4.89c-6.69,12.45-22.21,17.12-34.66,10.42-12.45-6.69-17.12-22.21-10.42-34.66,6.69-12.45,22.21-17.12,34.66-10.42,12.45,6.69,17.12,22.21,10.42,34.66Z"/><path class="aa" d="M294.98,299.51c-4.21,.41-8.4,.97-12.62,1.29-.77,.06-1.92-.46-2.35-1.09-2.76-4.05-5.28-8.26-8.06-12.28-.81-1.17-1.04-1.95-.33-3.23,2.5-4.5,4.88-9.07,7.31-13.62,.39-.74,.76-1.49,1.42-2.78-6.41-4.19-12.75-8.33-19.26-12.57-3.95,4.85-7.62,9.19-11.1,13.68-1.23,1.58-2.19,2.09-4.32,1.49-4.34-1.22-8.85-1.83-13.26-2.82-.67-.15-1.52-.89-1.74-1.54-1.66-4.96-3.32-9.92-4.67-14.97-.65-2.42-1.83-3.04-4.08-2.55-.86,.19-1.8,.06-2.7,.08-3.92,.78-7.85,1.57-11.77,2.35-.4,.21-.77,.5-1.2,.63-4.44,1.38-3.77,.88-3.37,5.21,.49,5.27,1.07,10.53,1.55,15.09-5.47,3.72-10.58,7.2-15.86,10.8-5.58-2.97-11.41-6.07-17.27-9.2-5.32,5.75-9.26,12.18-12.53,19.19,4.78,3.88,9.42,7.67,14.09,11.43,.84,.67,1.2,1.21,.89,2.46-1.19,4.91-2.26,9.86-3.11,14.84-.24,1.44-.79,1.89-2.02,2.26-5.08,1.53-10.13,3.18-15.2,4.73-1.26,.39-1.84,.92-1.78,2.41,.29,6.69,1.97,13.06,4.21,19.31,.44,1.24,1.24,1.27,2.35,1.14,5.12-.59,10.26-1.05,15.37-1.68,1.47-.18,2.21,.11,3.04,1.51,2.89,4.86,6.07,9.54,9.38,14.68-2.7,5.07-5.76,10.82-8.82,16.57,5.83,5.44,12.13,9.73,19.27,12.87,4.21-5.23,8.3-10.32,12-14.93,5.44,.91,10.47,1.88,15.55,2.53,1.92,.24,2.78,.91,3.29,2.75,1.37,4.89,2.93,9.72,4.45,14.57,.3,.96,.42,2.26,2.03,1.93,6.54-1.36,13.08-2.71,19.62-4.07,1.39-.29,1.73-1.12,1.56-2.52-.63-5.19-1.02-10.42-1.73-15.6-.27-2,.56-2.78,2.09-3.73,3.77-2.35,7.5-4.78,10.98-7.52,1.5-1.18,2.35-1.24,3.93-.35,5.07,2.89,10.25,5.57,15.28,8.27,3.64-3.01,11-14.33,12.74-19.52-4.64-3.7-9.28-7.49-14.04-11.15-1.19-.91-1.25-1.67-.95-3.07,.97-4.49,1.63-9.04,2.56-13.54,.16-.76,.93-1.74,1.63-1.97,4.46-1.47,8.97-2.78,13.47-4.08,2.52-.73,3.54-1.02,3.86-2.08l-4.18-20.89c-.95-1.19-2.22-1.08-5.62-.75m-33.09,18.82c3.73,18.67-8.37,36.83-27.05,40.57-18.67,3.73-36.83-8.37-40.57-27.05-3.73-18.67,8.37-36.83,27.05-40.57,18.67-3.73,36.83,8.37,40.57,27.05"/><g class="x"><g class="u"><path class="aa" d="M286.23,190.95c-1.69-.8-3.4-1.54-5.07-2.37-.3-.15-.62-.61-.64-.95-.12-2.16-.13-4.32-.26-6.48-.04-.63,.05-.97,.61-1.3,1.97-1.14,3.91-2.33,5.86-3.5,.32-.19,.63-.39,1.17-.73-1.48-3.04-2.94-6.05-4.44-9.13-2.6,.94-4.97,1.75-7.31,2.66-.82,.32-1.3,.29-1.97-.41-1.37-1.45-2.94-2.7-4.38-4.08-.22-.21-.37-.68-.31-.98,.5-2.25,1-4.51,1.63-6.73,.3-1.06,0-1.56-.97-1.89-.37-.13-.69-.39-1.04-.58-1.66-.59-3.33-1.19-4.99-1.78-.2,0-.41,.01-.6-.03-1.99-.48-1.63-.52-2.46,1.21-1.01,2.11-1.98,4.23-2.84,6.07-2.92,.17-5.64,.32-8.46,.49-1.44-2.39-2.94-4.89-4.45-7.4-3.32,.97-6.27,2.51-9.1,4.42,.93,2.55,1.82,5.04,2.74,7.53,.16,.45,.18,.73-.22,1.13-1.57,1.59-3.09,3.22-4.54,4.91-.42,.49-.73,.54-1.28,.4-2.27-.57-4.56-1.1-6.83-1.66-.56-.14-.91-.07-1.22,.51-1.41,2.6-2.22,5.39-2.79,8.27-.11,.57,.18,.76,.63,.97,2.07,.94,4.12,1.93,6.2,2.86,.6,.27,.81,.54,.81,1.26,0,2.49,.13,4.99,.22,7.68-2.17,1.31-4.64,2.79-7.1,4.27,.97,3.38,2.38,6.44,4.38,9.25,2.78-1.02,5.48-2.02,7.93-2.92,1.85,1.58,3.54,3.09,5.31,4.49,.67,.53,.84,.98,.62,1.79-.59,2.16-1.1,4.35-1.62,6.53-.1,.43-.36,.95,.33,1.19,2.79,.97,5.57,1.94,8.35,2.91,.59,.21,.91-.03,1.16-.6,.94-2.11,1.98-4.18,2.89-6.3,.35-.82,.84-.92,1.64-.94,1.96-.03,3.93-.11,5.87-.36,.84-.11,1.17,.06,1.57,.76,1.26,2.24,2.62,4.44,3.91,6.6,2.06-.31,7.42-2.93,9.26-4.5-.92-2.45-1.81-4.94-2.78-7.41-.24-.62-.09-.92,.34-1.38,1.39-1.48,2.67-3.05,4.04-4.55,.23-.25,.75-.45,1.06-.38,2.02,.46,4.03,.99,6.03,1.51,1.12,.3,1.57,.42,1.93,.09l3.16-8.86c-.09-.67-.6-.91-1.96-1.56m-16.8-.39c-2.83,7.92-11.53,12.04-19.45,9.22-7.92-2.83-12.05-11.54-9.22-19.45,2.83-7.92,11.53-12.04,19.45-9.22,7.92,2.82,12.05,11.53,9.22,19.45"/></g></g><path class="i" d="M259.43,593.98l-5.01-.02c.66-21.86,1.24-55.06,.14-56.92,0,0,.07,.12,.33,.25l4.06-1.06c.66,.33,1.05,.53,1.19,9.83,.07,4.78,.04,11.39-.08,19.64-.21,14.03-.64,28.15-.64,28.29"/><path class="i" d="M274.11,593.71h-33.8c-1.56,0-2.82,1.26-2.82,2.82,0,.27,.22,.49,.49,.49h38.45c.27,0,.49-.22,.49-.49,0-1.56-1.26-2.82-2.82-2.82"/><path class="i" d="M258.89,590.93h-4.14c-1.23,0-2.22,.99-2.22,2.22s.99,2.22,2.22,2.22h4.14c1.23,0,2.22-.99,2.22-2.22s-.99-2.22-2.22-2.22"/><rect class="n" x="137.06" y="497.32" width="2" height="99.64"/><path class="n" d="M239.85,442.19c-.18-4.43,.47-8.8,2.45-12.92,1.7-3.55,5.92-5.56,9.77-5.57,12.21-.02,13.77,16.12,21.54,22.35,2.38,1.9,5.03,3.45,7.28,5.5,8.3,7.57,4.56,21.6-3.06,28.24-5.29,4.61-13.6,7.23-20.12,3.62-3.4-1.88-5.99-5.01-7.83-8.43-2.61-4.86-4.3-10.47-6.15-15.65-1.98-5.51-3.63-11.25-3.88-17.14"/><path class="s" d="M206.15,488.59l26.58-7.41s5.6-7.52,12.8-17.61c2.35,2.33,3.66,5.91,6.04,8.22l-17.59,19.46c-.63,.7-1.53,1.1-2.48,1.11l-24.42,.08-8.36,.67v-5.35l7.44,.84Z"/><path class="m" d="M244.42,482.94s9.12-9.35,11.47-13.42c2.35-4.06-1.6-1.42-5.63-2.49-1.53-.4-1.14-9.35-4.03-6.44-4.73,4.77-10.68,13.11-10.68,13.11l8.87,9.23Z"/><path class="w" d="M257.39,456.5s8.19-1.62,11.92,1.51c3.73,3.12-.8,30.87-.8,35.47,0,4.6,2.56,17.6,2.56,17.6,0,0-24.81,4.34-28.75-2.56,0,0-1.12-26.31-.95-29.62,.17-3.31,3.85-16.84,4.86-18.29,1.02-1.45,11.15-4.1,11.15-4.1"/><path class="ac" d="M257.44,443.83s.04,.24,.12,.66c.37,2,1.8,8.63,2.77,10.45,1.17,2.2-4,9.23-8.97,8.37-1.48-.25,1.25-6.45,1.12-7.11-.25-1.26-.59-2.97-.94-4.73-.2-.99-.39-2-.58-2.94-.53-2.68-.97-4.88-.97-4.88l7.45,.18Z"/><path class="q" d="M257.56,444.49c-.08-.42-.12-.66-.12-.66l-7.45-.18s.43,2.2,.97,4.88c.19,.94,.38,1.94,.58,2.93,1.15-.17,2.35-.73,3.56-1.78,1.31-1.15,2.18-2.53,2.69-4-.09-.47-.17-.87-.23-1.18"/><path class="ac" d="M252.43,426.94s3.51-.4,5.71,2.43c2.2,2.84,4.57,11.62-.89,16.4-5.47,4.78-10.87-.63-11.67-6.36-.8-5.73-1.11-12.68,6.85-12.47"/><path class="ac" d="M243.96,439.33c.65,1.27,1.75,1.97,2.45,1.57,.7-.4,.73-1.75,.08-3.02-.65-1.27-1.75-1.97-2.45-1.57-.7,.4-.74,1.75-.08,3.02"/><path class="n" d="M252.03,426s4.69,8.35,8.04,8.74c3.35,.39,3.79,4.82,3.79,4.82,0,0-1.2-10.22-4.52-12.2s-7.32-1.36-7.32-1.36"/><path class="ac" d="M259.2,436.84c-.27,1.48,.28,2.84,1.23,3.04,.95,.19,1.94-.85,2.21-2.33,.27-1.48-.28-2.84-1.23-3.04-.95-.2-1.94,.85-2.21,2.33"/><path class="s" d="M227.64,574.39s7.53,9.03,7.58,9.82c.05,.79-.3,9.36-1.19,10.15-.9,.78-3.53,1.34-2.68,2.23,.64,.67,5.56,.53,8.82,.35,.95-.05,2.14-7.64,2.52-8.76,.55-1.62,1.88-5.27,1.38-6.4-.24-.55-1.4-1.68-3.04-2.74-1.72-1.11-8.3-10.26-8.3-10.26l-5.09,5.62Z"/><path class="d" d="M240.92,578.97s-5.06,14.24-7.04,14.93c-.52,.18-3.05,.65-3.52,1.76-.14,.34,0,1.46,0,1.46h10.54s1.33-6.27,1.86-9.03c0,0,2.79-6.74,2.48-7.35-.31-.61-4.32-1.77-4.32-1.77"/><path class="af" d="M182.53,578.73s-6.15,8.66-5.61,11.4c.29,1.47,1.58,3.39,.84,4.77-.74,1.38-1.59,1.73-1.59,1.73l-19.19,.31c-1.04,.02-.35-.65,.49-1.27,1.38-1.01,2.49-1.68,6.9-3.81,.29-.14,1.33-.8,1.71-1.03,.96-.58,1.92-1.5,2.74-2.42,1.38-1.53,7.43-14,7.43-14l6.27,4.34Z"/><path class="d" d="M166.08,590.81c5.07,1.3,8.82,.42,10.92-.43,.54,1.53,1.26,3.45,.88,4.56-.46,1.36-1.13,1.66-1.71,1.68-4.63,.12-16.98,.29-20.51,.33-.49,0-.77-.57-.45-.95,.88-1.04,10.49-4.96,10.87-5.19"/><path class="d" d="M204.77,525.31s7.62,8.69,9.56,10.07c1.94,1.38,20.58,35.7,20.58,35.7l-6.64,4.85s-16.66-20.77-24.48-31.88c-6.62-9.4-4.18-8.8-8.07-14.52-2.14-3.15-1.66-7.41,1.17-9.96,.35-.32,.73-.65,1.15-1,5.76-4.8,45.23-10.2,45.23-10.2l25.25,2.47s-20.63,14.46-21.4,14.85c-.77,.38-28.49,4.43-29.06,4.43s-13.28-4.81-13.28-4.81"/><path class="q" d="M271.08,511.07s4.33,12.99-2.16,19.06c-6.5,6.06-45.09,5.39-57.79,5.39,0,0-5.2,14.24-5.77,16.55-.58,2.31-25.79,32.14-25.79,32.14l-6.93-4.43s27.14-52.74,29.25-55.05c2.12-2.31,32.34-11.55,39.84-13.67,7.51-2.12,29.35,0,29.35,0"/><path class="ac" d="M220.87,487.69l23.04-5.1s8.33-10.71,16.34-19.92c2.35,2.33,3.66,5.91,6.04,8.22l-17.59,19.46c-.63,.7-1.53,1.1-2.48,1.11l-24.42,.08-8.36,.67v-5.35l7.44,.84Z"/><path class="m" d="M259.13,482.05s9.12-9.35,11.47-13.42c2.35-4.06,.61-10.87-3.42-11.94-4.03-1.07-16.91,16.12-16.91,16.12l8.87,9.23Z"/><path class="d" d="M173.52,461.46h38.01c1,0,1.91,.61,2.29,1.54l11.7,28.54h20.95c.59,0,1.06,.47,1.06,1.06s-.47,1.06-1.06,1.06h-59.63c-1.64,0-3.13-.96-3.8-2.46l-11.78-26.25c-.74-1.64,.46-3.49,2.26-3.49"/><path class="f" d="M193.98,478.08c.26,1.28,1.38,2.14,2.5,1.92,1.12-.22,1.82-1.45,1.57-2.73-.26-1.28-1.38-2.14-2.5-1.92-1.12,.23-1.82,1.45-1.57,2.73"/><path class="ah" d="M250.48,498.48h-113.55c-1.33,0-2.41-1.08-2.41-2.41s1.08-2.41,2.41-2.41h113.55c1.33,0,2.41,1.08,2.41,2.41s-1.08,2.41-2.41,2.41"/><path class="f" d="M250.31,442.62l5.15-.27s-.02,1.96-2.28,2.14c-2.76,.22-2.87-1.88-2.87-1.88"/><path class="i" d="M234.2,536.84l2.33-9.68c1.63-6.77,7.62-11.7,14.58-11.98l29.45-1.19,.91-3-30.48,1.23c-8.27,.33-15.4,6.19-17.34,14.24l-2.47,10.29c.84,.04,1.86,.06,3.02,.09"/><path class="ah" d="M273.71,531.69s-40.47,.69-44.68,0c-4.22-.69-6.04,4.6-4.78,7.37,1.26,2.77,4.72,3.84,9.82,4.09,5.1,.25,47.54,1.45,48.73,.31,.98-.93,13.84-44.91,18.52-60.99,.94-3.22-.91-6.57-4.12-7.52-3.2-.94-6.55,.88-7.52,4.06l-15.97,52.67Z"/><rect class="n" x="248.49" y="497.32" width="2" height="99.64"/><rect class="n" x="137.06" y="503.77" width="112.93" height="1.07"/><path class="p" d="M551.16,17.86s14.67,9.5,50.83,8.21c0,0-38.76,14.64-53.91,16.9l-6.24-24.63,9.32-.47Z"/><path class="d" d="M558.08,30.26s-2.96,6.94-10,12.7l-3.25-12.84,.21-6.21,13.04,6.35Z"/><path class="q" d="M502.31,3.8s42.37-2.86,48.96-.44l6.81,26.9s-24.11-2.07-47.61,5.76l-8.16-32.22Z"/><path class="s" d="M476.79,303.63s-2.04,3.33-1.86,4.32c.18,.99,2.64,11.43,3.99,12.12,1.35,.69,4.78,.56,4.01,1.91-.58,1.03-6.7,2.39-10.79,3.19-1.19,.23-5.04-8.77-5.86-10.03-1.18-1.83-3.97-5.93-3.71-7.48,.13-.76,1.21-2.52,2.9-4.33,1.78-1.91,3.04-5.48,3.04-5.48l8.27,5.78Z"/><path class="ac" d="M506.43,302.67s-.69,7.47-.69,7.49c.09,1.13,.06,3.99,.31,4.98,.94,3.71,15.93-7.38,11.76-8.08-.38-.06-1.74-.98-2.17-2.22-.66-1.9,.3-4.74,.3-4.74l-9.51,2.56Z"/><path class="ad" d="M500.36,168.42s4.33,11.98,4.38,12.16c5.03,19.87,18.8,57.69,19,61.62,.48,9.58-7.42,61.05-7.42,61.05l-10.95,1.42-.24-59.17-10.77-21.11-18.43-42.46,24.44-13.51Z"/><path class="ab" d="M467.43,188.32l.93,12.16,6.68,49.3-8.93,52.1s4.65,6.07,9.21,5.94l20.91-56.46,4.97-66.73-4.18-13.49-29.58,17.19Z"/><path class="n" d="M465.6,303.22s10.7,16.01,13.36,16.24c.71,.06,3.97-.16,4.9,1.07,.28,.37,.88,2.22,.88,2.22l-13.43,3.86s-3.63-8.32-5.14-11.56c0,0-5.55-7.45-5.36-8.3,.19-.85,4.79-3.54,4.79-3.54"/><path class="n" d="M505.39,317.04l.41-6.97s4.45,.68,6.39-.11c1.94-.79,5.58-2.92,5.58-2.92,8.7,.61,15.6,.23,14.94,2.66l-27.32,7.34Z"/><path class="s" d="M526.17,128l5.79,4.44c1.12-.86,3.56-4.48,5.14-5.61l-5.29-5.77c-.44-.32-.67-.84-.62-1.38,.04-.38,.09-.74,.15-.89,.16-.46,.31-1,.48-1.46,.16-.46-.93-1.37-1.5-1.54-.57-.16-.76,2.04-1.01,2.69-.75,1.97-1.65,7.37-1.83,8.27l-1.3,1.25Z"/><path class="n" d="M532.58,131.88c-1.63-1.73-3.92-2.71-5.62-4.51l-25.69,17.69s-19.87-23.49-30.65-15.17c4.72,7.95,10.41,15.57,13.34,19.2,6.6,8.17,16.67,12.07,18.64,11.16,2.22-1.02,29.42-27.67,29.99-28.37"/><path class="ac" d="M420.2,73.08c.85,2.26,2.32,5.83,2.32,5.83,.04,1.02,.25,5.28,.52,10.49l7.23-3.96s-1.11-8.41-.83-8.97c.23-.47,.78,.02,2.71-3.6,.56-1.04,.47-2.78,.47-2.78,0,0-.12-2.13-.62-2.27-.5-.14-1.01,.24-1.13,.63-.13,.39,.02,1.23-.11,1.62-.13,.39-1.17,.96-1.64,.99-.46,.03-.7-6.26-.7-6.26,0,0,.04-1.8,.11-2.39,.05-.51,.33-2.01,.33-2.01,0,0,.27-2.16-.4-2.24-.4-.05-1.17,1.78-1.62,3.66-.49,2.04-.65,4.15-.86,4.15-.49,0-.65-3.46-.65-3.46,0,0,.29-1.62,.19-2.36,.35-.96,.45-2.68-.37-2.72-.15,0-.95,2.25-.95,2.25,0,0-.23,1.55-.39,2.29-.28,1.29-.11,3.25-.23,4.14-.1,.74-.3,.47-.38,.51-.06,.03-.07-.97-.12-2.35-.02-.69-.2-1.47-.1-2.28,.09-.74,.07-1.79,.04-2.42-.08-1.78-1.18-1.47-1.36,.2-.07,.63-.15,1.32-.22,2.02-.28,2.72,.05,5.27-.23,5.33-.37,.07-.69-4.61-.69-4.61,0,0-.88-2.5-1.16-.05-.32,2.85,.02,5.1,.04,5.2,.14,.67-.05,3.15,.8,5.41"/><path class="q" d="M470.92,94.71s-4.36-3.61-6.87,1.73c0,0-2.56-1.05-3.95,1.54,0,0-4.49-.78-4.76,5.82,0,0-2.28-.15-2.25,2.53,.03,2.68,1.59,4.29,1.59,4.29,0,0-1.14,1.09-.28,3.45,.73,2.01,2.49,2.12,2.49,2.12,0,0,.88,3.43,2.52,4.3,1.64,.87,3.64,.11,3.64,.11,0,0,.78,1.83,2.52,1.44,1.74-.38,3.73-2.33,5.79-1.81s7.1-.9,7.1-.9c0,0,5.45-3.26,3.01-8.94,0,0,2.7-3.1-.35-6.06,0,0,1.31-5.36-2.88-7.93s-7.33-1.71-7.33-1.71"/><path class="t" d="M483.26,131.81l-8.87-4.56s-7.88,1.15-8.86,1.27c-.98,.12-2.82,36.84-2.97,50.6-.16,13.76,1.52,15.99,1.52,15.99,0,0,12.85,1.3,22-.64,9.52-2.02,19.71-8.52,19.71-8.52,0,0-11.37-25.02-13.98-32.95-2.61-7.93-8.54-21.18-8.54-21.18"/><path class="n" d="M465.88,128.42l-29.14-23.3s-6.64-24.56-7.01-25.47c-.36-.89-6.87-.61-9.49-.55-.84,.02,3.66,26.57,5.44,30.9,2.11,5.11,24.63,26.83,24.63,26.83,0,0,5.09,12.63,5.41,22.3,.52,16.07-.63,38.4,.14,39.01,4.54,2.15,20.75,.47,21.58-1.3,9.11-19.58-11.55-68.42-11.55-68.42"/><path class="af" d="M473.62,122.47l1.33,5.11s2.47,7.29,.63,8.98c-1.84,1.69-9.68-8.1-9.68-8.1l-.9-13.24,8.63,7.26Z"/><path class="q" d="M465.29,119.51c2.21,4.29,6.51,6.57,9.46,7.3l-1.13-4.33-8.63-7.26,.29,4.29Z"/><path class="q" d="M453.18,107.57c.24,2,1.58,3.49,2.98,3.32,1.41-.17,2.35-1.93,2.11-3.94-.24-2-1.58-3.49-2.98-3.32-1.41,.17-2.35,1.93-2.11,3.94"/><path class="q" d="M459.87,98.85c.14,1.15,1.64,1.92,3.35,1.71,1.71-.21,2.98-1.31,2.84-2.46-.14-1.15-1.64-1.92-3.35-1.71-1.71,.21-2.98,1.31-2.84,2.46"/><path class="af" d="M467.98,100.83c3.92-1.9,8.62,.29,9.75,4.43,.49,1.8,1.02,4.08,1.37,6.59,.84,6.05-1.58,12.33-4.34,12.67-2.75,.33-10.84-2.67-12.16-11.25-.81-5.3,1.26-10.45,5.37-12.45"/><path class="af" d="M464.72,113.71c.16,1.34-.59,2.53-1.69,2.66-1.1,.13-2.11-.84-2.28-2.18-.16-1.34,.59-2.53,1.69-2.66s2.11,.84,2.27,2.18"/><path class="q" d="M479.55,96.37c3.12,1.91,4.53,5.21,3.15,7.38-1.38,2.17-5.02,2.37-8.14,.46-3.12-1.91-4.53-5.21-3.15-7.38,1.38-2.17,5.02-2.38,8.14-.47"/><path class="q" d="M472.34,99.11c.12,.98-.97,1.92-2.43,2.09-1.46,.18-2.74-.47-2.86-1.45-.12-.98,.97-1.92,2.43-2.09,1.46-.18,2.74,.48,2.86,1.45"/><path class="q" d="M481.11,105.7c.15,1.26-.73,2.4-1.98,2.55-1.25,.15-2.38-.75-2.53-2.01-.15-1.26,.73-2.4,1.98-2.55,1.25-.15,2.38,.75,2.53,2.01"/><path class="n" d="M490.66,137.27s12.32,29.12,16.7,39.38c.47,1.11,2.86,8.37,2.95,9.09,.19,1.61-6.56,4.5-7.4,4.48-.76-.02-10.67-30.77-16.44-45.71-1.95-5.06-4.82-9.72-8.45-13.75l-2.8-2.31-.27-.87s12.51,1.11,15.71,9.69"/><rect class="n" x="525" y="-4.39" width="2.28" height="204.58" transform="translate(-7.93 132.25) rotate(-14.22)"/><path class="ac" d="M538.17,124.24c-.08-.44-.22-.89-.4-1.33-.21-.48-.54-1.05-.77-1.22-.15-.11-.25-.45-.39-.81-.04-.11-.1-.22-.17-.32h0c-.21-.29-.47-.53-.76-.74-.27-.19-.51-.45-.82-.89-.24-.34-.55-.63-.92-.81-.37-.18-.65-.18-.78,.04-.61,1.04-3.64,4.36-2.41,5.97,1.03,1.34,2.36,2.74,2.64,3.38,.38,.87,1.71,.81,2.51,.51,1.5-.57,2.68-1.52,2.26-3.78"/><rect class="ah" x="64.17" y="596.17" width="773.18" height="2.29"/><path class="q" d="M492.98,85.77c.12-.27,.53-.32,.73-.11,.32,.33,.64,.66,.97,.98,.71,.73,.72,.77,.83,.76,.26-.04,.26-.5,.25-.67-.03-.38-.15-.75-.1-1.13,.09-.74,.78-1.12,1.39-.62,.56,.46,1.1,.95,1.63,1.44,.04-.81,.06-1.62,.12-2.43,.02-.29,.31-.41,.54-.24,.5,.39,1.98,1.54,2.46,1.92,.13,.1,.66,.63,.81,.53,.14-.09,.13-.65,.14-.78,.08-.7,.11-.94,.41-3.19,.04-.27,.45-.39,.62-.18,1.73,2.07,2,1.86,2.15,2.48,.03,.14-.08,.23-.21,.22-.33-.03-.41-.07-1.27-.9-.22-.22-.44-.44-.66-.66-.31,2.75-.33,3.44-1.01,3.65-.48,.14-.56,0-3.35-2.2,0,.85-.05,1.7-.09,2.55-.01,.32-.36,.48-.61,.27-2-1.64-1.98-1.77-2.2-1.87,0,0,0-.15-.04,.06-.06,.36,.28,1.14,.03,1.79-.22,.58-.85,1.02-1.46,.72-.35-.17-.45-.35-1.52-1.38-.32,.66-.71,1.28-1.21,1.89-.22,.26-.39,.41-.71,.53-.26,.1-.58-.19-.49-.46,.25-.77,.94-.96,1.84-2.98"/><path class="v" d="M483.79,75.71c.75,.13,1.48,.2,2.27,.2,.15,0,.43,.03,.53-.12,.23-.36-.38-.92-.65-2.33-.12-.61-.42-1.87,.4-2.12,.42-.13,.95-.03,1.38-.02,.33,0,.66,0,.99,0-.59-2.29-.72-2.17-.49-2.68,.06-.13,.27-.2,.39-.12,.46,.31,.33,.24,1.1,3.13,.07,.26-.12,.58-.41,.57-.44-.01-2.46-.17-2.71-.15,.02,.02,0,.13,0,.16,.01,.95,.33,1.76,.67,2.63,.27,.71,.26,1.67-.65,1.88-.49,.11-1.5,.04-2.28-.05,.41,1.4,.83,2.79,1.23,4.19,.08,.27-.13,.66-.46,.63-.9-.08-1.8-.13-2.7-.17,.25,.82,.62,1.6,1.11,2.31,.36,.52-.38,1.16-1.19-.22-.48-.76-.83-1.59-1.04-2.47-.07-.29,.12-.64,.46-.63,.9,.02,1.79,.07,2.68,.15-.39-1.4-.77-2.8-1.16-4.19-.1-.34,.2-.63,.54-.57"/><path class="ai" d="M462.84,67.93c-.26,0-.42-.18-.46-.43-.18-1.23-.25-2.44,0-3.67,.13-.64,1.06-.4,.97,.23-.14,.98-.23,1.99-.13,2.98,.72-.01,1.44-.1,2.15-.27,.27-.07,.62,.12,.6,.44-.05,.79-.32,3.78-.35,3.8,0,0,.03,0,.08,0,.31,.06,1.38-.16,1.87-.13,.55,.03,.72,.77,.75,1.22,.06,.91-.62,1.9-.3,2.79,.3,.85,1.65-.09,2.64,.61,.77,.54,.5,1.44,.19,2.87-.08,.35-.16,.69-.5,.86-.09,.04-.21,.05-.28-.03-.38-.44-.19-.95,.07-2.25,.03-.17,.14-.45,.02-.59-.39-.5-1.52,.21-2.43-.38-.71-.46-.82-1.38-.7-2.15,.09-.61,.46-1.35,.27-1.97-.52,.03-1.04,.07-1.56,.06-.56-.01-.95-.31-.98-.89-.03-.64,.08-1.3,.13-1.94,.03-.43,.06-.86,.1-1.29-.71,.11-1.42,.16-2.14,.14"/><path class="ad" d="M500.26,99.28c2.16,2.77,.13,4.11-.78,3.31-.39-.34-.41-.94,.05-1.23,.21-.13,.54,.08,.46,.33-.07,.21,.17,.27,.26,.04,.13-.3-.08-.67-.21-.94-.31-.62-.7-1.42-1.46-1.54-1.13-.18-2.36,.95-1.74,2.68,.9,2.5,4.94,2.47,5.67-.14,.4-1.42-.17-2.97-1.32-3.87-.22-.18,.05-.48,.28-.38,1.72,.74,2.33,2.98,1.71,4.66-.65,1.72-2.49,2.54-4.24,2.25-1.84-.31-3.34-1.93-3.1-3.85,.27-2.11,2.91-3.24,4.42-1.31"/><path class="t" d="M455.69,76.16c.3,.45,.47,1.37-.14,1.65-.28,.13-.63,.05-.73-.28-.1-.32,.08-.61-.21-.87-.25-.22-.61-.1-.84,.09-.7,.57-.52,1.83-.16,2.54,.58,1.13,2.17,1.36,2.96,.17,.25-.37,.31-.81,.42-1.23,.06-.23,.43-.34,.55-.09,.46,.97-.19,2.13-1.01,2.68-.86,.58-2.08,.53-2.93-.04-.95-.64-1.41-1.89-1.37-3.01,.08-2.32,2.48-3.08,3.45-1.62"/><path class="f" d="M381.66,399.71s1.03,1.67,3.06,.66c2.48-1.23,1.49-3.09,1.49-3.09l-4.55,2.43Z"/><path class="f" d="M471.57,117.72s.2,1.95,2.47,1.92c2.77-.04,2.68-2.14,2.68-2.14l-5.15,.22Z"/></svg>