<svg xmlns="http://www.w3.org/2000/svg" viewBox="0 0 556 136.02"><defs><style>.cls-1{fill:#58b284;}.cls-2{fill:#fff;}</style></defs><title>Asset 1</title><g id="Layer_2" data-name="Layer 2"><g id="Layer_1-2" data-name="Layer 1"><path class="cls-1" d="M82.6,8c-22.94-6.51-44.86,4.85-51,26.44-3.2,11.27-2.15,25.12,2.81,37.07,5.13,12.37,13.46,20.74,23.45,23.58s21.47.08,32.34-7.75c10.49-7.55,18.66-18.8,21.86-30.07C118.21,35.68,105.53,14.5,82.6,8Z"/><path class="cls-2" d="M39,95.94a31.77,31.77,0,0,1-8.76-1.2C19.36,91.66,10.34,82.67,4.85,69.45c-5.2-12.54-6.29-27.13-2.92-39C8.52,7.22,32-5,56.57,2h0C68.39,5.3,78.11,12.52,84,22.27A41.07,41.07,0,0,1,88.1,54.89c-3.38,11.89-12,23.73-23,31.66C56.52,92.74,47.51,95.94,39,95.94ZM43,6C26.42,6,12.22,15.89,7.63,32.05c-3,10.65-2,23.78,2.7,35.12C15.11,78.69,22.75,86.46,31.85,89s19.68,0,29.8-7.3S79.37,63.92,82.4,53.27a35.21,35.21,0,0,0-3.54-28C73.81,16.86,65.32,10.59,55,7.65h0A44,44,0,0,0,43,6Z"/><path class="cls-2" d="M136.92,79.24A17.63,17.63,0,0,1,130.62,68a38,38,0,0,1-.33-5.3,77.26,77.26,0,0,1,.56-8.29,52.09,52.09,0,0,1,3.09-13.48,23.78,23.78,0,0,1,9-11.16,24.58,24.58,0,0,1,14-4.09,19.37,19.37,0,0,1,12.65,4.09,17.57,17.57,0,0,1,6.24,11.05,25.28,25.28,0,0,1,.45,5.19c0,1.62-.23,4.42-.67,8.4A54.05,54.05,0,0,1,172.51,68a23.91,23.91,0,0,1-8.95,11.27,24.18,24.18,0,0,1-13.82,4.09Q142,83.33,136.92,79.24Zm22.82-5.69a16.89,16.89,0,0,0,5.92-7.9A50,50,0,0,0,168,54.49a70.74,70.74,0,0,0,.66-8.62,21,21,0,0,0-.11-2.54,12.18,12.18,0,0,0-4-7.9,12.62,12.62,0,0,0-8.57-2.93,15.07,15.07,0,0,0-9.17,2.93,17.74,17.74,0,0,0-6,7.9,53.61,53.61,0,0,0-2.21,11.16,66.2,66.2,0,0,0-.66,8.51,20.3,20.3,0,0,0,.11,2.65,11.72,11.72,0,0,0,3.92,7.9,12.72,12.72,0,0,0,8.68,2.93A15.09,15.09,0,0,0,159.74,73.55Z"/><path class="cls-2" d="M187.76,81.34,197,6.2a1.18,1.18,0,0,1,1.22-1.11h5.41a1,1,0,0,1,.83.33.86.86,0,0,1,.17.78l-5.53,45.2c-.07.14-.06.25.06.33s.23,0,.38-.11l25.75-24.54a1.84,1.84,0,0,1,1.33-.55h6.52a.7.7,0,0,1,.72.44.83.83,0,0,1-.28.89L217.93,43.55a.48.48,0,0,0-.11.55l11.82,37,.11.33c0,.67-.37,1-1.1,1h-5.86a.91.91,0,0,1-1-.89L211.85,49.3c0-.08-.06-.13-.17-.17a.23.23,0,0,0-.27.06L198,62a.93.93,0,0,0-.33.56l-2.32,18.78a1.07,1.07,0,0,1-.33.78,1.2,1.2,0,0,1-.88.33h-5.42Q187.76,82.45,187.76,81.34Z"/><path class="cls-2" d="M280.59,26.86a1.18,1.18,0,0,1,.88-.33h5.42q1,0,1,1.11l-6.63,53.7A1.18,1.18,0,0,1,280,82.45h-5.52a.88.88,0,0,1-.72-.33.86.86,0,0,1-.17-.78l.78-6.41c.07-.22,0-.34-.11-.38s-.26,0-.33.27a19.3,19.3,0,0,1-6.69,6.25A18.54,18.54,0,0,1,258,83.33q-7.85,0-12.65-5.14t-4.81-13.31a90.32,90.32,0,0,1,1-10.28q.54-5,1.16-8.23a38.65,38.65,0,0,1,1.6-6,22.46,22.46,0,0,1,8.12-10.6,21.68,21.68,0,0,1,13-4.09q10.05,0,13.48,8.29c.07.22.16.31.28.27s.2-.16.27-.39l.78-6.18A1.07,1.07,0,0,1,280.59,26.86Zm-4.81,35.37c.26-1.33.64-3.87,1.16-7.63.51-4.86.77-8,.77-9.28a15.61,15.61,0,0,0-.11-2.21,11.07,11.07,0,0,0-3.26-7.57,11,11,0,0,0-8.12-3,14.86,14.86,0,0,0-9.17,3,15.45,15.45,0,0,0-5.53,7.63A23.34,23.34,0,0,0,250.47,47c-.26,1.41-.61,3.91-1.05,7.52a80.1,80.1,0,0,0-.88,8.84,18.23,18.23,0,0,0,.22,2.54,10.91,10.91,0,0,0,3.65,7.63,12.08,12.08,0,0,0,8.4,3,13.37,13.37,0,0,0,8.73-3,16.26,16.26,0,0,0,5.19-7.63A20.47,20.47,0,0,0,275.78,62.23Z"/><path class="cls-1" d="M348.55,47.64a48.49,48.49,0,0,1-.44,6.74,46.39,46.39,0,0,1-3.43,13.48,26.82,26.82,0,0,1-8.95,11.38,22.8,22.8,0,0,1-13.59,4.09c-5.09,0-8.95-1.88-11.61-5.63a.21.21,0,0,0-.33-.11.68.68,0,0,0-.33.44l-3,24a1.2,1.2,0,0,1-.45.94,1.44,1.44,0,0,1-1,.39h-9.83a1.11,1.11,0,0,1-.89-.39,1,1,0,0,1-.22-.94l9.17-74.71a1.8,1.8,0,0,1,.5-.94,1.31,1.31,0,0,1,.94-.38H315a1.13,1.13,0,0,1,.89.38,1.07,1.07,0,0,1,.22.94l-.33,3.32c-.08.22,0,.37.11.44s.29,0,.44-.22a17.29,17.29,0,0,1,13-5.75q7.62,0,12.38,4.09a19.47,19.47,0,0,1,6.19,11.39A36.13,36.13,0,0,1,348.55,47.64Zm-13,6.52a40.47,40.47,0,0,0,.33-5,19.58,19.58,0,0,0-1.33-7.74A8.39,8.39,0,0,0,326.12,36q-5.64,0-9.07,5.31-3,4.3-4.08,12.82a41.91,41.91,0,0,0-.34,5.19,18.81,18.81,0,0,0,1.44,8.07,7.59,7.59,0,0,0,7.4,4.86,10.86,10.86,0,0,0,9.18-4.64Q334.51,62.45,335.51,54.16Z"/><path class="cls-1" d="M398,26.36a1.48,1.48,0,0,1,1-.38h9.84a1.13,1.13,0,0,1,.88.38,1.07,1.07,0,0,1,.22.94l-6.63,53.82a1.73,1.73,0,0,1-.5.94,1.28,1.28,0,0,1-.94.39H392a1.12,1.12,0,0,1-.89-.39,1.06,1.06,0,0,1-.22-.94l.56-5.19c.07-.29,0-.46-.11-.5s-.3.06-.45.28A18.39,18.39,0,0,1,364.07,79a18.69,18.69,0,0,1-5.8-11.77,25.72,25.72,0,0,1-.33-4.2,72.38,72.38,0,0,1,.77-8.84A54.43,54.43,0,0,1,362,40a25.56,25.56,0,0,1,8.62-10.77,21.92,21.92,0,0,1,13.15-4.15q9.06,0,12.38,7.08c.15.22.29.31.44.27s.22-.2.22-.49l.55-4.65A1.71,1.71,0,0,1,398,26.36Zm-4.81,34.26q.5-2,1.05-6.35.56-5.19.55-6.63a13.21,13.21,0,0,0-.55-3.76,8.44,8.44,0,0,0-2.71-5.52,8.62,8.62,0,0,0-6.13-2.22,11.6,11.6,0,0,0-7,2.22A12.27,12.27,0,0,0,374,44.1a20.31,20.31,0,0,0-1.26,3.7,59.42,59.42,0,0,0-1.05,6.36,46.84,46.84,0,0,0-.56,6.74,17.58,17.58,0,0,0,.33,3.43,8.78,8.78,0,0,0,3,5.74,9.54,9.54,0,0,0,6.52,2.21,10.46,10.46,0,0,0,6.68-2.21,13.72,13.72,0,0,0,4.26-5.74A20.16,20.16,0,0,0,393.14,60.62Z"/><path class="cls-1" d="M460.22,5.48a1.28,1.28,0,0,1,.94-.39H471a1.11,1.11,0,0,1,.89.39,1.07,1.07,0,0,1,.22.94l-9.17,74.7a1.8,1.8,0,0,1-.5.94,1.28,1.28,0,0,1-.94.39h-9.84a1.09,1.09,0,0,1-.88-.39,1,1,0,0,1-.22-.94l.33-3.31c.07-.22,0-.37-.11-.44s-.3,0-.44.22a17.28,17.28,0,0,1-13,5.74q-7.64,0-12.38-4.09a19.39,19.39,0,0,1-6.19-11.38,39.7,39.7,0,0,1-.66-7.29,45.28,45.28,0,0,1,.44-6.52,46.07,46.07,0,0,1,3.43-13.48,26.57,26.57,0,0,1,9-11.39,23.33,23.33,0,0,1,13.76-4.09q7.41,0,11.38,5.53a.49.49,0,0,0,.45.17c.14,0,.22-.17.22-.39l3-24A1.76,1.76,0,0,1,460.22,5.48Zm-6.47,48.68a46,46,0,0,0,.33-5.2,18.48,18.48,0,0,0-1.43-8,7.81,7.81,0,0,0-7.52-4.87A11.2,11.2,0,0,0,436,40.79q-3.87,5-4.86,13.48a35.25,35.25,0,0,0-.33,4.75,21,21,0,0,0,1.32,8q2.43,5.3,8.51,5.3,5.41,0,9.06-5.3Q452.77,62.33,453.75,54.16Z"/><path class="cls-1" d="M525.81,57.47a1.29,1.29,0,0,1-1.44,1.33H490.88a.48.48,0,0,0-.55.55,16.36,16.36,0,0,0-.11,2.1,11.08,11.08,0,0,0,.33,2.88q1.77,8,11.61,8.06,7.29,0,12.37-6.19a1.52,1.52,0,0,1,1.11-.66,1.06,1.06,0,0,1,.77.33l5.86,5.64c.37.37.55.66.55.88a2.38,2.38,0,0,1-.44.89,25.85,25.85,0,0,1-9.73,7.51,30.11,30.11,0,0,1-12.59,2.65q-8.4,0-13.71-3.86a19.08,19.08,0,0,1-7.18-10.83,29.37,29.37,0,0,1-1.11-8.51,44.48,44.48,0,0,1,.45-6.41,40.74,40.74,0,0,1,2.76-12,26.31,26.31,0,0,1,9.56-12.21,25.49,25.49,0,0,1,14.86-4.48q21,0,21,22.44A69.57,69.57,0,0,1,525.81,57.47ZM497.46,38.19a13.17,13.17,0,0,0-4.37,5.69,22.78,22.78,0,0,0-1.43,4.86c-.15.37,0,.56.33.56h21.77a.49.49,0,0,0,.55-.56,20.29,20.29,0,0,0,.11-2.32,10.26,10.26,0,0,0-.11-1.88,9.61,9.61,0,0,0-3.09-6.18,10.06,10.06,0,0,0-6.85-2.22A11.47,11.47,0,0,0,497.46,38.19Z"/><path class="cls-1" d="M534.53,82.06a1.06,1.06,0,0,1-.22-.94l9.18-74.7a1.75,1.75,0,0,1,.49-.94,1.28,1.28,0,0,1,.94-.39h10a1.09,1.09,0,0,1,.88.39,1,1,0,0,1,.22.94l-9.17,74.7a1.73,1.73,0,0,1-.5.94,1.28,1.28,0,0,1-.94.39h-9.94A1.11,1.11,0,0,1,534.53,82.06Z"/><path class="cls-2" d="M293.23,135.53a.33.33,0,0,1-.07-.29l.34-2.83a.51.51,0,0,1,.15-.29.4.4,0,0,1,.29-.12H309.2a.35.35,0,0,1,.28.12.32.32,0,0,1,.06.29l-.34,2.83a.54.54,0,0,1-.15.29.4.4,0,0,1-.29.12H293.5A.34.34,0,0,1,293.23,135.53Z"/><path class="cls-2" d="M332.48,123.39A4.77,4.77,0,0,1,335,127.9c0,.21,0,.56-.06,1.06a6.84,6.84,0,0,1-2.82,5,10,10,0,0,1-5.92,1.69h-8.61a.34.34,0,0,1-.27-.12.33.33,0,0,1-.07-.29l2.84-23.08a.54.54,0,0,1,.15-.29.4.4,0,0,1,.29-.12h8.33q7.1,0,7.1,5.36a7.23,7.23,0,0,1-.07,1.2,5.86,5.86,0,0,1-3.41,4.88C332.38,123.26,332.37,123.33,332.48,123.39Zm-3.09,7.16a3.43,3.43,0,0,0,1-2.58,2.31,2.31,0,0,0-.77-1.85,3.29,3.29,0,0,0-2.17-.64h-4.1a.15.15,0,0,0-.17.17l-.71,5.66c0,.12,0,.17.13.17h4.17A3.67,3.67,0,0,0,329.39,130.55Zm-5-14.61a.14.14,0,0,0-.06.11l-.64,5.33c-.05.11,0,.17.13.17h3.89a4,4,0,0,0,2.5-.73,3,3,0,0,0,1.12-2.07l0-.41a2.26,2.26,0,0,0-.77-1.81,3.34,3.34,0,0,0-2.2-.65H324.5A.14.14,0,0,0,324.38,115.94Z"/><path class="cls-2" d="M347.81,135.5a.34.34,0,0,1-.07-.3l1.06-8.63a.18.18,0,0,1,0-.09.19.19,0,0,0,0-.12l-5.09-14.13a.4.4,0,0,1,0-.17c0-.2.12-.31.37-.31h4.2a.41.41,0,0,1,.41.31l3,9.08c.05.16.1.16.17,0l5.26-9.08a.55.55,0,0,1,.51-.31h4.23a.34.34,0,0,1,.31.12c.05.08,0,.2-.07.36l-8.6,14.13a.28.28,0,0,0-.07.21l-1.06,8.63a.54.54,0,0,1-.15.3.44.44,0,0,1-.29.11h-3.86A.37.37,0,0,1,347.81,135.5Z"/><path class="cls-2" d="M382.37,134a7,7,0,0,1-2.1-5.34,11,11,0,0,1,.1-1.34l.89-7.3a9.88,9.88,0,0,1,1.64-4.47,9.07,9.07,0,0,1,3.43-3,10.09,10.09,0,0,1,4.69-1.08,8,8,0,0,1,5.69,2,6.88,6.88,0,0,1,2.1,5.26,8.83,8.83,0,0,1-.11,1.33l-.88,7.3a10.12,10.12,0,0,1-1.64,4.53,9.22,9.22,0,0,1-3.45,3.05A10.09,10.09,0,0,1,388,136,7.86,7.86,0,0,1,382.37,134Zm9.25-3.33a5.25,5.25,0,0,0,1.52-3.18l.92-7.51a5.53,5.53,0,0,0,0-.71,3.71,3.71,0,0,0-1-2.7,3.48,3.48,0,0,0-2.63-1,4.31,4.31,0,0,0-3.07,1.21,5.15,5.15,0,0,0-1.5,3.19l-.92,7.51a4.35,4.35,0,0,0,0,.72,3.65,3.65,0,0,0,1,2.66,3.42,3.42,0,0,0,2.59,1A4.27,4.27,0,0,0,391.62,130.7Z"/><path class="cls-2" d="M406,135.53a.3.3,0,0,1-.07-.29l2.83-23.08a.54.54,0,0,1,.15-.29.4.4,0,0,1,.29-.12h3.9a.34.34,0,0,1,.27.12.33.33,0,0,1,.07.29l-1.16,9.56q0,.11,0,.12a.14.14,0,0,0,.14,0l8.87-9.8a.65.65,0,0,1,.51-.24h4.37c.23,0,.34.08.34.24a.4.4,0,0,1-.13.28L417.82,122c-.09.1-.11.18-.07.24L424,135.17a.39.39,0,0,1,0,.21c0,.18-.11.27-.34.27h-4.37a.43.43,0,0,1-.45-.27l-4.67-9.84a.12.12,0,0,0-.1-.06.2.2,0,0,0-.14.06l-2.42,2.7-.11.21-.82,6.79a.54.54,0,0,1-.15.29.4.4,0,0,1-.29.12h-3.89A.32.32,0,0,1,406,135.53Z"/><path class="cls-2" d="M446.77,135.31l-.58-3.35a.2.2,0,0,0,0-.08.1.1,0,0,0-.1,0h-8.16c-.07,0-.12,0-.17.13l-1.4,3.35a.43.43,0,0,1-.44.34h-4.24a.33.33,0,0,1-.29-.14.35.35,0,0,1,0-.34l10-23.07a.55.55,0,0,1,.48-.35H447a.42.42,0,0,1,.41.35l4.3,23.07v.1a.37.37,0,0,1-.1.28.41.41,0,0,1-.28.1h-4.23A.35.35,0,0,1,446.77,135.31Zm-7.27-7.2h5.83c.12,0,.17-.07.17-.21l-1.74-10.14c0-.09-.06-.13-.1-.12s-.08,0-.1.12l-4.17,10.14C439.37,128,439.4,128.11,439.5,128.11Z"/><path class="cls-2" d="M476.36,111.87a.33.33,0,0,1,.07.29l-.41,3.35a.38.38,0,0,1-.14.29.44.44,0,0,1-.3.12h-5.91c-.09,0-.16.06-.21.17l-2.35,19.15a.54.54,0,0,1-.15.29.4.4,0,0,1-.29.12h-3.86a.33.33,0,0,1-.27-.12.3.3,0,0,1-.07-.29l2.32-19.15c0-.11,0-.17-.14-.17h-5.77a.34.34,0,0,1-.27-.12.33.33,0,0,1-.07-.29l.41-3.35a.56.56,0,0,1,.16-.29.38.38,0,0,1,.29-.12h16.69A.34.34,0,0,1,476.36,111.87Z"/><path class="cls-2" d="M500.41,115.76a.4.4,0,0,1-.29.12H489.23a.14.14,0,0,0-.12.06.13.13,0,0,0-.05.11l-.65,5.3c0,.11,0,.17.14.17h7.13a.33.33,0,0,1,.27.12.32.32,0,0,1,.07.29l-.41,3.31a.54.54,0,0,1-.15.29.4.4,0,0,1-.29.12H488a.15.15,0,0,0-.17.17l-.68,5.53c0,.11.05.17.14.17h10.85c.25,0,.38.13.38.41l-.41,3.31a.64.64,0,0,1-.16.29.38.38,0,0,1-.29.12H482.37a.35.35,0,0,1-.28-.12.33.33,0,0,1-.06-.29l2.83-23.08a.54.54,0,0,1,.15-.29.4.4,0,0,1,.29-.12h15.3a.4.4,0,0,1,.29.12.31.31,0,0,1,.08.29l-.41,3.31A.48.48,0,0,1,500.41,115.76Z"/><path class="cls-2" d="M523.14,111.87a.4.4,0,0,1,.29-.12h3.89a.35.35,0,0,1,.28.12.33.33,0,0,1,.06.29l-2.83,23.08a.54.54,0,0,1-.15.29.4.4,0,0,1-.29.12h-3.76a.4.4,0,0,1-.41-.27l-6.79-14.61c0-.07-.06-.1-.1-.09s-.08.06-.11.15l-1.7,14.41a.62.62,0,0,1-.15.29.4.4,0,0,1-.29.12h-3.9a.34.34,0,0,1-.27-.12.33.33,0,0,1-.07-.29l2.84-23.08a.54.54,0,0,1,.15-.29.38.38,0,0,1,.29-.12h3.75a.47.47,0,0,1,.45.28l6.76,14.54c0,.07,0,.1.1.08s.08-.06.1-.15L523,112.16A.54.54,0,0,1,523.14,111.87Z"/><path class="cls-2" d="M553.51,111.87a.33.33,0,0,1,.06.29l-.41,3.35a.37.37,0,0,1-.13.29.47.47,0,0,1-.31.12h-5.91c-.09,0-.15.06-.2.17l-2.36,19.15a.54.54,0,0,1-.15.29.4.4,0,0,1-.29.12H540a.34.34,0,0,1-.27-.12.33.33,0,0,1-.07-.29l2.32-19.15c.05-.11,0-.17-.13-.17H536a.35.35,0,0,1-.28-.12.33.33,0,0,1-.06-.29l.41-3.35a.54.54,0,0,1,.15-.29.4.4,0,0,1,.29-.12h16.69A.35.35,0,0,1,553.51,111.87Z"/></g></g></svg>