<?xml version="1.0" encoding="UTF-8"?><svg id="a" xmlns="http://www.w3.org/2000/svg" viewBox="0 0 426.18 104.26"><defs><style>.b{fill:#163650;}.c{fill:#57b285;}</style></defs><g/><g><path class="c" d="M63.31,6.12C45.73,1.13,28.93,9.84,24.24,26.39c-2.45,8.64-1.65,19.26,2.15,28.42,3.94,9.48,10.32,15.9,17.97,18.08,7.65,2.17,16.46,.06,24.79-5.94,8.04-5.79,14.31-14.41,16.76-23.05,4.7-16.54-5.02-32.78-22.6-37.77"/><path class="b" d="M29.89,73.54c-2.3,0-4.55-.3-6.72-.92-8.33-2.37-15.24-9.25-19.45-19.39C-.27,43.62-1.11,32.44,1.48,23.33,6.53,5.54,24.54-3.85,43.36,1.49c9.06,2.57,16.51,8.1,20.98,15.57,4.5,7.51,5.63,16.39,3.18,25-2.59,9.12-9.17,18.19-17.62,24.27-6.59,4.75-13.5,7.2-20.02,7.2M32.93,4.56c-12.68,0-23.57,7.63-27.08,20.01-2.32,8.16-1.54,18.23,2.07,26.92,3.67,8.83,9.52,14.78,16.5,16.76,6.97,1.98,15.08,0,22.84-5.59,7.64-5.5,13.58-13.66,15.9-21.83,2.1-7.39,1.14-15-2.71-21.43-3.87-6.47-10.38-11.28-18.32-13.54-3.11-.88-6.2-1.31-9.19-1.31"/><path class="b" d="M104.95,60.74c-2.6-2.09-4.21-4.97-4.83-8.64-.17-1.19-.26-2.54-.26-4.07,0-1.69,.14-3.81,.42-6.35,.51-4.29,1.3-7.74,2.37-10.33,1.47-3.61,3.77-6.46,6.9-8.56,3.13-2.09,6.71-3.13,10.72-3.13s7.13,1.05,9.7,3.13c2.57,2.09,4.16,4.91,4.79,8.47,.22,1.07,.34,2.4,.34,3.98,0,1.24-.17,3.39-.51,6.44-.57,4.52-1.35,7.99-2.37,10.42-1.47,3.67-3.76,6.55-6.86,8.64-3.11,2.09-6.64,3.13-10.59,3.13s-7.23-1.04-9.83-3.13m17.49-4.36c2.06-1.49,3.57-3.52,4.53-6.06,.73-1.92,1.33-4.77,1.78-8.55,.34-2.65,.51-4.86,.51-6.61,0-.9-.03-1.55-.08-1.95-.34-2.54-1.37-4.56-3.09-6.06-1.72-1.5-3.91-2.25-6.56-2.25s-5,.75-7.03,2.25c-2.03,1.5-3.56,3.52-4.57,6.06-.68,1.86-1.24,4.72-1.69,8.56-.34,2.54-.51,4.72-.51,6.52,0,.96,.03,1.64,.08,2.03,.28,2.54,1.28,4.56,3.01,6.06,1.72,1.5,3.94,2.25,6.65,2.25s4.93-.75,6.99-2.25"/><path class="b" d="M143.92,62.35l7.11-57.6c.11-.56,.42-.85,.93-.85h4.15c.28,0,.49,.08,.63,.25,.14,.17,.18,.37,.13,.59l-4.23,34.65c-.06,.11-.04,.2,.04,.25,.09,.06,.18,.03,.3-.08l19.74-18.81c.28-.28,.62-.42,1.02-.42h5c.28,0,.47,.12,.55,.34,.08,.23,.01,.45-.21,.68l-12.03,12.03c-.11,.12-.14,.25-.09,.42l9.06,28.38,.09,.25c0,.51-.28,.76-.85,.76h-4.49c-.45,0-.71-.23-.76-.68l-7.62-24.73c0-.06-.04-.1-.13-.13-.08-.03-.16-.01-.21,.04l-10.25,9.83c-.17,.17-.26,.31-.26,.42l-1.78,14.4c0,.23-.09,.42-.25,.59-.17,.17-.4,.25-.68,.25h-4.15c-.51,0-.76-.28-.76-.85"/><path class="b" d="M215.07,20.59c.17-.17,.39-.25,.68-.25h4.15c.51,0,.76,.28,.76,.85l-5.08,41.17c-.11,.57-.42,.85-.93,.85h-4.24c-.23,0-.41-.08-.55-.25-.14-.17-.18-.37-.13-.59l.59-4.91c.06-.17,.03-.27-.09-.3-.11-.03-.2,.04-.25,.21-1.36,2.03-3.06,3.63-5.12,4.79-2.06,1.16-4.42,1.74-7.07,1.74-4.01,0-7.24-1.31-9.7-3.94-2.46-2.63-3.68-6.03-3.68-10.21,0-1.47,.26-4.09,.76-7.88,.28-2.54,.58-4.64,.89-6.31,.31-1.67,.72-3.21,1.23-4.62,1.24-3.33,3.32-6.04,6.23-8.13,2.91-2.09,6.23-3.13,9.95-3.13,5.14,0,8.58,2.12,10.33,6.35,.06,.17,.13,.24,.21,.21,.09-.03,.15-.13,.21-.3l.59-4.74c0-.22,.08-.42,.25-.59m-3.68,27.11c.2-1.02,.49-2.96,.89-5.84,.39-3.73,.59-6.1,.59-7.12,0-.73-.03-1.3-.08-1.69-.11-2.32-.95-4.25-2.5-5.8-1.55-1.55-3.63-2.33-6.23-2.33s-5,.76-7.03,2.29c-2.03,1.52-3.45,3.47-4.24,5.84-.34,.9-.61,1.89-.8,2.96-.2,1.07-.47,2.99-.8,5.76-.45,3.33-.68,5.59-.68,6.78,0,.51,.06,1.16,.17,1.95,.17,2.37,1.1,4.32,2.8,5.84,1.69,1.52,3.84,2.29,6.44,2.29s4.83-.76,6.69-2.29c1.86-1.53,3.19-3.47,3.98-5.84,.34-.85,.61-1.78,.81-2.8"/><path class="c" d="M267.17,36.52c0,1.86-.11,3.59-.34,5.17-.45,3.95-1.33,7.4-2.62,10.33-1.64,3.73-3.92,6.64-6.86,8.72-2.94,2.09-6.41,3.13-10.42,3.13s-6.86-1.44-8.9-4.32c-.06-.11-.14-.14-.25-.08-.11,.06-.2,.17-.25,.34l-2.29,18.38c0,.28-.11,.52-.34,.72-.22,.2-.48,.3-.76,.3h-7.54c-.28,0-.51-.1-.68-.3-.17-.2-.23-.44-.17-.72l7.03-57.26c.06-.28,.18-.52,.38-.72,.2-.2,.44-.3,.72-.3h7.54c.28,0,.51,.1,.68,.3,.17,.2,.22,.44,.17,.72l-.25,2.54c-.06,.17-.03,.28,.09,.34,.11,.06,.22,0,.34-.17,2.76-2.94,6.1-4.41,9.99-4.41s7.06,1.05,9.49,3.13c2.43,2.09,4.01,5,4.74,8.72,.34,1.69,.51,3.5,.51,5.42m-9.99,5c.17-1.35,.25-2.63,.25-3.81,0-2.37-.34-4.35-1.02-5.93-1.19-2.77-3.33-4.15-6.44-4.15-2.88,0-5.2,1.36-6.95,4.07-1.53,2.2-2.57,5.48-3.13,9.83-.17,1.41-.26,2.74-.26,3.98,0,2.6,.37,4.66,1.1,6.18,1.13,2.49,3.02,3.73,5.67,3.73,2.93,0,5.28-1.19,7.03-3.56,1.98-2.65,3.22-6.1,3.73-10.34"/><path class="c" d="M305.03,20.21c.22-.2,.48-.3,.76-.3h7.54c.28,0,.51,.1,.68,.3,.17,.2,.23,.44,.17,.72l-5.08,41.25c-.06,.28-.18,.52-.38,.72-.2,.2-.44,.3-.72,.3h-7.54c-.28,0-.51-.1-.68-.3-.17-.2-.23-.44-.17-.72l.43-3.98c.05-.22,.03-.35-.09-.38-.11-.03-.23,.04-.34,.21-2.71,3.9-6.49,5.84-11.35,5.84-3.67,0-6.73-1.11-9.19-3.34-2.46-2.23-3.94-5.24-4.45-9.02-.17-1.02-.25-2.09-.25-3.22,0-1.58,.2-3.84,.59-6.78,.56-4.57,1.41-8.19,2.54-10.84,1.47-3.39,3.67-6.14,6.61-8.26,2.93-2.12,6.29-3.18,10.08-3.18,4.63,0,7.79,1.81,9.49,5.42,.11,.17,.23,.24,.34,.21,.11-.03,.17-.16,.17-.38l.42-3.56c.05-.28,.2-.52,.42-.72m-3.68,26.26c.25-1.04,.52-2.67,.8-4.87,.28-2.65,.42-4.35,.42-5.08,0-.96-.14-1.92-.42-2.88-.17-1.69-.86-3.1-2.08-4.23-1.21-1.13-2.78-1.7-4.7-1.7-2.03,0-3.83,.57-5.38,1.7-1.55,1.13-2.67,2.6-3.35,4.41-.4,.85-.72,1.79-.97,2.84-.26,1.04-.52,2.67-.8,4.87-.28,1.98-.42,3.7-.42,5.17,0,.9,.09,1.78,.26,2.63,.22,1.81,.99,3.28,2.29,4.4,1.3,1.13,2.97,1.69,5,1.69s3.68-.56,5.12-1.69c1.44-1.13,2.53-2.6,3.26-4.4,.39-.85,.72-1.79,.97-2.84"/><path class="c" d="M352.77,4.2c.2-.2,.44-.3,.72-.3h7.54c.28,0,.51,.1,.68,.3,.17,.2,.22,.44,.17,.72l-7.03,57.26c-.06,.28-.18,.52-.38,.72-.2,.2-.44,.3-.72,.3h-7.54c-.28,0-.51-.1-.68-.3-.17-.2-.23-.44-.17-.72l.26-2.54c.05-.17,.03-.28-.09-.34-.11-.06-.23,0-.34,.17-2.77,2.94-6.1,4.4-9.99,4.4s-7.06-1.04-9.49-3.13c-2.43-2.09-4.01-5-4.74-8.72-.34-1.81-.51-3.67-.51-5.59,0-1.81,.11-3.47,.34-5,.45-3.95,1.33-7.4,2.63-10.33,1.64-3.73,3.94-6.63,6.9-8.72,2.96-2.09,6.48-3.13,10.55-3.13,3.78,0,6.69,1.41,8.73,4.23,.11,.11,.22,.16,.34,.13,.11-.03,.17-.13,.17-.3l2.29-18.38c.06-.28,.18-.52,.38-.72m-4.96,37.31c.17-1.47,.25-2.79,.25-3.98,0-2.54-.37-4.57-1.1-6.1-1.19-2.48-3.11-3.73-5.76-3.73-2.82,0-5.17,1.19-7.03,3.56-1.98,2.54-3.22,5.99-3.73,10.34-.17,1.24-.26,2.46-.26,3.64,0,2.43,.34,4.46,1.02,6.1,1.24,2.71,3.42,4.07,6.52,4.07,2.77,0,5.08-1.36,6.95-4.07,1.58-2.37,2.63-5.65,3.13-9.83"/><path class="c" d="M403.04,44.05c-.06,.68-.42,1.02-1.1,1.02h-25.67c-.28,0-.42,.14-.42,.42-.06,.39-.09,.93-.09,1.61,0,.85,.09,1.58,.25,2.2,.9,4.07,3.87,6.13,8.89,6.19,3.73,0,6.89-1.58,9.49-4.74,.28-.34,.56-.51,.85-.51,.22,0,.42,.08,.59,.25l4.49,4.32c.28,.28,.42,.51,.42,.68,0,.11-.11,.34-.34,.68-1.98,2.49-4.46,4.41-7.45,5.76-2.99,1.36-6.21,2.03-9.66,2.03-4.29,0-7.79-.99-10.5-2.96-2.71-1.98-4.55-4.75-5.51-8.3-.57-1.86-.85-4.04-.85-6.52,0-1.69,.11-3.33,.34-4.91,.4-3.84,1.1-6.92,2.12-9.23,1.58-3.95,4.02-7.07,7.33-9.36,3.3-2.29,7.1-3.43,11.39-3.43,10.73,0,16.09,5.73,16.09,17.2,0,2.09-.23,4.63-.68,7.62m-21.73-14.78c-1.44,1.05-2.56,2.5-3.35,4.36-.45,1.02-.82,2.26-1.1,3.73-.11,.28-.03,.42,.25,.42h16.69c.28,0,.42-.14,.42-.42,.06-.45,.08-1.04,.08-1.78s-.03-1.21-.08-1.44c-.28-2.03-1.07-3.61-2.37-4.74-1.3-1.13-3.05-1.69-5.25-1.69s-3.86,.52-5.29,1.57"/><path class="c" d="M409.73,62.9c-.17-.2-.23-.44-.17-.72l7.03-57.26c.06-.28,.18-.52,.38-.72,.2-.2,.44-.3,.72-.3h7.62c.28,0,.51,.1,.68,.3,.17,.2,.22,.44,.17,.72l-7.03,57.26c-.06,.28-.18,.52-.38,.72-.2,.2-.44,.3-.72,.3h-7.62c-.28,0-.51-.1-.68-.3"/><path class="b" d="M224.76,103.88c-.05-.06-.07-.13-.05-.22l.26-2.17c.02-.09,.06-.16,.12-.22,.06-.06,.14-.09,.22-.09h11.7c.09,0,.16,.03,.21,.09,.05,.06,.07,.14,.05,.22l-.26,2.17c-.02,.09-.06,.16-.12,.22-.06,.06-.14,.09-.22,.09h-11.7c-.09,0-.16-.03-.21-.09"/><path class="b" d="M254.85,94.58c1.31,.72,1.96,1.87,1.96,3.45,0,.16-.02,.43-.05,.81-.21,1.69-.93,2.97-2.16,3.83-1.23,.86-2.74,1.29-4.54,1.29h-6.59c-.09,0-.16-.03-.21-.09-.05-.06-.07-.13-.05-.22l2.17-17.69c.02-.09,.06-.16,.12-.22,.06-.06,.13-.09,.22-.09h6.38c3.63,0,5.44,1.37,5.44,4.11,0,.4-.02,.71-.05,.92-.19,1.73-1.07,2.98-2.62,3.74-.1,.05-.11,.1-.03,.16m-2.37,5.48c.5-.48,.74-1.14,.74-1.98,0-.61-.2-1.08-.59-1.41-.39-.33-.95-.5-1.66-.5h-3.14c-.09,0-.13,.04-.13,.13l-.55,4.34c0,.09,.03,.13,.1,.13h3.19c.85,0,1.53-.24,2.03-.72m-3.85-11.2s-.04,.06-.04,.09l-.5,4.08c-.04,.09,0,.13,.1,.13h2.98c.79,0,1.42-.19,1.91-.56,.49-.38,.78-.9,.86-1.58l.03-.31c0-.59-.2-1.06-.59-1.39-.39-.33-.96-.5-1.69-.5h-2.98s-.07,.01-.09,.04"/><path class="b" d="M266.6,103.86c-.05-.06-.07-.14-.05-.22l.81-6.62s0-.04,.01-.06c0-.03,0-.06-.01-.09l-3.9-10.83s-.03-.08-.03-.13c0-.16,.1-.23,.29-.23h3.22c.16,0,.26,.08,.31,.23l2.33,6.96c.03,.12,.08,.12,.13,0l4.03-6.96c.09-.16,.22-.23,.39-.23h3.24c.12,0,.2,.03,.24,.09,.03,.06,.02,.15-.05,.27l-6.59,10.83s-.05,.09-.05,.16l-.81,6.62c-.02,.09-.06,.16-.12,.22-.06,.06-.13,.09-.22,.09h-2.96c-.09,0-.16-.03-.21-.09"/><path class="b" d="M293.09,102.73c-1.07-1.02-1.61-2.39-1.61-4.1,0-.31,.03-.65,.08-1.02l.68-5.6c.16-1.29,.58-2.43,1.26-3.43,.68-.99,1.56-1.77,2.63-2.31,1.07-.55,2.27-.83,3.6-.83,1.83,0,3.28,.51,4.36,1.52,1.07,1.01,1.61,2.36,1.61,4.03,0,.33-.03,.67-.08,1.02l-.68,5.6c-.16,1.31-.58,2.46-1.26,3.47-.68,1-1.56,1.79-2.64,2.34-1.08,.56-2.29,.84-3.61,.84-1.81,0-3.26-.51-4.33-1.53m7.09-2.55c.64-.61,1.02-1.42,1.16-2.43l.71-5.76c.02-.12,.03-.3,.03-.55,0-.87-.24-1.56-.73-2.07-.49-.5-1.16-.76-2.01-.76-.92,0-1.71,.31-2.36,.93-.64,.62-1.03,1.44-1.15,2.45l-.71,5.76c-.02,.12-.03,.3-.03,.55,0,.86,.24,1.54,.73,2.04,.49,.51,1.15,.76,1.99,.76,.94,0,1.73-.3,2.37-.92"/><path class="b" d="M311.19,103.88c-.05-.06-.07-.13-.05-.22l2.17-17.69c.02-.09,.06-.16,.12-.22,.06-.06,.13-.09,.22-.09h2.98c.09,0,.16,.03,.21,.09,.05,.06,.07,.14,.05,.22l-.89,7.33c-.02,.05,0,.08,.03,.09,.04,0,.07,0,.1-.04l6.8-7.51c.1-.12,.24-.18,.39-.18h3.35c.17,0,.26,.06,.26,.18,0,.07-.04,.14-.1,.21l-6.57,7.46c-.07,.07-.09,.13-.05,.18l4.76,9.92s.03,.09,.03,.16c0,.14-.09,.21-.26,.21h-3.35c-.17,0-.29-.07-.34-.21l-3.58-7.54s-.04-.05-.08-.05-.07,.02-.11,.05l-1.86,2.07-.08,.16-.63,5.21c-.02,.09-.06,.16-.12,.22-.06,.06-.14,.09-.22,.09h-2.98c-.09,0-.16-.03-.21-.09"/><path class="b" d="M342.45,103.72l-.45-2.57s0-.04-.03-.06c-.02-.03-.04-.04-.08-.04h-6.25c-.05,0-.1,.03-.13,.1l-1.07,2.57c-.05,.17-.17,.26-.34,.26h-3.24c-.11,0-.18-.03-.22-.1-.04-.07-.04-.16,.01-.26l7.67-17.69c.09-.17,.21-.26,.37-.26h3.98c.16,0,.26,.09,.31,.26l3.3,17.69v.08c0,.09-.03,.16-.08,.21-.05,.05-.12,.08-.21,.08h-3.24c-.16,0-.25-.09-.29-.26m-5.57-5.52h4.47c.09,0,.13-.05,.13-.16l-1.33-7.77c-.02-.07-.05-.1-.08-.09-.03,0-.06,.04-.08,.09l-3.19,7.77c-.02,.1,0,.16,.08,.16"/><path class="b" d="M365.14,85.75c.05,.06,.07,.14,.05,.22l-.31,2.56c0,.09-.04,.16-.1,.22-.07,.06-.15,.09-.24,.09h-4.53c-.07,0-.12,.04-.16,.13l-1.8,14.68c-.02,.09-.06,.16-.12,.22-.06,.06-.14,.09-.22,.09h-2.96c-.09,0-.16-.03-.21-.09-.05-.06-.07-.14-.05-.22l1.78-14.68c.04-.09,0-.13-.1-.13h-4.42c-.09,0-.16-.03-.21-.09-.05-.06-.07-.14-.05-.22l.31-2.56c.02-.09,.06-.16,.12-.22,.06-.06,.13-.09,.22-.09h12.79c.09,0,.16,.03,.21,.09"/><path class="b" d="M383.57,88.73c-.06,.06-.14,.09-.22,.09h-8.35s-.07,.01-.09,.04c-.03,.03-.04,.06-.04,.09l-.5,4.05c0,.09,.03,.13,.1,.13h5.47c.09,0,.16,.03,.21,.09,.05,.06,.07,.13,.05,.22l-.31,2.54c-.02,.09-.06,.16-.12,.22-.06,.06-.14,.09-.22,.09h-5.47c-.09,0-.13,.04-.13,.13l-.52,4.24c0,.09,.04,.13,.1,.13h8.32c.19,0,.29,.11,.29,.31l-.31,2.54c-.02,.09-.06,.16-.12,.22-.06,.06-.14,.09-.22,.09h-11.75c-.09,0-.16-.03-.21-.09-.05-.06-.07-.13-.05-.22l2.17-17.69c.02-.09,.06-.16,.12-.22,.06-.06,.13-.09,.22-.09h11.72c.09,0,.16,.03,.22,.09,.06,.06,.08,.13,.07,.22l-.31,2.54c-.02,.09-.06,.16-.12,.22"/><path class="b" d="M401,85.75c.06-.06,.13-.09,.22-.09h2.98c.09,0,.16,.03,.21,.09,.05,.06,.07,.14,.05,.22l-2.17,17.69c-.02,.09-.06,.16-.12,.22-.06,.06-.13,.09-.22,.09h-2.88c-.16,0-.26-.07-.31-.21l-5.21-11.2c-.02-.05-.04-.07-.08-.07-.04,0-.06,.05-.08,.12l-1.31,11.04c-.02,.09-.06,.16-.12,.22-.06,.06-.14,.09-.22,.09h-2.98c-.09,0-.16-.03-.21-.09-.05-.06-.07-.14-.05-.22l2.17-17.69c.02-.09,.06-.16,.12-.22,.06-.06,.13-.09,.22-.09h2.88c.16,0,.27,.07,.34,.21l5.18,11.15c.02,.05,.04,.08,.08,.07,.03,0,.06-.05,.08-.12l1.31-10.99c.02-.09,.06-.16,.12-.22"/><path class="b" d="M424.27,85.75c.05,.06,.07,.14,.05,.22l-.31,2.56c0,.09-.04,.16-.1,.22-.07,.06-.15,.09-.24,.09h-4.53c-.07,0-.12,.04-.16,.13l-1.8,14.68c-.02,.09-.06,.16-.12,.22-.06,.06-.14,.09-.22,.09h-2.96c-.09,0-.16-.03-.21-.09-.05-.06-.07-.14-.05-.22l1.78-14.68c.04-.09,0-.13-.1-.13h-4.42c-.09,0-.16-.03-.21-.09-.05-.06-.07-.14-.05-.22l.32-2.56c.02-.09,.06-.16,.12-.22,.06-.06,.14-.09,.22-.09h12.79c.09,0,.16,.03,.21,.09"/></g></svg>