<svg xmlns="http://www.w3.org/2000/svg" viewBox="0 0 925.25 508.68"><defs><style>.cls-1{isolation:isolate;}.cls-2{fill:#f5c8be;}.cls-3{fill:#6b96c5;}.cls-4{fill:#2c2d52;}.cls-5{fill:#ababab;}.cls-11,.cls-12,.cls-13,.cls-5{mix-blend-mode:multiply;}.cls-6{fill:#f7e1d7;}.cls-17,.cls-19,.cls-20,.cls-25,.cls-27,.cls-29,.cls-30,.cls-7,.cls-8{fill:none;}.cls-30,.cls-7,.cls-8{stroke:#2c2d52;}.cls-20,.cls-30,.cls-7,.cls-8{stroke-miterlimit:10;}.cls-7{stroke-width:1.06px;}.cls-8{stroke-width:2.12px;}.cls-9{fill:#fbfcff;}.cls-10{fill:#fff;}.cls-11{fill:#50a7dd;}.cls-12{fill:#e64788;}.cls-13{fill:#f5e73d;}.cls-14{fill:#5872a2;}.cls-15{fill:#8abbe5;}.cls-16{fill:#060707;}.cls-17{stroke:#fff;stroke-width:0.96px;}.cls-17,.cls-19,.cls-25,.cls-27,.cls-29{stroke-linecap:round;stroke-linejoin:round;}.cls-18{fill:#1d1b39;}.cls-19{stroke:#7b7c7c;stroke-width:1.11px;}.cls-20{stroke:#6b96c5;stroke-width:0.98px;}.cls-21{fill:#f0a196;}.cls-22{fill:#0a0b0c;}.cls-23{fill:#3e4167;}.cls-24{fill:#8f97b7;}.cls-25{stroke:#0f0f0f;stroke-width:0.41px;}.cls-26{fill:#1b0706;}.cls-27,.cls-29{stroke:#1b0706;}.cls-27{stroke-width:0.6px;}.cls-28{fill:#1a182a;}.cls-29{stroke-width:0.55px;}.cls-30{stroke-width:1.48px;}</style></defs><title>Asset 3</title><g class="cls-1"><g id="Layer_2" data-name="Layer 2"><g id="Layer_1-2" data-name="Layer 1"><path class="cls-2" d="M337.73,65.71H464.42a4.84,4.84,0,0,0,4.74-4.94h0a4.84,4.84,0,0,0-4.74-4.94H337.73A4.85,4.85,0,0,0,333,60.77h0A4.85,4.85,0,0,0,337.73,65.71Z"/><path class="cls-2" d="M244.17,116.43h61.49a4.84,4.84,0,0,0,4.74-4.94h0a4.84,4.84,0,0,0-4.74-4.94H244.17a4.84,4.84,0,0,0-4.73,4.94h0A4.84,4.84,0,0,0,244.17,116.43Z"/><path class="cls-2" d="M872.51,358.72h48a4.84,4.84,0,0,0,4.74-4.94h0a4.84,4.84,0,0,0-4.74-4.94h-48a4.85,4.85,0,0,0-4.74,4.94h0A4.85,4.85,0,0,0,872.51,358.72Z"/><rect class="cls-3" x="63.03" y="235.31" width="14.66" height="14.81" rx="1.16" ry="1.16" transform="translate(140.72 485.43) rotate(180)"/><rect class="cls-3" x="391.49" width="14.66" height="14.81" rx="1.16" ry="1.16" transform="translate(797.64 14.81) rotate(180)"/><rect class="cls-3" x="863.64" y="263.98" width="14.66" height="14.81" rx="1.16" ry="1.16" transform="translate(1741.95 542.77) rotate(-180)"/><path class="cls-2" d="M858.31,506.41s-7.89-333.67-402.84-333.67S57.21,507.94,57.21,507.94Z"/><rect class="cls-3" x="183.3" y="306.68" width="37.62" height="201.26" transform="translate(404.23 814.62) rotate(-180)"/><path class="cls-3" d="M153.32,486.78h96.58a0,0,0,0,1,0,0v17.85a3.31,3.31,0,0,1-3.31,3.31h-90a3.31,3.31,0,0,1-3.31-3.31V486.78a0,0,0,0,1,0,0Z" transform="translate(403.23 994.72) rotate(-180)"/><rect class="cls-4" x="194.02" y="306.68" width="37.62" height="201.26" transform="translate(425.67 814.62) rotate(-180)"/><path class="cls-4" d="M164,486.78h96.58a0,0,0,0,1,0,0v17.85a3.31,3.31,0,0,1-3.31,3.31h-90a3.31,3.31,0,0,1-3.31-3.31V486.78a0,0,0,0,1,0,0Z" transform="translate(424.67 994.72) rotate(-180)"/><polygon class="cls-5" points="231.64 306.68 231.64 332.73 183.3 315.75 183.3 306.68 231.64 306.68"/><rect class="cls-3" x="579.46" y="306.68" width="37.62" height="201.26" transform="translate(1196.54 814.62) rotate(-180)"/><path class="cls-3" d="M549.48,486.78h96.58a0,0,0,0,1,0,0v17.85a3.31,3.31,0,0,1-3.31,3.31h-90a3.31,3.31,0,0,1-3.31-3.31V486.78A0,0,0,0,1,549.48,486.78Z" transform="translate(1195.55 994.72) rotate(-180)"/><rect class="cls-4" x="590.18" y="306.68" width="37.62" height="201.26" transform="translate(1217.98 814.62) rotate(-180)"/><path class="cls-4" d="M560.2,486.78h96.58a0,0,0,0,1,0,0v17.85a3.31,3.31,0,0,1-3.31,3.31h-90a3.31,3.31,0,0,1-3.31-3.31V486.78A0,0,0,0,1,560.2,486.78Z" transform="translate(1216.99 994.72) rotate(-180)"/><polygon class="cls-5" points="627.8 306.68 627.8 332.73 579.46 315.75 579.46 306.68 627.8 306.68"/><path class="cls-4" d="M258.62,146.26H160.51A21.93,21.93,0,0,0,141.28,158l-28.73,53.81c-3.55,6.57,1,14.68,8.23,14.68H225.27Z"/><polygon class="cls-5" points="210.7 146.26 167.49 226.47 202.11 226.47 244.07 146.26 210.7 146.26"/><polygon class="cls-3" points="189.1 165.89 184.22 174.85 158.34 174.85 163.35 165.89 189.1 165.89"/><polygon class="cls-6" points="182.67 177.8 181.24 180.47 155.35 180.47 156.93 177.8 182.67 177.8"/><polygon class="cls-6" points="180.06 182.61 178.62 185.29 152.74 185.29 154.31 182.61 180.06 182.61"/><polygon class="cls-6" points="177.9 187.4 176.47 190.08 150.58 190.08 152.16 187.4 177.9 187.4"/><polygon class="cls-6" points="171.4 198.98 169.96 201.66 144.08 201.66 145.66 198.98 171.4 198.98"/><polygon class="cls-6" points="168.78 203.8 167.34 206.47 141.46 206.47 143.04 203.8 168.78 203.8"/><polygon class="cls-3" points="175.35 192.29 173.13 196.42 133.14 196.42 135.58 192.29 175.35 192.29"/><polygon class="cls-3" points="158.34 165.89 145.22 189.57 136.29 189.57 149.54 165.89 158.34 165.89"/><polygon class="cls-3" points="141.46 198.98 137.15 206.47 128.22 206.47 132.67 198.98 141.46 198.98"/><path class="cls-3" d="M627.27,306.68h-463V276.26a70.48,70.48,0,0,1,7.81-32.32l43.24-83.75a25.27,25.27,0,0,1,22.37-13.93H627.27Z"/><path class="cls-4" d="M662.61,306.68H550.25V276.26a70.48,70.48,0,0,1,7.81-32.32l43.47-84.18a24.48,24.48,0,0,1,21.67-13.5h39.41Z"/><polyline class="cls-7" points="500.43 221.54 526.38 173.47 279.14 173.47 246.23 231.26"/><line class="cls-8" x1="514.35" y1="195.71" x2="266.25" y2="195.71"/><polygon class="cls-4" points="504.91 213.22 256.41 213.22 246.23 231.26 500.43 221.54 504.91 213.22"/><rect class="cls-3" x="517.51" y="89.51" width="11.9" height="56.76" transform="translate(1046.93 235.77) rotate(-180)"/><rect class="cls-4" x="529.41" y="89.51" width="29.74" height="56.76" transform="translate(1088.56 235.77) rotate(-180)"/><rect class="cls-3" x="538.07" y="89.51" width="11.9" height="56.76" transform="translate(1088.04 235.77) rotate(-180)"/><rect class="cls-4" x="549.97" y="89.51" width="29.74" height="56.76" transform="translate(1129.67 235.77) rotate(-180)"/><rect class="cls-3" x="558.89" y="89.51" width="11.9" height="56.76" transform="translate(1129.67 235.77) rotate(-180)"/><rect class="cls-4" x="570.79" y="89.51" width="29.74" height="56.76" transform="translate(1171.31 235.77) rotate(-180)"/><rect class="cls-3" x="581.07" y="89.51" width="11.9" height="56.76" transform="translate(1174.04 235.77) rotate(-180)"/><rect class="cls-4" x="592.97" y="89.51" width="29.74" height="56.76" transform="translate(1215.68 235.77) rotate(-180)"/><path class="cls-9" d="M583.94,98.33A3.08,3.08,0,1,0,587,95.12,3.15,3.15,0,0,0,583.94,98.33Z"/><path class="cls-9" d="M561.75,98.33a3.09,3.09,0,1,0,3.09-3.21A3.15,3.15,0,0,0,561.75,98.33Z"/><path class="cls-9" d="M540.94,98.33A3.08,3.08,0,1,0,544,95.12,3.15,3.15,0,0,0,540.94,98.33Z"/><ellipse class="cls-9" cx="523.55" cy="98.33" rx="3.08" ry="3.21"/><rect class="cls-5" x="517.51" y="138.03" width="105.19" height="8.24" transform="translate(1140.22 284.29) rotate(-180)"/><path class="cls-10" d="M478.09,422.91h0c0,26.69-20.75,48.33-46.36,48.33H330.06V422.91Z"/><path class="cls-9" d="M500.43,221.54H264.57s-32.85,2.74-32.85,46.57v154.8H478.09V270.34a60.69,60.69,0,0,1,14.14-39.08Z"/><ellipse class="cls-11" cx="348.05" cy="309.1" rx="39.45" ry="41.13"/><ellipse class="cls-12" cx="374.08" cy="355.22" rx="39.45" ry="41.13"/><ellipse class="cls-13" cx="318.01" cy="355.22" rx="39.45" ry="41.13"/><path class="cls-14" d="M347.4,422.91s21.8-2,21.8,22,18.71,26.3,18.71,26.3H330.06V422.91Z"/><path class="cls-15" d="M347.4,422.91H99.46s-23.12,1.27-23.12,27.78V482H330.06V449S330.19,422.91,347.4,422.91Z"/><path class="cls-10" d="M19.94,482s-3.05,19.49,27.4,25.67H287.87L258.62,482V455.5H19.85Z"/><path class="cls-15" d="M330.06,482h0c0,14.17-11,25.67-24.62,25.67h-22.2c-13.6,0-24.62-11.5-24.62-25.67h71.44Z"/><polygon class="cls-16" points="823.13 479.42 802.24 479.42 767.68 498.69 827.1 497.95 823.13 479.42"/><polygon class="cls-10" points="827.31 506.1 827.1 497.95 767.68 498.69 767.89 506.84 827.31 506.1"/><line class="cls-17" x1="787.8" y1="486.51" x2="794.64" y2="488.46"/><line class="cls-17" x1="794.49" y1="482.93" x2="801.34" y2="484.88"/><polygon class="cls-9" points="796.98 448.7 818.28 448.7 823.13 479.42 801.84 479.42 796.98 448.7"/><polygon class="cls-16" points="758.54 480.08 737.65 480.08 703.09 499.36 762.51 498.62 758.54 480.08"/><polygon class="cls-10" points="762.72 506.77 762.51 498.62 703.09 499.36 703.3 507.51 762.72 506.77"/><line class="cls-17" x1="723.2" y1="487.18" x2="730.05" y2="489.13"/><line class="cls-17" x1="729.9" y1="483.6" x2="736.74" y2="485.55"/><polygon class="cls-9" points="737.59 449.37 758.89 449.37 758.54 480.08 737.25 480.08 737.59 449.37"/><path class="cls-18" d="M740.55,218s-1.76,3.92-5,40.06c-.67,7.43-1.08,17.78-1,25.24L732.9,468.77l30.48-.34,5.8-196,24.94,197.93,31.77-1.21L806,223.58,791.68,221Z"/><line class="cls-19" x1="769.18" y1="272.45" x2="756.15" y2="266.2"/><path class="cls-9" d="M742.34,121.28S724.44,132.4,721,162.54l25.56,14.64Z"/><path class="cls-9" d="M776.54,111.87a86.79,86.79,0,0,1,25.73,6.22,62.11,62.11,0,0,1,5.8,2.75c5.71,3.12,4,9.84,3.29,16.71L808,230.44l-71.88-1.9-2.86-87.92c-.63-9.58,4.81-18.38,13.21-21.47,9.42-3.46,20.91-7.34,25.92-7.65Z"/><line class="cls-20" x1="735.36" y1="172.51" x2="733.57" y2="145.31"/><path class="cls-21" d="M750.71,117.62s13.23-5.4,21.68-6.12c0,0,11.54.51,19.47,3.06,0,0-4.4,9.79-24.66,11.39S750.71,117.62,750.71,117.62Z"/><path class="cls-22" d="M689.51,162.63l15,72.76a5.2,5.2,0,0,0,5.11,4.23l55.86-1a5.31,5.31,0,0,0,4.93-6.53l-15.7-72.75a5.18,5.18,0,0,0-5.1-4.18l-55.19,1A5.31,5.31,0,0,0,689.51,162.63Z"/><polygon class="cls-22" points="691.04 157.55 687.74 161.1 765.98 240.27 769.52 236.46 691.04 157.55"/><path class="cls-23" d="M686.54,165.81l15,72.75a5.18,5.18,0,0,0,5.11,4.23l55.86-1a5.31,5.31,0,0,0,4.93-6.53l-15.7-72.75a5.17,5.17,0,0,0-5.1-4.18l-55.19,1A5.31,5.31,0,0,0,686.54,165.81Z"/><path class="cls-24" d="M717.27,192.4a6.16,6.16,0,0,0,5.3,6.84,6,6,0,0,0,6.56-5.53,6.16,6.16,0,0,0-5.3-6.84A6,6,0,0,0,717.27,192.4Z"/><path class="cls-21" d="M685.53,187.37l4.21,17.76a4.62,4.62,0,0,0,4.53,3.64h0c6.3-.12,11-6.12,9.81-12.58L703,190.27a10.29,10.29,0,0,0-9.31-8.58l-3.4-.24A4.73,4.73,0,0,0,685.53,187.37Z"/><polygon class="cls-21" points="848.15 164.55 814.35 218.37 823.45 229.14 860.77 189.6 848.15 164.55"/><path class="cls-21" d="M783.29,220.82l14.46-7.95-1.42-3.43a3.2,3.2,0,0,1,.78-3.59,2.64,2.64,0,0,1,3.49-.06l14.24,12.09,8.61,11.26c-7.81,7.23-12.91,7.14-15.86,5.74-.34.13-.68.26-1,.37l-12,3.73a2.21,2.21,0,0,1-2.95-1.16c-.4-.85-.54-2.21,1.77-3.48l-2.31,1.27a2.3,2.3,0,0,1-3.09-1.25c-.52-1.11.12-2.57,1.48-3.53l-1.77.75A2.39,2.39,0,0,1,784.4,230a2.84,2.84,0,0,1,1.32-3.29l2.56-1.39-3,.79a2.6,2.6,0,0,1-3.41-1.86A3.06,3.06,0,0,1,783.29,220.82Z"/><line class="cls-25" x1="787.51" y1="225.74" x2="796.06" y2="221.38"/><line class="cls-25" x1="789.81" y1="230.67" x2="798.05" y2="226.96"/><line class="cls-25" x1="792.61" y1="234.67" x2="799.59" y2="231.69"/><path class="cls-21" d="M800.74,149.71l43,40.1a11.2,11.2,0,0,0,15.07,1.6h0c6-4.36,7-13.4,2.17-19.19l-40.43-42.71a12.89,12.89,0,0,0-18.65-1.63h0A15.53,15.53,0,0,0,800.74,149.71Z"/><path class="cls-9" d="M799.79,117.11s17.27,3.64,38.7,31.36l-18.35,25.68-28-21.65Z"/><line class="cls-20" x1="810.64" y1="166.8" x2="794.42" y2="154.24"/><path class="cls-26" d="M747.44,70.72a7,7,0,0,1-8.35,5.5,7.29,7.29,0,0,1-5.27-8.7,7,7,0,0,1,8.35-5.5A7.29,7.29,0,0,1,747.44,70.72Z"/><polygon class="cls-21" points="758.15 88.68 758.78 117.29 779.4 115.42 774.32 68.93 758.15 88.68"/><polygon class="cls-26" points="758.52 105.44 773.23 85.03 758.25 90.23 758.52 105.44"/><path class="cls-21" d="M748.48,39.81c-7.05,1-10.48,8.77-11.18,15.76-.8,8-1.52,20.52.88,26.63,3.71,9.45,11.59,15,23.5,11.62,0,0,13.94-1.78,16-23.7C780,44.18,763.49,37.72,748.48,39.81Z"/><path class="cls-26" d="M741.41,65.9a1.61,1.61,0,0,1-1.87,1.33,1.65,1.65,0,0,1-1.27-1.94A1.6,1.6,0,0,1,740.13,64,1.66,1.66,0,0,1,741.41,65.9Z"/><path class="cls-26" d="M754.89,65.9A1.61,1.61,0,0,1,753,67.23a1.65,1.65,0,0,1-1.27-1.94A1.6,1.6,0,0,1,753.61,64,1.66,1.66,0,0,1,754.89,65.9Z"/><path class="cls-27" d="M744.37,67.75l-1.46,5.53a.93.93,0,0,0,.69,1.13l1.69.34"/><path class="cls-28" d="M742.81,53.88s.63,2-1.73,2.38a17.07,17.07,0,0,0-3.94.93,1.24,1.24,0,0,1-1.57-.49h0a1.38,1.38,0,0,1,0-1.44,5.84,5.84,0,0,1,3.92-2.65C742.27,52.09,742.81,53.88,742.81,53.88Z"/><path class="cls-28" d="M751.07,54s-.72,2,2.32,2.34a35,35,0,0,1,6.38,1.6,1.84,1.84,0,0,0,2-.53h0a1.12,1.12,0,0,0,0-1.44,12.35,12.35,0,0,0-6.43-3.33C751.67,52.16,751.07,54,751.07,54Z"/><path class="cls-27" d="M752.82,77.84a9.88,9.88,0,0,1-8.41,1.58"/><path class="cls-28" d="M771.85,74l-3.08-16c-.69-3.71.45-6.78,1.22-11.29-13.49,0-29.36-.18-29.36-1.46,0,0,3.84-16,28.78-11.48C806.93,40.55,789.74,77,776.08,85Z"/><path class="cls-21" d="M785.33,72.13a7.64,7.64,0,0,1-9.14,6,8,8,0,0,1-5.77-9.53,7.64,7.64,0,0,1,9.14-6A8,8,0,0,1,785.33,72.13Z"/><path class="cls-29" d="M781.15,67.8s-5.7-1.25-6.75,5.27"/><path class="cls-28" d="M770,46.69s-36.42,4.65-35.91-7.43,22.16-17.17,31.66-5.35Z"/><line class="cls-30" x1="916.49" y1="507.94" y2="507.94"/></g></g></g></svg>