<?xml version="1.0" encoding="UTF-8"?><svg id="a" xmlns="http://www.w3.org/2000/svg" viewBox="0 0 910.17 600"><defs><style>.b{fill:none;stroke:#babec1;stroke-miterlimit:10;stroke-width:33px;}.c{fill:#babec1;}.d{fill:#ebebeb;}</style></defs><rect class="d" width="910.17" height="600"/><g><rect class="b" x="208.97" y="108.7" width="492.24" height="382.59" rx="35.53" ry="35.53"/><g><circle class="c" cx="311.95" cy="218.78" r="55.53"/><path class="c" d="M257.03,424.24v-31.54c0-3.32,1.32-6.5,3.66-8.84l78.54-78.54c4.88-4.88,12.8-4.88,17.69,0l29.22,29.22c4.88,4.88,12.8,4.88,17.69,0l121.64-121.64c4.88-4.88,12.8-4.88,17.69,0l106.92,106.92c2.35,2.35,3.66,5.53,3.66,8.84v95.57c0,6.91-5.6,12.51-12.51,12.51H269.54c-6.91,0-12.51-5.6-12.51-12.51Z"/></g></g></svg>