<svg xmlns="http://www.w3.org/2000/svg" viewBox="0 0 931.73 403.48"><defs><style>.cls-1{fill:#dde8fd;}.cls-2{opacity:0.5;}.cls-3{fill:#fff;}.cls-4{fill:#ef908f;}.cls-5{fill:#3662c1;}.cls-6{fill:#3c67c3;}.cls-7{fill:#ea8888;}.cls-8{fill:#ec6c69;}.cls-9{fill:#a83f3f;}.cls-10{fill:#0e1354;}.cls-11{fill:#ec7067;}.cls-12{fill:#6d89cf;}.cls-13{opacity:0.3;}.cls-14{fill:#bed2fa;}.cls-15{fill:#e75755;}.cls-16{fill:#040731;}.cls-17{fill:#ea8989;}.cls-18{fill:#9e332e;}.cls-19{fill:#a74541;}.cls-20{fill:#3a49cd;}.cls-21{fill:#ec6966;}.cls-22{fill:#f2a7a5;}.cls-23{fill:#94a9dc;}.cls-24{fill:#060832;}.cls-25{fill:#93b3f4;}.cls-26{fill:#010217;}</style></defs><title>Asset 1</title><g id="Layer_2" data-name="Layer 2"><g id="Layer_1-2" data-name="Layer 1"><path class="cls-1" d="M880.36,403.48l-784.68-.24S-19.83,281.62,77.46,162.29c76.19-93.44,185.72-81.52,253.67-36.42,28.94,19.2,84.53,85,160.75-24.6,27-38.88,69.58-66.22,116.59-82.6l3.87-1.32q9.92-3.32,20.06-6l3-.79A344.69,344.69,0,0,1,701,.51l3.87-.19.4,0,3-.11a288.32,288.32,0,0,1,68.81,5.53l3,.67c4.12.92,8.16,2,12.09,3.08,1.3.37,2.59.76,3.86,1.15C867,32.53,903.27,87.89,838.64,173,772.29,260.43,1007,281,880.36,403.48Z"/><g class="cls-2"><rect class="cls-3" x="636.15" y="303.2" width="241.65" height="1.6"/><path class="cls-3" d="M854.13,83.09H657.62c-14.54,0-26.36,13.18-26.36,29.38v262h4.89v-262c0-13.2,9.63-23.93,21.47-23.93H854.13c11.83,0,21.47,10.73,21.47,23.93V372.61h4.89V112.47C880.49,96.27,868.66,83.09,854.13,83.09Z"/><path class="cls-3" d="M646.53,372.61H618.58c-6,0-10.92,5.46-10.92,12.17v7.6h1.72v-7.6c0-5.66,4.13-10.26,9.2-10.26h27.95c5.08,0,9.21,4.6,9.21,10.26v7.6h1.71v-7.6C657.45,378.07,652.55,372.61,646.53,372.61Z"/><ellipse class="cls-3" cx="607.62" cy="395.91" rx="4.38" ry="4.88"/><ellipse class="cls-3" cx="609.71" cy="395.91" rx="4.38" ry="4.88"/><path class="cls-3" d="M650.79,395.91a4.41,4.41,0,1,1,4.38,4.88A4.65,4.65,0,0,1,650.79,395.91Z"/><ellipse class="cls-3" cx="657.26" cy="395.91" rx="4.38" ry="4.88"/><path class="cls-3" d="M891.77,372.61H863.82c-6,0-10.92,5.46-10.92,12.17v7.6h1.72v-7.6c0-5.66,4.13-10.26,9.2-10.26h27.95c5.08,0,9.2,4.6,9.2,10.26v7.6h1.72v-7.6C902.69,378.07,897.79,372.61,891.77,372.61Z"/><path class="cls-3" d="M848.48,395.91a4.41,4.41,0,1,1,4.38,4.88A4.65,4.65,0,0,1,848.48,395.91Z"/><ellipse class="cls-3" cx="854.95" cy="395.91" rx="4.38" ry="4.88"/><path class="cls-3" d="M896,395.91a4.41,4.41,0,1,1,4.38,4.88A4.65,4.65,0,0,1,896,395.91Z"/><path class="cls-3" d="M898.12,395.91a4.41,4.41,0,1,1,4.38,4.88A4.65,4.65,0,0,1,898.12,395.91Z"/></g><path class="cls-4" d="M293.23,150.36a123.17,123.17,0,0,1-9.33,10c-6.21,6-14.54,12.61-21.85,13.85a11.64,11.64,0,0,1-5.62-.27,33.54,33.54,0,0,1-10.92-6.65c-10-8.57-18.39-21.53-18.39-21.53l5.22-5.92s11.69,8.68,19,13.35c2.91,1.84,5.12,3.05,5.64,2.83,1.82-.78,33.27-22,33.27-22Z"/><path class="cls-5" d="M293.23,150.36a123.17,123.17,0,0,1-9.33,10,237.44,237.44,0,0,1-21.85,13.85c-2.15,1.14-3.67,1.79-4.26,1.75-3.86-.22-12.16-5.45-12.16-5.45a18.48,18.48,0,0,1-.12-3.22c.37-8,5.67-13.91,5.84-14.1,2.91,1.84,5.12,3.05,5.64,2.83,1.82-.78,33.27-22,33.27-22Z"/><path class="cls-6" d="M237.36,226.52c1.08,6.58,1.81,11.37,1.81,11.37-8.08,3.52-17.32,5-26.33,5.25-3,.1-6,.06-8.9-.07-4.53-.2-8.88-.63-12.84-1.17a149.61,149.61,0,0,1-20-4A71.6,71.6,0,0,1,178,207.65c4.18-9.21,8.94-16.22,10.24-21.92,1.63-7.14-1.84-23.78-4.36-34.16-1.28-5.26-2.31-8.91-2.31-8.91-8.77-12.87-4.56-20.41-4.56-20.41s4.09-1.71,9.2-3.27l.08,0c1.76-.53,3.63-1,5.49-1.48a45.76,45.76,0,0,1,5.67-.93c5-.44,5.27-11.79,5.27-11.79s2-.91,6.92-.76a37,37,0,0,1,6.06.76s0,9,4.2,10.85c2.16,1,6.27,2.71,10.3,4.42h0l.4.17,1.33.56,1.72.73.83.35,1.33.56,5.19,2.18c1.87,4.85-4.68,15.74-4.68,15.74a11.13,11.13,0,0,1,.46,2.45l0,.41c.23,3.54-.44,8.41-1.46,13.71-1.78,9.37-4.61,20.11-5.28,27.33a17.1,17.1,0,0,0,.23,6.1,1.05,1.05,0,0,0,0,.19c.28.84.59,2,.92,3.34C233.16,201.44,235.68,216.18,237.36,226.52Z"/><path class="cls-6" d="M245.71,398.8l-31.06-20.19a7.39,7.39,0,0,1-3.36-6.28l1.87-156.39c0-1.36-3.1-2.75-4.46-2.75s-5.4.57-5.4,1.93l3.62,158.24a5.12,5.12,0,0,1-2.32,4.39L172.21,398.8a1.09,1.09,0,0,0,.6,2h0l33-14.49a7.74,7.74,0,0,1,6.22,0l33.05,14.49A1.09,1.09,0,0,0,245.71,398.8Z"/><path class="cls-4" d="M312.85,128.38s-9.85,10.93-21,6.58a68.9,68.9,0,0,1-1.34-10.62c0-.52,0-1,0-1.52-.06-4.82-.22-7.52-.22-7.52h0c.51-.22,17.06-7,17-6.45C307,121.89,312.85,128.38,312.85,128.38Z"/><path class="cls-7" d="M305.65,112c-1.6,3-7.07,8.75-15.17,10.86-.06-4.82-.22-7.52-.22-7.52h0C290.73,115.17,306.13,111.09,305.65,112Z"/><path class="cls-8" d="M237.36,226.52a104.81,104.81,0,0,1-24.32-.13,74.06,74.06,0,0,1-9.53-1.84c-9.84-2.63-19.38-7.66-25.47-16.9,4.18-9.21,8.94-16.23,10.24-21.92,1.63-7.14-1.84-23.78-4.36-34.16L186.25,119h0l.08,0,2.35-.71c.87-.26,3.15-.76,3.15-.76S190,138.34,219.5,139.56c9.3.39,14.52,1.66,17.32,3.21,1.06,11.86-9,39.93-6.42,47.74C232.22,196,235.37,214.32,237.36,226.52Z"/><path class="cls-4" d="M286.79,114.8s18.61,4.37,21.16-7.26,6.66-18.9-5.11-22.19S287.77,86,286,89.67,282,113.36,286.79,114.8Z"/><path class="cls-9" d="M307.31,110.71c.26.16,4.26,1.39,11.85-13.72a13.14,13.14,0,0,0-.78-12c-2.77-4.54-12.61-8.1-20.79-9.65s-10.14,3-12.06,7.67c-2,4.85-7.86,8.85-7.86,8.85,7.05,3.94,15.54-1.69,18.48-.77s4,5.56,4.2,7,.56,2.72,4.26,1.39,1.68,5.25,1.08,6.5C305.69,106,305.19,109.35,307.31,110.71Z"/><path class="cls-10" d="M355.26,400.81h11.27c2.36,0,5-2.37,5.64-6.7s5.52-6.7,6.57-10.24-4.33-8.54-4.33-8.54l-.91-1.16-.93-1.2-8.93,2.1s-.22,2.12-.36,4.83a61,61,0,0,0,0,6.2c.26,4.73-1.33,9.82-5.53,10.74S355.26,400.81,355.26,400.81Z"/><path class="cls-10" d="M276.8,400.81h29.88a2.67,2.67,0,0,0,.63-.19c2-1,1.37-8.63,1.13-11l-.08-.7s-10.5-8.4-11.95-2l-.15.59h0c-1.83,6-10,8.75-14.69,9.52C278,397.66,277,399.76,276.8,400.81Z"/><path class="cls-8" d="M282.82,228.53s1.6,19.91,3.47,43.83c2.55,32.51,5.62,72.43,5.92,80,.52,13.14,2.63,34.14,2.63,34.14s5,5,15,2.89c0,0,8.89-30,11.43-61.72l.12-1.57c2.36-32.3,6-100.32,6-100.32Z"/><path class="cls-11" d="M282.82,228.53s1.6,19.91,3.47,43.83l34.95,55.3.12-1.57c2.36-32.3,6-100.32,6-100.32Z"/><path class="cls-8" d="M290.11,230.9s28.75,72.08,47.66,106,24.82,43.33,24.82,43.33,10.83-4.33,11.82-7.29c0,0-7.23-65.4-19.9-81.34-7.15-9-15.56-36-15.95-45.5S336,217.9,336,217.9Z"/><path class="cls-12" d="M335.07,230.26c-7.87,4.65-15.3,8.1-23.93,9.92-10.22,2.22-22.71,1.27-26.9,1.8a1.81,1.81,0,0,1-1.22-.31c-.31-.19-2-12.81-3.52-28.77-.07-.61-.15-1.29-.16-1.91l0-.22c-.17-1.66-.34-3.35-.49-5.06q-.31-3.6-.6-7.28c-.15-1.89-.29-3.8-.43-5.71,0-.42-.06-.84-.08-1.25-.49-7-.85-14-1-20.13,0-1,0-2,0-3v-.13c0-4.07.09-7.73.36-10.75.06-.77.14-1.49.24-2.18,1.22-9.25,5.69-15.76,9.9-20.65l3.47-3.84A18.39,18.39,0,0,0,302.55,128c4.18-2.68,8.72-5.57,9.56-5.09,6.47,3.78,11.62,13.44,15.13,26.07a142.63,142.63,0,0,1,4.16,22.5q.51,4.63.77,9.41a310.84,310.84,0,0,0,5.15,40.19c.44,2.44.8,4.39,1,5.73S336.12,229.64,335.07,230.26Z"/><path class="cls-5" d="M305.39,150.36s-3.64,30.92-27.17,48.07c-.15-1.89-.29-3.8-.43-5.71,0-.42-.06-.84-.08-1.25-.49-7-.85-14-1-20.13,0-1,0-2,0-3v-.13c0-3.64.14-6.93.36-9.74C284.28,154,293.62,151,305.39,150.36Z"/><path class="cls-11" d="M230.24,120s-.66,42.1-25.4,57.44-7.17,106-14.37,139.36,64.59,6.16,68.23-31.56-31.35-95.83-31-103,9.14-53.3,8.2-59.83Z"/><path class="cls-4" d="M274.22,186.93a52.6,52.6,0,0,1-7.27,4c-4,1.44-10.33,2.23-17.22,2.62-15.09.88-32.65-.1-32.65-.1-2.65,1.91-7.32,1.58-11.26-.64s-3.08-1.26-5.91-2.78a1.76,1.76,0,0,1-.78-2.71,4,4,0,0,1,2.51-1.89c5.26-1.37,7.55-1,9.82-.28a2.46,2.46,0,0,1-.62-1.77c.16-.57,4,1.71,5.68,2.75,5.68.81,19.07-3.15,29.06-6.53,6-2,10.79-3.85,11.92-4.28.91-.36,3.81-3.28,7.4-7.17C267.09,174.6,270.16,181.7,274.22,186.93Z"/><path class="cls-12" d="M308.06,164.09c-11.8,8.32-33.74,23.89-39.46,27.06-3.69,2-8.47,6-15.45,7.59-10-6.79-7.57-19.18-7.57-19.18,6-2,10.79-3.85,11.92-4.28,3-1.16,27.4-30,27.4-30s9.3-12,17.67-10c7.27,1.71,10.42,7.1,11.71,12.34A15.66,15.66,0,0,1,308.06,164.09Z"/><g class="cls-13"><path class="cls-3" d="M653.24,47H613c0-11.47,8.61-20.83,19.37-21.24V11.36l3-.79V25.92C645.46,27.14,653.24,36.13,653.24,47Z"/><path class="cls-3" d="M726.1,47H685.89c0-12.57,8.61-22.8,19.38-23.25V.3l3-.11V23.93C718.32,25.26,726.1,35.1,726.1,47Z"/><path class="cls-3" d="M798,47H757.74c0-11.47,8.61-20.83,19.38-21.24V5.72l3,.67V25.92C790.17,27.14,798,36.13,798,47Z"/></g><path class="cls-3" d="M855.8,118.56a88.27,88.27,0,0,0-10.21-5.63l-.32-.16-1.68-.75a71.29,71.29,0,0,0-7.27-2.74,59.74,59.74,0,0,0-6.09-1.6,48.17,48.17,0,0,0-8.26-1v-12c0-1.29-.63-3.76-3-3.9a3.38,3.38,0,0,1-2.37-1.22,3.84,3.84,0,0,1-1-2.67,4.21,4.21,0,0,1,4.4-4.12,2.23,2.23,0,0,1,1.05.25h2.58A4.2,4.2,0,0,0,820,81a6,6,0,0,0-6.22,5.79,5.6,5.6,0,0,0,1.39,4,5.16,5.16,0,0,0,3.65,1.85c1.25.08,1.28,2,1.28,2.08v11.93a47.09,47.09,0,0,0-8.06.85,60.78,60.78,0,0,0-7.91,2.1c-2.32.78-4.53,1.65-6.6,2.57l-.45.2-.12.06h0a89.44,89.44,0,0,0-10,5.31,3.45,3.45,0,0,0-1.54,3.91,3.49,3.49,0,0,0,3.37,2.55h65.32a3.07,3.07,0,0,0,1.65-5.66Zm-1.38,2.67a.25.25,0,0,1-.27.2H788.83a.69.69,0,0,1-.69-.52.67.67,0,0,1,.31-.78c2-1.2,4.47-2.63,7.38-4.06h0l1.36-.65,1.54-.7c2-.91,4.24-1.77,6.53-2.53a57.78,57.78,0,0,1,8.19-2.09,42.6,42.6,0,0,1,7.22-.65h.52a44.42,44.42,0,0,1,7.66.8,55.5,55.5,0,0,1,6.55,1.64,73.28,73.28,0,0,1,8,3.06c.62.28,1.23.57,1.82.86l1.5.73h0c3,1.54,5.61,3.08,7.61,4.36A.25.25,0,0,1,854.42,121.23Z"/><path class="cls-3" d="M824.27,89.12a.9.9,0,0,0,.81-.58h-1.7A.93.93,0,0,0,824.27,89.12Z"/><path class="cls-12" d="M815.9,259.14c9,10.62,31.36,13.89,31.36,13.89s1.48-25.53,2.37-56.44c.81-28,1.13-60.35-.54-82.21-.78-10.2-2-18.11-3.8-22.21a54.14,54.14,0,0,0-14.08-6.32l-21,39.29S806.91,248.51,815.9,259.14Z"/><path class="cls-14" d="M849.63,216.59c.81-28,1.13-60.35-.54-82.21C844.7,146.68,827.58,199.41,849.63,216.59Z"/><path class="cls-12" d="M845.28,112.17s10.26-5.37,14.89-.5,5.18,71.19,0,84.88c0,0-9.53,2.53-16.88-3.47Z"/><path class="cls-12" d="M826.5,259.14c-9,10.62-31.36,13.89-31.36,13.89s-1.48-25.53-2.37-56.44c-.81-28-1.13-60.35.54-82.21.78-10.2,2-18.11,3.81-22.21a54,54,0,0,1,14.07-6.32l21,39.29S835.49,248.51,826.5,259.14Z"/><path class="cls-14" d="M792.77,216.59c-.81-28-1.13-60.35.54-82.21C797.7,146.68,814.82,199.41,792.77,216.59Z"/><path class="cls-12" d="M797.12,112.17s-10.26-5.37-14.89-.5-5.18,71.19,0,84.88c0,0,9.53,2.53,16.88-3.47Z"/><path class="cls-14" d="M822.93,182.32a2.54,2.54,0,1,1,2.54,2.54A2.54,2.54,0,0,1,822.93,182.32Z"/><path class="cls-14" d="M822.93,197.08a2.54,2.54,0,1,1,2.54,2.54A2.54,2.54,0,0,1,822.93,197.08Z"/><rect class="cls-15" x="761.39" y="324.71" width="72.74" height="76.09" rx="15.8" ry="15.8"/><rect class="cls-11" x="719.64" y="324.71" width="72.74" height="76.09" rx="12.12" ry="12.12"/><path class="cls-15" d="M732.82,345.87a2.31,2.31,0,1,1,2.31,2.31A2.31,2.31,0,0,1,732.82,345.87Z"/><path class="cls-15" d="M770.25,345.87a2.31,2.31,0,1,1,2.31,2.31A2.3,2.3,0,0,1,770.25,345.87Z"/><path class="cls-15" d="M732.82,379.65a2.31,2.31,0,1,1,2.31,2.31A2.31,2.31,0,0,1,732.82,379.65Z"/><path class="cls-15" d="M770.25,379.65a2.31,2.31,0,1,1,2.31,2.31A2.3,2.3,0,0,1,770.25,379.65Z"/><path class="cls-9" d="M802.77,345.87c0-1.28.6-2.31,1.34-2.31s1.34,1,1.34,2.31-.6,2.31-1.34,2.31S802.77,347.15,802.77,345.87Z"/><path class="cls-9" d="M824.53,345.87c0-1.28.6-2.31,1.34-2.31s1.35,1,1.35,2.31-.6,2.31-1.35,2.31S824.53,347.15,824.53,345.87Z"/><path class="cls-9" d="M802.77,379.65c0-1.28.6-2.31,1.34-2.31s1.34,1,1.34,2.31-.6,2.31-1.34,2.31S802.77,380.93,802.77,379.65Z"/><path class="cls-9" d="M824.53,379.65c0-1.28.6-2.31,1.34-2.31s1.35,1,1.35,2.31-.6,2.31-1.35,2.31S824.53,380.93,824.53,379.65Z"/><path class="cls-15" d="M723.68,324.71s38.68-6.34,105.17,0Z"/><path class="cls-16" d="M712.85,319.25s75.93-12.55,94.1-10.57,24.15,2.87,19.76,8.3-17.49,18.13-47.52,13.85S724.57,343,708.5,337.62s-19.86-11.17-12.09-14.5A56.24,56.24,0,0,1,712.85,319.25Z"/><path class="cls-10" d="M734.08,322.47s3.78-20.33,9.58-25.16,14.24,1,21.35-1.67,19.35,22.95,19.35,22.95A80.2,80.2,0,0,1,734.08,322.47Z"/><path class="cls-10" d="M432.09,199.56c-.09-.49-1.23-5.72-9.33-4.83,0,0,4-.1,5,1.54,0,0-3-1.76-5.11-.75s-2.83,5-2.65,6.32,2,5.17,3.42,5.31a4.28,4.28,0,0,0,1.69-.24,17.25,17.25,0,0,0-.8,2.09c-2.26,7.06,2,13,4.61,11.92,1.68-.71,2.61,2.2,2.61,2.2l15-16.19S438.36,195,432.09,199.56Z"/><path class="cls-4" d="M492.71,276.28s-3.74-2.37-6.07-1.95c-.48-.18-1.51-.59-1.25-.82s1.24-1.2,1.15-1.47-1,.45-2.29.67-1.67.5-2,1-1.45.71-1.45.71h0l-1.57-.21c-1.1-.46-2.59-1.09-4.23-1.82-4.7-2.1-10.62-4.92-11.91-6.36-3-3.34-6.58-14.53-9.95-21.92-.17-.4-.34-.78-.52-1.16s-.25-.55-.38-.82a.72.72,0,0,0-.11-.19c-.17-.31-.3-.58-.44-.83,0,0,0-.06,0-.09a23.81,23.81,0,0,0-1.9-2.84c-.74-.8-1.45-1.13-2.12-.85a8.52,8.52,0,0,0-1.94,1.49,9.87,9.87,0,0,0-.68.73,2.12,2.12,0,0,0-.38.47,11.24,11.24,0,0,0-2.05,4.07,14.2,14.2,0,0,0-.48,4.51c.1,2.84,1.5,6.4,3.5,10,.08.17.17.33.27.5,3.85,6.76,9.75,13.52,13.35,15.73,2.37,1.46,8.32,2.36,13.33,2.87,2.12.23,4.08.38,5.54.49l.4,0a51.61,51.61,0,0,1,6.32,1.54c3.46,1.14,5.44-1.19,6.9-1.91S492.71,276.28,492.71,276.28Z"/><path class="cls-10" d="M451.59,394.52,448,395.88S432.14,374,430.19,354.67a29.6,29.6,0,0,1,.52-9.87l-.42-2.44c-.13-.73-.28-1.6-.46-2.61-.51-2.94-1.22-7-2-11.56-1.86-10.55-4.26-24.05-6.14-34l1-.31,10.61-3.43,2.2-7,7.9-2.08s1.76,3.45,3.34,19.76c.29,2.14.55,4.5.75,7.06a139.29,139.29,0,0,1-.75,28.56c-.36,2.84-.82,5.77-1.39,8.77a39.87,39.87,0,0,0-.3,8.66C445.8,370,451.59,394.52,451.59,394.52Z"/><path class="cls-16" d="M447.44,308.26l-17.15,34.1c-.13-.73-.28-1.6-.46-2.61-.51-2.94-1.22-7-2-11.56-1.86-10.55-4.26-24.05-6.14-34l1-.31,10.61-3.43,2.2-7,7.9-2.08s1.76,3.45,3.34,19.76C447,303.34,447.24,305.7,447.44,308.26Z"/><path class="cls-10" d="M439.9,285.82l-.4-3.41c-6.65,1.77-24.43-4.94-24.43-4.94s-6.45,5.67-5.6,19.25c.41,6.63,1.17,34.8,2,43.13.28,3,.53,5.17.63,6h0a1.23,1.23,0,0,1-.19.74,39.32,39.32,0,0,0-2.91,6.12c-7.73,20.61,1.19,46,1.19,46l2.32-.93s5.08-28.25,9.21-40.73a24.84,24.84,0,0,1,2-4.77c1.8-2.9,3.46-7.63,5-13.26,2.86-10.64,5.16-24.49,6.69-35.17C435.53,303.89,439.9,285.82,439.9,285.82Z"/><path class="cls-4" d="M445.67,244.48a20.59,20.59,0,0,1-7.32,2.88c-11.23,2.26-15.24-7.29-16.67-13.81a9.65,9.65,0,0,1,3.82-1.05c.81-.07,1.66-.11,2.36-.13,1.28-.92,3.26-4.8,3.84-10.88l.52.15L441,224.3s-.48,2.78-.76,5.42c-.21,2.06-.29,4,.09,4.53l1.09.28h0A56.69,56.69,0,0,1,445.67,244.48Z"/><path class="cls-17" d="M441,224.3s-.48,2.78-.75,5.42c-5-.64-7.15-5.45-8-8.08Z"/><path class="cls-4" d="M442.36,227s-11.8-1-11.08-8.32-.3-12.42,7.26-12.1,8.76,3.26,9.11,5.77S445.45,227,442.36,227Z"/><path class="cls-8" d="M452.64,242.94c-.13-.28-.25-.55-.38-.82a.72.72,0,0,0-.11-.19c-.17-.31-.3-.58-.44-.83,0,0,0-.06,0-.09a23.81,23.81,0,0,0-1.9-2.84,4.82,4.82,0,0,0-1.3-1.1h0s-1.95-1.35-7.07-2.53c.11.26,3.25,7.45,2.73,9.14s-15.75-1.4-16.73-2.47c-.77-.86-1.52-5.95-1.78-7.9-.09-.49-.12-.81-.12-.81s-5.49.06-8.36,1.73a23.92,23.92,0,0,1,2.44,5.23c.09.29.15.55.23.8a17.34,17.34,0,0,1,.29,1.73,3.4,3.4,0,0,1-.75,2.21,18.5,18.5,0,0,1-1.92,2.13c-.49.49-1,1-1.58,1.55.14,1.21.37,2.65.6,4.31a93,93,0,0,1,1.09,10.64,10.25,10.25,0,0,1-.83,4.43,9,9,0,0,1-.86,1.58c-2.68,4.05-7.28,12-5.41,16.27.17,1,2.59,1.84,6.07,2.38,10.37,1.67,30.41,1,29.35-2.33,0,0,1.58-26.36,3.56-32.94.06-.23.12-.49.17-.72a13.86,13.86,0,0,0-.42-6.63A10.21,10.21,0,0,1,452.64,242.94Z"/><path class="cls-10" d="M447.71,208.2c-1.6-2.39-3-2-3.86-1.46a8.29,8.29,0,0,0-10.77.63,14.07,14.07,0,0,1-5.42,7.83s2,1.54,7.1.77a8.49,8.49,0,0,0,4.29-2.37,27.44,27.44,0,0,1-5.31,5.3c6.19-2.14,9.39-10.13,9.71-11a9.21,9.21,0,0,1,2.23,3.68c.4,1.93.28,5.8,1.41,5.78C447.09,217.39,450.11,211.78,447.71,208.2Z"/><path class="cls-11" d="M422.85,270.26c-1.41,3.37-2.9,11.73-6.35,17.22-3.48-.54-5.9-1.35-6.07-2.38-1.87-4.26,2.73-12.22,5.41-16.27a9,9,0,0,0,.86-1.58,10.25,10.25,0,0,0,.83-4.43,93,93,0,0,0-1.09-10.64l.95-2S425.09,264.86,422.85,270.26Z"/><path class="cls-16" d="M423.62,400.63H405.29a10,10,0,0,1,.52-4.91c.92-2,2.35-3,2-5.42a6.61,6.61,0,0,0,5.71,2.19c.33.52,2.1,3.34,3.18,4.12S423.25,397.16,423.62,400.63Z"/><path class="cls-16" d="M463,400.63H444.65s-.69-2.92.51-4.91c1.07-1.76.66-2.76-.13-4.22a7.11,7.11,0,0,0,3.09.58,6.28,6.28,0,0,0,2.72-1,65.67,65.67,0,0,0,5.23,5.49C457.26,397.47,462.61,397.16,463,400.63Z"/><path class="cls-3" d="M439.55,222.72s.16,1,2.55,1c0,0,2,0,2-1.05A6.46,6.46,0,0,0,439.55,222.72Z"/><path class="cls-18" d="M458.79,265.24l-2,16.44a5.17,5.17,0,0,0,5.14,5.8h17.73l8.37-22.24Z"/><path class="cls-18" d="M465,266.89c0-.1.9-10.38,7.06-10.18s7.86,9.31,7.88,9.41l1.22-.21a19.61,19.61,0,0,0-1.73-5.07c-1.77-3.42-4.3-5.28-7.34-5.37s-5.5,1.87-7,5.69a22.06,22.06,0,0,0-1.33,5.63Z"/><path class="cls-19" d="M488.05,265.24h-27l3.88,17a6.69,6.69,0,0,0,6.52,5.2h16.41a5.28,5.28,0,0,0,5-6.87Z"/><path class="cls-19" d="M467.1,266.89c0-.1.9-10.38,7.06-10.18S482,266,482,266.12l1.22-.21a19.41,19.41,0,0,0-1.74-5.07c-1.76-3.42-4.29-5.28-7.33-5.37s-5.5,1.87-7,5.69a22.06,22.06,0,0,0-1.33,5.63Z"/><path class="cls-4" d="M457.75,288.28c-4.11-.6-25.17-6.36-27-7.77-1.46-.94-5.88-4.84-10.14-13.16-.59-1.14-1.15-2.3-1.7-3.42a87.93,87.93,0,0,1-4.78-11.9,34.84,34.84,0,0,1-1.4-5.75c-.08-.58-.16-1.13-.18-1.65l-.06-.87A14.92,14.92,0,0,1,423,239.94l.32.55c2.21,4,11.07,30,11.54,31.07S453.42,282.1,458,284.15C459.89,285,457.75,288.28,457.75,288.28Z"/><path class="cls-8" d="M427.91,249.18c-7.62-3.45-14.94.84-14.94.84-2.73-14.63,5.89-16.55,5.89-16.55C420.66,232.53,430.52,242,427.91,249.18Z"/><path class="cls-4" d="M458,284.15s1.8-.61,2.59-1,2.43,0,3.62-.23,1.34.24.93.57-2.18.8-2.46,1.15,3.52.69,5.32.1,1.94-.28,1.29,1-3.65,3.81-5.66,3.72a35.86,35.86,0,0,1-5.87-1.19Z"/><path class="cls-20" d="M102.55,345.72s-8.81-10.28-.54-16.81c0,0,6-3.66,11-3.36,0,0-7,11.7-4.72,12.86s6.84-13.59,6.84-13.59,13.74-1.34,18.16.79c0,0-11.75,9.61-9.27,10.19s15.16-8.87,15.16-8.87,12.79,2.18,12.11,10-5.09,10.21-7,10S131,342.38,130.71,344s6.57,6.77,11.35,7c0,0-9,9.94-15,7.07s-6.51-7.42-10.24-9.13-6.93-1.7-5.39,0,8.31,3.43,10.44,7.21,4.06,6.33-2.14,5.4-16.28-5.47-16.72-10.67Z"/><path class="cls-20" d="M145,337.12s-34.74-1.34-42.41,8.6a25.08,25.08,0,0,1-6.91,9.71l-.82,2.21s6-6.34,8.18-6.73C103,350.91,99.63,338.6,145,337.12Z"/><path class="cls-20" d="M95.64,355.43a21.8,21.8,0,0,0-8,15.36l1.35.13s2.39-10.19,6.69-14.18S95.64,355.43,95.64,355.43Z"/><path class="cls-14" d="M71.75,332.79s14-7.85,7.47-18.5c0,0-5.23-6.54-10.84-8.22,0,0,3,15.88,0,16.26s-2-17.94-2-17.94-14.77-7.11-20.56-6.54c0,0,9.16,15.51,6.17,15.13s-13.27-16.07-13.27-16.07-15.14-2.8-17.57,6.17,1.5,13.45,3.74,14,16.63.38,16.26,2.25S31,324.19,25.59,322.51c0,0,6,14.77,13.83,14s10.28-5.61,15.14-6,8.4.93,6,2.24-10.65.43-14.57,3.77-7.1,5.39.19,6.88,20.37.56,23-5Z"/><path class="cls-14" d="M28,305.88s39.24,12.71,43.73,26.91a29.78,29.78,0,0,0,3.73,13.64v2.81s-4.11-9.53-6.35-10.84C69.13,338.4,77.91,326.06,28,305.88Z"/><path class="cls-14" d="M75.48,346.43a25.87,25.87,0,0,1,2.61,20.38l-1.56-.42s1.51-12.32-1.66-18.52S75.48,346.43,75.48,346.43Z"/><path class="cls-12" d="M94.05,322s-18.48-10.35-9.86-24.39c0,0,6.9-8.62,14.29-10.84,0,0-3.94,20.94,0,21.43s2.71-23.65,2.71-23.65,19.46-9.36,27.1-8.62c0,0-12.07,20.45-8.13,20s17.49-21.19,17.49-21.19S157.6,271,160.8,282.8s-2,17.74-4.92,18.47-21.93.5-21.44,3,13.31,6.41,20.45,4.19c0,0-7.88,19.46-18.23,18.47s-13.55-7.39-20-7.88-11.09,1.23-7.88,3,14,.56,19.21,5,9.36,7.11-.25,9.08-26.85.74-30.3-6.65Z"/><path class="cls-20" d="M151.69,286.49S100,303.25,94.05,322a39.38,39.38,0,0,1-4.93,18v3.69s5.42-12.56,8.37-14.28C97.49,329.36,85.92,313.1,151.69,286.49Z"/><path class="cls-20" d="M89.12,340s-8,12.11-3.43,26.86l2-.55s-2-16.24,2.18-24.41S89.12,340,89.12,340Z"/><path class="cls-21" d="M93.42,398.79a36.19,36.19,0,0,0,36.19-36.19H57.23A36.19,36.19,0,0,0,93.42,398.79Z"/><path class="cls-22" d="M102.33,398.51a35.08,35.08,0,0,1-4.5.28A36.19,36.19,0,0,1,61.64,362.6h9A36.2,36.2,0,0,0,102.33,398.51Z"/><path class="cls-21" d="M130.11,400.63H56.73a4.46,4.46,0,0,1,4.47-4.46h64.45a4.46,4.46,0,0,1,4.46,4.46Z"/><rect class="cls-21" x="56.04" y="362.6" width="74.39" height="1.11"/><rect class="cls-14" x="473.85" y="294.98" width="37.64" height="105.66" transform="translate(985.35 695.62) rotate(180)"/><rect class="cls-12" x="483.09" y="294.98" width="37.64" height="105.66" transform="translate(1003.83 695.62) rotate(180)"/><rect class="cls-12" x="515.71" y="356.36" width="46.43" height="44.43"/><rect class="cls-23" x="504.31" y="356.36" width="46.43" height="44.43"/><path class="cls-19" d="M513.08,334.1l-2,16.44a5.19,5.19,0,0,0,5.15,5.81H534l8.38-22.25Z"/><path class="cls-19" d="M519.23,335.76c0-.11.91-10.38,7.06-10.19s7.86,9.32,7.88,9.41l1.22-.2a18.93,18.93,0,0,0-1.73-5.07c-1.76-3.42-4.3-5.28-7.33-5.38s-5.5,1.88-7,5.7a21.63,21.63,0,0,0-1.32,5.63Z"/><path class="cls-8" d="M542.34,334.1h-27l3.88,17a6.7,6.7,0,0,0,6.53,5.21h16.4a5.29,5.29,0,0,0,5-6.87Z"/><path class="cls-8" d="M521.39,335.76c0-.11.9-10.38,7.05-10.19s7.86,9.32,7.88,9.41l1.22-.2a18.93,18.93,0,0,0-1.73-5.07c-1.76-3.42-4.3-5.28-7.33-5.38s-5.5,1.88-7,5.7a21.63,21.63,0,0,0-1.32,5.63Z"/><path class="cls-4" d="M661.22,149.41c-1.17-1.08-4.19,1.27-5.32,2s-1.34.37-.92-.41.92-2.45.46-2.76-1,1.23-2.55,2.3a3.23,3.23,0,0,0-1.12,3.47c.1.77-.87,2.1-.87,2.1s-12.74,13.6-19.83,19.74c-3.8,3.3-11.63,6.84-21.32,8.55a96.1,96.1,0,0,0-18.39,5.19l17.1,10.49s15.13-8.29,24.88-13.35,21.08-28.46,21.08-28.46a10.16,10.16,0,0,1,3.22-1.65C659.53,156.05,662.39,150.48,661.22,149.41Z"/><path class="cls-21" d="M613,196.29c-.83,3.16-2.34,6.14-5,7.87l-.42.24c-2.39,1.28-4.29,0-5.77-2.2a20,20,0,0,1-1.92-4c-1.79-4.83-3.29-10.61-3.29-10.61.34-.37,6.73-3.16,17.08-4A37.56,37.56,0,0,1,613,196.29Z"/><path class="cls-11" d="M613,196.29c-.83,3.16-2.34,6.14-5,7.87l-.42.24a39.46,39.46,0,0,1-5.77-2.2c-2.47-1.24-3.81-2.65-1.92-4a8.17,8.17,0,0,1,2-.94C606.82,195.52,610.49,195.65,613,196.29Z"/><path class="cls-3" d="M719.82,118.55a88.87,88.87,0,0,0-8.91-5c-1-.52-2.15-1-3.3-1.52a73.73,73.73,0,0,0-7.27-2.75A53.47,53.47,0,0,0,686,106.68v-12c0-1.29-.63-3.77-3-3.91a3.34,3.34,0,0,1-2.37-1.22,3.84,3.84,0,0,1-1-2.67,4.21,4.21,0,0,1,4.4-4.12,2.24,2.24,0,0,1,1.08.27h2.55a4.17,4.17,0,0,0-3.63-2.1,6,6,0,0,0-6.22,5.78,5.58,5.58,0,0,0,1.39,4,5.16,5.16,0,0,0,3.65,1.86c1.25.08,1.28,2,1.28,2.08v11.93a52.66,52.66,0,0,0-16,3c-2.29.77-4.49,1.63-6.53,2.54l-.07,0a90.33,90.33,0,0,0-9.07,4.66l-1.5.9a3.41,3.41,0,0,0-1,.94h0a3.5,3.5,0,0,0,2.85,5.52h65.32a3.07,3.07,0,0,0,1.65-5.65Zm-1.38,2.67a.26.26,0,0,1-.27.2H652.85a.67.67,0,0,1-.68-.52.65.65,0,0,1,.3-.78,87.71,87.71,0,0,1,10.29-5.41l1.19-.52c1.7-.72,3.49-1.4,5.34-2a49.38,49.38,0,0,1,15.41-2.73h.52a50.05,50.05,0,0,1,14.21,2.45,72,72,0,0,1,8,3.06l1.39.65a86.62,86.62,0,0,1,9.54,5.3A.25.25,0,0,1,718.44,121.22Z"/><path class="cls-3" d="M688.29,89.11a.94.94,0,0,0,.81-.57h-1.69A.93.93,0,0,0,688.29,89.11Z"/><path class="cls-6" d="M709.71,243.17c-1.94-3.28,11.45-38.1,4.62-56.88a1.13,1.13,0,0,0-.12-.21c-1.18-2-10.77-18.49-10.77-20.29s8.32-31.6,8.32-31.6H657.1s14.1,28.82,13.46,31.17-9.4,16.23-10.89,20.93c0,0-2.67,15.5,10,50.05a10.82,10.82,0,0,1-.37,8.3l-10,21.29s9.11,5.65,16.16,1.28c7.62-4.74,13,2.87,18.25,3,9.72.21,12.81-6.85,25.3-4.49A80.23,80.23,0,0,0,709.71,243.17Z"/><path class="cls-8" d="M660.52,111s12.38,13.58,28.18,12.94S713,111,713,111l18,19.35s-3.46,5.76-12.42,7.26-13.88,11.53-24.34,8.75-21.68,5.44-25.09-1.39-17.82-1.71-18.36-6.83c-.44-4.25-11.25-5-11.24-11.85Z"/><path class="cls-16" d="M616,400.88H590.49a14,14,0,0,1,.72-6.83c1.27-2.82,3.27-4.11,2.79-7.53a9.19,9.19,0,0,0,7.94,3c.45.73,2.91,4.64,4.42,5.73S615.44,396.06,616,400.88Z"/><path class="cls-16" d="M667.22,400.88H641.76a14,14,0,0,1,.72-6.83c1.27-2.82,3.27-4.11,2.79-7.53a9.19,9.19,0,0,0,7.94,3c.45.73,2.91,4.64,4.42,5.73S666.71,396.06,667.22,400.88Z"/><path class="cls-16" d="M578.88,251.69s-8.63,2,.56,47.4c6.82,33.67,6.29,30.44,5,43.83s11.28,48.6,11.28,48.6l6.2-.49s-1.45-69.6,5.85-112.2C612.57,250.81,578.88,251.69,578.88,251.69Z"/><path class="cls-10" d="M609.34,249.92s19.89,94.9,43.87,139.64c0,0-1,1.47-3.76,1-1.47-.22-4.12-2.72-4.12-2.72S612.19,352.66,613.16,339s-57.91-73.14-31.06-91.12C599,236.59,609.34,249.92,609.34,249.92Z"/><path class="cls-4" d="M581.27,187.77c1.37-1.35,3.05-6.41,2.64-13.88l.66.09,11,1.6s0,.12,0,.32c0,.93,0,3.73.1,6.38s.39,4.94.94,5.47C597.51,187.83,589.54,194.3,581.27,187.77Z"/><path class="cls-21" d="M614.76,229.16c-.15,13.21-.48,28.25-2.54,31.14s-32.3.15-36-3.75c-2.33-2.47,0-7.68,2.63-13.63h0a62.76,62.76,0,0,0,3.94-10.75c.78-3.45-3.36-14.76-5-25.78-.71-4.85-.91-9.66,0-13.7,1.16-5,4.26-7.39,8-8a2.87,2.87,0,0,0-.26.73s5.52,5.16,10.92,2.2c2.66,1.52,6.2,3.32,7.71,5.49C611.56,203.67,614.91,216,614.76,229.16Z"/><path class="cls-24" d="M683.64,174.66l-35.46-11a2.49,2.49,0,0,0-3.11,1.64l-16.13,51.83a2.49,2.49,0,0,0,1.63,3.11l35.46,11a2.48,2.48,0,0,0,3.11-1.63l16.13-51.83A2.49,2.49,0,0,0,683.64,174.66ZM663.08,177a2,2,0,0,1,1.21-3.9,2,2,0,0,1-1.21,3.9Z"/><path class="cls-25" d="M677.92,174.64l-25.08-7.81a6.53,6.53,0,0,0-8.15,4.27L632,211.81A6.52,6.52,0,0,0,636.3,220l25.09,7.81a6.53,6.53,0,0,0,8.15-4.28l12.66-40.7A6.52,6.52,0,0,0,677.92,174.64ZM663.08,177a2,2,0,0,1,1.21-3.9,2,2,0,0,1-1.21,3.9Z"/><path class="cls-24" d="M672.22,188.08l-23-7.16a1,1,0,0,1-.63-1.19h0a1,1,0,0,1,1.2-.63l23,7.15a1,1,0,0,1,.63,1.2h0A1,1,0,0,1,672.22,188.08Z"/><path class="cls-24" d="M671,192.25,647.84,185a.83.83,0,0,1-.56-1.05l.07-.22a.84.84,0,0,1,1-.55l23.21,7.22a.85.85,0,0,1,.55,1.06l-.06.21A.85.85,0,0,1,671,192.25Z"/><rect class="cls-24" x="657.43" y="179.05" width="1.91" height="25.99" rx="0.84" ry="0.84" transform="matrix(0.3, -0.95, 0.95, 0.3, 279.4, 763.63)"/><path class="cls-24" d="M650.55,218c-.42-.13-.54-.47-.36-1l.36-1.16a8,8,0,0,1-2.3-1.24c-.94-.74-1.31-1.44-1.1-2.11a1,1,0,0,1,.59-.71,1.31,1.31,0,0,1,1,0,3.75,3.75,0,0,1,.83.57l.89.69a5.44,5.44,0,0,0,1.51.74,2.23,2.23,0,0,0,1.73-.16,2.13,2.13,0,0,0,1.13-1.31c.26-.85-.11-1.7-1.13-2.55l-2.83-2.33a3.56,3.56,0,0,1-.79-3.64,3.88,3.88,0,0,1,2-2.39,5.09,5.09,0,0,1,3.14-.41l.28-.9c.18-.55.47-.76.88-.63s.51.39.45.84c0,0-.12.36-.33,1a6.56,6.56,0,0,1,1.93,1.09c.74.61,1,1.22.82,1.84a1.09,1.09,0,0,1-.58.69,1.34,1.34,0,0,1-.93,0,4.36,4.36,0,0,1-1.12-.75,4.34,4.34,0,0,0-1.32-.81,2.39,2.39,0,0,0-1.52,0,1.69,1.69,0,0,0-1,1.13,1.21,1.21,0,0,0,.23,1.22,12.78,12.78,0,0,0,1.36,1.21,16.58,16.58,0,0,1,2.69,2.47,3.72,3.72,0,0,1,.5,3.48,4.53,4.53,0,0,1-2.15,2.75,5.28,5.28,0,0,1-3.56.53l-.38,1.23C651.28,217.91,651,218.12,650.55,218Z"/><path class="cls-25" d="M663,177.35a2.46,2.46,0,1,1,3.09-1.62A2.47,2.47,0,0,1,663,177.35Zm1.21-3.89a1.61,1.61,0,1,0,1.07,2A1.61,1.61,0,0,0,664.16,173.46Z"/><path class="cls-6" d="M665,173.5l-.4-.05c0-.12.38-11.88-5.53-15.26-4-2.27-5.37-5.25-4.69-6.91.44-1.07,1.7-1.45,3.37-1C662.22,151.46,667.27,161.1,665,173.5Zm-8.54-23a1.66,1.66,0,0,0-1.7.95c-.63,1.51.89,4.32,4.51,6.39,2.55,1.46,4.34,4.63,5.2,9.18a32.88,32.88,0,0,1,.49,4c1.22-11-3.28-19.28-7.31-20.35A4.59,4.59,0,0,0,656.46,150.49Z"/><path class="cls-17" d="M595.71,182.28c-4.38-.29-9.84-5.49-9.84-5.49,4.55-1.19,7.68-1.33,9.74-.89C595.6,176.83,595.58,179.63,595.71,182.28Z"/><path class="cls-4" d="M600.08,175.86s-13.17,6.09-16.84-2.17-7.83-13,.43-17.27,11.29-1.82,13.19.64S603.41,174.07,600.08,175.86Z"/><path class="cls-11" d="M593.41,208.68S593,235,578.88,242.92a62.76,62.76,0,0,0,3.94-10.75c.78-3.45-3.36-14.76-5-25.78,1.7-3.16,3.6-5,5.47-4.56C592.32,204,593.41,208.68,593.41,208.68Z"/><path class="cls-4" d="M651,226.54s-2.11-.93-3.17-.22c0,0-27.13,1.29-34.49-1.16S591,192.51,591,192.51c-9.24-6.78-10.53,7.21-12,12.33s15.53,28.76,29.62,31.49,42-6.94,42-6.94,4.12,3,5.76,2.89,6.11-2.14,6.11-2.14Z"/><path class="cls-21" d="M600.08,206.33c.29-.28-7.64-19.73-13.27-17.43s-12,13.89-6,26C580.77,214.91,590.55,215.87,600.08,206.33Z"/><path class="cls-10" d="M595.65,149.2c-1.9-5.11-10.39-1.63-16.77,0s-18.84,6.54-13.53,21.86-3.08,25.52,7.14,31.45c6.12,4.49,7.18,13.38,7.18,13.38.17-5,4.21-5.37,7.84-9.24s-1.38-8.5-2.79-11.88,1.36-7.51,1.36-7.51c3.2-2.63-2.08-7.33,1.32-12s-.66-9.27,4.78-11S595,155.2,595,155.2,597.55,154.31,595.65,149.2Z"/><path class="cls-10" d="M181.61,142.66c-8.77-12.87-4.56-20.41-4.56-20.41C185.08,127.36,181.75,141.91,181.61,142.66Z"/><path class="cls-26" d="M930.49,403.1H1.24A1.24,1.24,0,0,1,0,401.87H0a1.25,1.25,0,0,1,1.24-1.24H930.49a1.25,1.25,0,0,1,1.24,1.24h0A1.24,1.24,0,0,1,930.49,403.1Z"/></g></g></svg>