<?xml version="1.0" encoding="UTF-8" standalone="no"?>
<svg
   xmlns:dc="http://purl.org/dc/elements/1.1/"
   xmlns:cc="http://creativecommons.org/ns#"
   xmlns:rdf="http://www.w3.org/1999/02/22-rdf-syntax-ns#"
   xmlns:svg="http://www.w3.org/2000/svg"
   xmlns="http://www.w3.org/2000/svg"
   xmlns:xlink="http://www.w3.org/1999/xlink"
   xmlns:sodipodi="http://sodipodi.sourceforge.net/DTD/sodipodi-0.dtd"
   xmlns:inkscape="http://www.inkscape.org/namespaces/inkscape"
   version="1.1"
   id="Layer_1"
   x="0px"
   y="0px"
   viewBox="0 0 1138 498"
   style="enable-background:new 0 0 1138 498;"
   xml:space="preserve"
   sodipodi:docname="Vende productos de paÌdel en tu propia tienda especializada (1).svgz"><metadata
   id="metadata801"><rdf:RDF><cc:Work
       rdf:about=""><dc:format>image/svg+xml</dc:format><dc:type
         rdf:resource="http://purl.org/dc/dcmitype/StillImage" /></cc:Work></rdf:RDF></metadata><defs
   id="defs799" /><sodipodi:namedview
   pagecolor="#ffffff"
   bordercolor="#666666"
   borderopacity="1"
   objecttolerance="10"
   gridtolerance="10"
   guidetolerance="10"
   inkscape:pageopacity="0"
   inkscape:pageshadow="2"
   inkscape:window-width="640"
   inkscape:window-height="480"
   id="namedview797" />
<style
   type="text/css"
   id="style2">
	.st0{fill:#DEE8F7;}
	.st1{opacity:0.5;}
	.st2{fill:#FFFFFF;}
	.st3{fill:#EF908F;}
	.st4{fill:#3B61AB;}
	.st5{fill:#4265AD;}
	.st6{fill:#EA8788;}
	.st7{fill:#A93F40;}
	.st8{fill:#22254D;}
	.st9{fill:#EC6C68;}
	.st10{fill:#EE7068;}
	.st11{fill:#6E88C4;}
	.st12{opacity:0.3;}
	.st13{fill:#E85755;}
	.st14{fill:#16162E;}
	.st15{fill:#EB8989;}
	.st16{fill:#020203;}
	.st17{fill:#17162F;}
	.st18{fill:#3D509E;}
	.st19{fill:#BFD0ED;}
	.st20{fill:#EB6965;}
	.st21{fill:#F3A9A5;}
	.st22{fill:#006165;}
	.st23{fill:#1A2F53;}
	.st24{fill:#D85756;}
	.st25{fill:#F08787;}
	.st26{fill:#B03838;}
	.st27{opacity:0.17;}
	.st28{clip-path:url(#SVGID_2_);}
	.st29{opacity:0.84;fill:#008B7D;}
	.st30{fill:#95B1DD;}
	.st31{fill:#080913;}
	.st32{fill:#355994;}
	.st33{fill:#DCDE4D;}
	.st34{opacity:0.36;}
	.st35{fill:#EAEAEA;}
	.st36{fill:#D8D742;}
	.st37{fill:#DBDBDB;}
	.st38{fill:#98A6D5;}
	.st39{fill:#172843;}
	.st40{fill:#294C80;}
	.st41{clip-path:url(#SVGID_4_);}
	.st42{fill:none;stroke:#CFCECE;stroke-width:0.5;stroke-miterlimit:10;}
</style>
<path
   class="st0"
   d="M990.6,437.5L206,437.2c0,0-115.5-121.6-18.2-240.9c76.2-93.4,185.7-81.5,253.7-36.4  c28.9,19.2,84.5,85,160.8-24.6c27-38.9,69.6-66.2,116.6-82.6l3.9-1.3c6.6-2.2,13.3-4.2,20.1-6c1-0.3,2-0.5,3-0.8  c21.7-5.5,43.9-8.9,65.6-10.1c1.3-0.1,2.6-0.1,3.9-0.2c0.1,0,0.3,0,0.4,0c1,0,2-0.1,3-0.1c24.2-0.8,47.6,1.1,68.8,5.5  c1,0.2,2,0.4,3,0.7c4.1,0.9,8.2,2,12.1,3.1c1.3,0.4,2.6,0.8,3.9,1.1c70.8,21.9,107.2,77.3,42.5,162.4  C882.6,294.4,1117.3,315,990.6,437.5z"
   id="path4" />
<g
   class="st1"
   id="g50">
	<rect
   x="746.4"
   y="337.2"
   class="st2"
   width="241.6"
   height="1.6"
   id="rect6" />
	<g
   id="g48">
		<g
   id="g10">
			<path
   class="st2"
   d="M964.4,117.1H767.9c-14.5,0-26.4,13.2-26.4,29.4v262.1h4.9V146.5c0-13.2,9.6-23.9,21.5-23.9h196.5     c11.8,0,21.5,10.7,21.5,23.9v260.1h4.9V146.5C990.8,130.3,978.9,117.1,964.4,117.1z"
   id="path8" />
		</g>
		<g
   id="g28">
			<g
   id="g14">
				<path
   class="st2"
   d="M756.8,406.6h-28c-6,0-10.9,5.5-10.9,12.2v7.6h1.7v-7.6c0-5.7,4.1-10.3,9.2-10.3h28c5.1,0,9.2,4.6,9.2,10.3      v7.6h1.7v-7.6C767.7,412.1,762.8,406.6,756.8,406.6z"
   id="path12" />
			</g>
			<g
   id="g20">
				<ellipse
   class="st2"
   cx="717.9"
   cy="429.9"
   rx="4.4"
   ry="4.9"
   id="ellipse16" />
				<ellipse
   class="st2"
   cx="720"
   cy="429.9"
   rx="4.4"
   ry="4.9"
   id="ellipse18" />
			</g>
			<g
   id="g26">
				<path
   class="st2"
   d="M761.1,429.9c0-2.7,2-4.9,4.4-4.9c2.4,0,4.4,2.2,4.4,4.9c0,2.7-2,4.9-4.4,4.9      C763,434.8,761.1,432.6,761.1,429.9z"
   id="path22" />
				<ellipse
   class="st2"
   cx="767.5"
   cy="429.9"
   rx="4.4"
   ry="4.9"
   id="ellipse24" />
			</g>
		</g>
		<g
   id="g46">
			<g
   id="g32">
				<path
   class="st2"
   d="M1002,406.6h-28c-6,0-10.9,5.5-10.9,12.2v7.6h1.7v-7.6c0-5.7,4.1-10.3,9.2-10.3h28c5.1,0,9.2,4.6,9.2,10.3      v7.6h1.7v-7.6C1013,412.1,1008.1,406.6,1002,406.6z"
   id="path30" />
			</g>
			<g
   id="g38">
				<path
   class="st2"
   d="M958.8,429.9c0-2.7,2-4.9,4.4-4.9c2.4,0,4.4,2.2,4.4,4.9c0,2.7-2,4.9-4.4,4.9      C960.7,434.8,958.8,432.6,958.8,429.9z"
   id="path34" />
				<ellipse
   class="st2"
   cx="965.2"
   cy="429.9"
   rx="4.4"
   ry="4.9"
   id="ellipse36" />
			</g>
			<g
   id="g44">
				<path
   class="st2"
   d="M1006.3,429.9c0-2.7,2-4.9,4.4-4.9c2.4,0,4.4,2.2,4.4,4.9c0,2.7-2,4.9-4.4,4.9      C1008.3,434.8,1006.3,432.6,1006.3,429.9z"
   id="path40" />
				<path
   class="st2"
   d="M1008.4,429.9c0-2.7,2-4.9,4.4-4.9c2.4,0,4.4,2.2,4.4,4.9c0,2.7-2,4.9-4.4,4.9      C1010.4,434.8,1008.4,432.6,1008.4,429.9z"
   id="path42" />
			</g>
		</g>
	</g>
</g>
<path
   class="st3"
   d="M403.5,184.4c0,0-3.8,4.7-9.3,10c-6.2,6-14.5,12.6-21.8,13.9c-2,0.3-3.9,0.3-5.6-0.3c-3.7-1.2-7.4-3.6-10.9-6.6  c-10-8.6-18.4-21.5-18.4-21.5l5.2-5.9c0,0,11.7,8.7,19,13.3c2.9,1.8,5.1,3.1,5.6,2.8c1.8-0.8,33.3-22,33.3-22L403.5,184.4z"
   id="path52" />
<path
   class="st4"
   d="M403.5,184.4c0,0-3.8,4.7-9.3,10c-8.1,5.7-16.8,11.2-21.8,13.9c-2.1,1.1-3.7,1.8-4.3,1.7  c-3.9-0.2-12.2-5.5-12.2-5.5c-0.1-1.1-0.2-2.2-0.1-3.2c0.4-8,5.7-13.9,5.8-14.1c2.9,1.8,5.1,3.1,5.6,2.8c1.8-0.8,33.3-22,33.3-22  L403.5,184.4z"
   id="path54" />
<g
   id="g60">
	<path
   class="st5"
   d="M347.6,260.5c1.1,6.6,1.8,11.4,1.8,11.4c-8.1,3.5-17.3,5-26.3,5.2c-3,0.1-6,0.1-8.9-0.1   c-4.5-0.2-8.9-0.6-12.8-1.2c-11.7-1.6-20-4-20-4c0-12.2,3.3-22.1,7-30.2c4.2-9.2,8.9-16.2,10.2-21.9c1.6-7.1-1.8-23.8-4.4-34.2   c-1.3-5.3-2.3-8.9-2.3-8.9c-8.8-12.9-4.6-20.4-4.6-20.4s4.1-1.7,9.2-3.3c0,0,0.1,0,0.1,0c1.8-0.5,3.6-1.1,5.5-1.5   c1.9-0.4,3.9-0.8,5.7-0.9c5-0.4,5.3-11.8,5.3-11.8s2-0.9,6.9-0.8c3,0.1,6.1,0.8,6.1,0.8s0,9,4.2,10.8c2.2,1,6.3,2.7,10.3,4.4   c0,0,0,0,0,0c0.1,0.1,0.3,0.1,0.4,0.2l1.3,0.6c0.6,0.2,1.2,0.5,1.7,0.7c0.3,0.1,0.6,0.2,0.8,0.4l1.3,0.6c3,1.3,5.2,2.2,5.2,2.2   c1.9,4.8-4.7,15.7-4.7,15.7c0.2,0.7,0.4,1.5,0.5,2.4c0,0.1,0,0.3,0,0.4c0.2,3.5-0.4,8.4-1.5,13.7c-1.8,9.4-4.6,20.1-5.3,27.3   c-0.2,2.5-0.2,4.6,0.2,6.1c0,0.1,0,0.1,0.1,0.2c0.3,0.8,0.6,2,0.9,3.3C343.4,235.4,346,250.2,347.6,260.5z"
   id="path56" />
	<path
   class="st5"
   d="M356,432.8l-31.1-20.2c-2.1-1.4-3.4-3.7-3.4-6.3l1.9-156.4c0-1.4-3.1-2.8-4.5-2.8c-1.4,0-5.4,0.6-5.4,1.9   l3.6,158.2c0,1.8-0.8,3.4-2.3,4.4l-32.4,21.1c-0.9,0.6-0.5,2,0.6,2l0,0l33-14.5c2-0.9,4.2-0.9,6.2,0l33,14.5   C356.5,434.8,356.9,433.4,356,432.8z"
   id="path58" />
</g>
<path
   class="st3"
   d="M423.1,162.4c0,0-9.9,10.9-21,6.6c0,0-1.3-6.3-1.3-10.6c0-0.5,0-1,0-1.5c-0.1-4.8-0.2-7.5-0.2-7.5s0,0,0,0  c0.5-0.2,17.1-7,17-6.4C417.3,155.9,423.1,162.4,423.1,162.4z"
   id="path62" />
<path
   class="st6"
   d="M415.9,146c-1.6,3-7.1,8.7-15.2,10.9c-0.1-4.8-0.2-7.5-0.2-7.5s0,0,0,0C401,149.2,416.4,145.1,415.9,146z"
   id="path64" />
<path
   class="st3"
   d="M397.1,148.8c0,0,18.6,4.4,21.2-7.3c2.5-11.6,6.7-18.9-5.1-22.2c-11.8-3.3-15.1,0.6-16.9,4.3  C394.5,127.3,392.3,147.4,397.1,148.8z"
   id="path66" />
<path
   class="st7"
   d="M417.6,144.7c0.3,0.2,4.3,1.4,11.8-13.7c1.2-2.4,2-7.5-0.8-12c-2.8-4.5-12.6-8.1-20.8-9.6  c-8.2-1.6-10.1,3-12.1,7.7c-2,4.9-7.9,8.8-7.9,8.8c7.1,3.9,15.5-1.7,18.5-0.8c2.9,0.9,4,5.6,4.2,7c0.2,1.5,0.6,2.7,4.3,1.4  c3.7-1.3,1.7,5.2,1.1,6.5C416,140,415.5,143.3,417.6,144.7z"
   id="path68" />
<path
   class="st8"
   d="M465.5,434.8h11.3c2.4,0,5-2.4,5.6-6.7c0.7-4.3,5.5-6.7,6.6-10.2c1.1-3.5-4.3-8.5-4.3-8.5l-0.9-1.2l-0.9-1.2  l-8.9,2.1c0,0-0.2,2.1-0.4,4.8c-0.1,2-0.1,4.2,0,6.2c0.3,4.7-1.3,9.8-5.5,10.7C463.8,431.8,465.5,434.8,465.5,434.8z"
   id="path70" />
<path
   class="st8"
   d="M387.1,434.8H417c0.3-0.1,0.5-0.1,0.6-0.2c2-1,1.4-8.6,1.1-11c0-0.4-0.1-0.7-0.1-0.7s-10.5-8.4-12-2  c0,0.2-0.1,0.4-0.2,0.6v0c-1.8,6-10,8.8-14.7,9.5C388.2,431.7,387.3,433.8,387.1,434.8z"
   id="path72" />
<path
   class="st9"
   d="M393.1,262.5c0,0,1.6,19.9,3.5,43.8c2.5,32.5,5.6,72.4,5.9,80c0.5,13.1,2.6,34.1,2.6,34.1s5,5,15,2.9  c0,0,8.9-30,11.4-61.7c0-0.5,0.1-1,0.1-1.6c2.4-32.3,6-100.3,6-100.3L393.1,262.5z"
   id="path74" />
<path
   class="st10"
   d="M393.1,262.5c0,0,1.6,19.9,3.5,43.8l34.9,55.3c0-0.5,0.1-1,0.1-1.6c2.4-32.3,6-100.3,6-100.3L393.1,262.5z"
   id="path76" />
<path
   class="st9"
   d="M400.4,264.9c0,0,28.8,72.1,47.7,106c18.9,33.9,24.8,43.3,24.8,43.3s10.8-4.3,11.8-7.3c0,0-7.2-65.4-19.9-81.3  c-7.2-9-15.6-36-16-45.5c-0.4-9.5-2.6-28.2-2.6-28.2L400.4,264.9z"
   id="path78" />
<path
   class="st11"
   d="M445.3,264.3c-7.9,4.7-15.3,8.1-23.9,9.9c-10.2,2.2-22.7,1.3-26.9,1.8c-0.4,0.1-0.9-0.1-1.2-0.3  c-0.3-0.2-2-12.8-3.5-28.8c-0.1-0.6-0.1-1.3-0.2-1.9l0-0.2c-0.2-1.7-0.3-3.3-0.5-5.1c-0.2-2.4-0.4-4.8-0.6-7.3  c-0.1-1.9-0.3-3.8-0.4-5.7c0-0.4-0.1-0.8-0.1-1.2c-0.5-7-0.8-14-1-20.1c0-1,0-2,0-3v-0.1c0-4.1,0.1-7.7,0.4-10.8  c0.1-0.8,0.1-1.5,0.2-2.2c1.2-9.3,5.7-15.8,9.9-20.7l3.5-3.8c3.9,0.3,8-0.3,11.9-2.8c4.2-2.7,8.7-5.6,9.6-5.1  c6.5,3.8,11.6,13.4,15.1,26.1c1.9,6.8,3.3,14.4,4.2,22.5c0.3,3.1,0.6,6.2,0.8,9.4c0.9,17.1,3.6,31.7,5.1,40.2c0.4,2.4,0.8,4.4,1,5.7  C448.8,262,446.4,263.6,445.3,264.3z"
   id="path80" />
<path
   class="st4"
   d="M415.7,184.4c0,0-3.6,30.9-27.2,48.1c-0.1-1.9-0.3-3.8-0.4-5.7c0-0.4-0.1-0.8-0.1-1.2c-0.5-7-0.8-14-1-20.1  c0-1,0-2,0-3v-0.1c0-3.6,0.1-6.9,0.4-9.7C394.6,188,403.9,184.9,415.7,184.4z"
   id="path82" />
<path
   class="st10"
   d="M340.7,224.5c-2.6-7.8,7.5-35.9,6.4-47.7c0-0.1-0.6-18-1-20.4l-5.6-2.4c0,0,0.9,20-10.7,19.5  c-29.5-1.1-27.7-22.1-27.7-22.1s-2.3,0.5-3.1,0.8c-0.6,0.2-2.4,0.7-2.4,0.7l-0.1,0v0l-2.3,32.6c2.5,10.4,6,27,4.4,34.2  c-1.3,5.7-19.3,31.8-17.2,51.7c6.1,9.2,29.2,9.4,39.4,9.4c10.1,0,22.2-2.3,29.8-4.6C348.5,264,342.5,230,340.7,224.5z"
   id="path84" />
<path
   class="st3"
   d="M384.5,220.9c-3.3,2-5.8,3.4-7.3,4c-4,1.4-10.3,2.2-17.2,2.6c-15.1,0.9-32.7-0.1-32.7-0.1  c-2.7,1.9-7.3,1.6-11.3-0.6c-3.9-2.2-3.1-1.3-5.9-2.8c-1.4-0.8-1.3-1.8-0.8-2.7c0.5-0.9,1.5-1.6,2.5-1.9c5.3-1.4,7.6-1,9.8-0.3  c-0.5-0.7-0.7-1.4-0.6-1.8c0.2-0.6,4,1.7,5.7,2.7c5.7,0.8,19.1-3.2,29.1-6.5c6-2,10.8-3.8,11.9-4.3c0.9-0.4,3.8-3.3,7.4-7.2  C377.4,208.6,380.4,215.7,384.5,220.9z"
   id="path86" />
<path
   class="st11"
   d="M418.3,198.1c-11.8,8.3-33.7,23.9-39.5,27.1c-3.7,2-8.5,6-15.4,7.6c-10-6.8-7.6-19.2-7.6-19.2  c6-2,10.8-3.8,11.9-4.3c3-1.2,27.4-30,27.4-30s9.3-11.9,17.7-10c7.3,1.7,10.4,7.1,11.7,12.3C426.1,187.8,423.6,194.4,418.3,198.1z"
   id="path88" />
<g
   class="st12"
   id="g96">
	<path
   class="st2"
   d="M763.5,81h-40.2c0-11.5,8.6-20.8,19.4-21.2V45.4c1-0.3,2-0.5,3-0.8v15.4C755.7,61.1,763.5,70.1,763.5,81z"
   id="path90" />
	<path
   class="st2"
   d="M836.4,81h-40.2c0-12.6,8.6-22.8,19.4-23.2V34.3c1,0,2-0.1,3-0.1v23.7C828.6,59.3,836.4,69.1,836.4,81z"
   id="path92" />
	<path
   class="st2"
   d="M908.2,81H868c0-11.5,8.6-20.8,19.4-21.2V39.7c1,0.2,2,0.4,3,0.7v19.5C900.4,61.1,908.2,70.1,908.2,81z"
   id="path94" />
</g>
<g
   id="g106">
	<g
   id="g102">
		<path
   class="st2"
   d="M966.1,152.6c-2.6-1.6-6.1-3.7-10.2-5.6c-0.1-0.1-0.2-0.1-0.3-0.2c-0.5-0.3-1.1-0.5-1.7-0.8    c-2.3-1-4.7-1.9-7.3-2.7c-2-0.6-4-1.2-6.1-1.6c-2.7-0.6-5.5-0.9-8.3-1v-11.9c0-1.3-0.6-3.8-3-3.9c-1.2-0.1-1.9-0.7-2.4-1.2    c-0.7-0.8-1-1.8-1-2.7c0.2-2.5,1.9-4.1,4.4-4.1c0.4,0,0.7,0.1,1,0.3h2.6c-1.1-1.7-2.5-2.1-3.6-2.1c-3.5,0-5.9,2.3-6.2,5.8    c-0.1,1.3,0.4,2.9,1.4,4c1,1.1,2.2,1.8,3.7,1.9c1.2,0.1,1.3,2,1.3,2.1v11.9c-2.7,0-5.4,0.3-8.1,0.8c-2.7,0.5-5.4,1.3-7.9,2.1    c-2.3,0.8-4.5,1.7-6.6,2.6c-0.2,0.1-0.3,0.1-0.4,0.2c0,0-0.1,0-0.1,0.1h0c-4,1.8-7.5,3.8-10,5.3c-1.3,0.8-2,2.4-1.5,3.9    c0.4,1.5,1.8,2.5,3.4,2.5h32.2h0.4h32.7c1.4,0,2.6-0.9,2.9-2.2C967.8,154.7,967.2,153.3,966.1,152.6z M964.7,155.2    c-0.1,0.2-0.2,0.2-0.3,0.2h-31.3h-3.4h-30.7c-0.5,0-0.6-0.4-0.7-0.5c0-0.2-0.1-0.5,0.3-0.8c2-1.2,4.5-2.6,7.4-4.1h0    c0.4-0.2,0.9-0.4,1.4-0.6c0.5-0.2,1-0.5,1.5-0.7c2-0.9,4.2-1.8,6.5-2.5c2.6-0.9,5.4-1.6,8.2-2.1c2.4-0.4,4.8-0.7,7.2-0.7    c0.2,0,0.3,0,0.5,0c2.6,0,5.2,0.3,7.7,0.8c2.2,0.4,4.4,1,6.6,1.6c2.8,0.9,5.5,1.9,8,3.1c0.6,0.3,1.2,0.6,1.8,0.9    c0.5,0.2,1,0.5,1.5,0.7h0c3,1.5,5.6,3.1,7.6,4.4C964.6,154.9,964.8,155,964.7,155.2z"
   id="path98" />
		<path
   class="st2"
   d="M934.5,123.1c0.4,0,0.7-0.3,0.8-0.6h-1.7C933.8,122.9,934.1,123.1,934.5,123.1z"
   id="path100" />
	</g>
	<path
   class="st11"
   d="M965.6,238.8c-1.2-3.4-7.8-30.3-8.2-30.3c-0.2-2.4-0.5-8.2-0.1-15.8c0.5-10,2.6-26.6,1.1-31.1   s-1.7-9.1-2.4-12.9c-0.7-3.7-2.2-5-3.2-5.2s-2.3,2.2-2.3,2.2s-6.4,9-19.8,8.7c-13.5-0.4-18.2-7.8-19.5-9.3   c-1.9-2.3-4.2-0.7-5.4,0.7c0,0-0.6,17.7-1.4,23.4c-0.8,5.8-0.8,8.9,0.5,14.4c1.3,5.5,0.5,23.7,0.5,23.7l0,0l-17.1,73.3   c0,0,20.1,6.6,42.5,6.2c22.5-0.4,22.7,0.1,28-1.4c5.3-1.6,8.2-2.4,11.2-2.6c3-0.2,7.6-1.6,7.5-3.4S966.8,242.2,965.6,238.8z"
   id="path104" />
</g>
<g
   id="g136">
	<g
   id="g134">
		<path
   class="st13"
   d="M928.6,434.8h-41.1c-8.7,0-15.8-7.1-15.8-15.8v-44.5c0-8.7,7.1-15.8,15.8-15.8h41.1    c8.7,0,15.8,7.1,15.8,15.8V419C944.4,427.7,937.3,434.8,928.6,434.8z"
   id="path108" />
		<path
   class="st10"
   d="M890.5,434.8H842c-6.7,0-12.1-5.4-12.1-12.1v-51.9c0-6.7,5.4-12.1,12.1-12.1h48.5c6.7,0,12.1,5.4,12.1,12.1    v51.9C902.7,429.4,897.2,434.8,890.5,434.8z"
   id="path110" />
		<g
   id="g120">
			<path
   class="st13"
   d="M843.1,379.9c0-1.3,1-2.3,2.3-2.3c1.3,0,2.3,1,2.3,2.3c0,1.3-1,2.3-2.3,2.3     C844.1,382.2,843.1,381.1,843.1,379.9z"
   id="path112" />
			<path
   class="st13"
   d="M880.5,379.9c0-1.3,1-2.3,2.3-2.3c1.3,0,2.3,1,2.3,2.3c0,1.3-1,2.3-2.3,2.3     C881.6,382.2,880.5,381.1,880.5,379.9z"
   id="path114" />
			<path
   class="st13"
   d="M843.1,413.6c0-1.3,1-2.3,2.3-2.3c1.3,0,2.3,1,2.3,2.3c0,1.3-1,2.3-2.3,2.3     C844.1,416,843.1,414.9,843.1,413.6z"
   id="path116" />
			<path
   class="st13"
   d="M880.5,413.6c0-1.3,1-2.3,2.3-2.3c1.3,0,2.3,1,2.3,2.3c0,1.3-1,2.3-2.3,2.3     C881.6,416,880.5,414.9,880.5,413.6z"
   id="path118" />
		</g>
		<g
   id="g130">
			<path
   class="st7"
   d="M913,379.9c0-1.3,0.6-2.3,1.3-2.3c0.7,0,1.3,1,1.3,2.3c0,1.3-0.6,2.3-1.3,2.3     C913.6,382.2,913,381.1,913,379.9z"
   id="path122" />
			<path
   class="st7"
   d="M934.8,379.9c0-1.3,0.6-2.3,1.3-2.3c0.7,0,1.3,1,1.3,2.3c0,1.3-0.6,2.3-1.3,2.3     C935.4,382.2,934.8,381.1,934.8,379.9z"
   id="path124" />
			<path
   class="st7"
   d="M913,413.6c0-1.3,0.6-2.3,1.3-2.3c0.7,0,1.3,1,1.3,2.3c0,1.3-0.6,2.3-1.3,2.3C913.6,416,913,414.9,913,413.6     z"
   id="path126" />
			<path
   class="st7"
   d="M934.8,413.6c0-1.3,0.6-2.3,1.3-2.3c0.7,0,1.3,1,1.3,2.3c0,1.3-0.6,2.3-1.3,2.3     C935.4,416,934.8,414.9,934.8,413.6z"
   id="path128" />
		</g>
		<path
   class="st13"
   d="M839.8,358.9c0,0,23.5-6.3,90,0.1L839.8,358.9z"
   id="path132" />
	</g>
</g>
<g
   id="g308">
	<path
   class="st8"
   d="M542.4,233.6c-0.1-0.5-1.2-5.7-9.3-4.8c0,0,4-0.1,5,1.5c0,0-3-1.8-5.1-0.7c-2.1,1-2.8,5-2.7,6.3   c0.2,1.3,2,5.2,3.4,5.3c0.5,0.1,1.1-0.1,1.7-0.2c-0.3,0.6-0.6,1.3-0.8,2.1c-2.3,7.1,2,13,4.6,11.9c1.7-0.7,2.6,2.2,2.6,2.2l15-16.2   C556.7,240.9,548.6,228.9,542.4,233.6z"
   id="path138" />
	<path
   class="st3"
   d="M603,310.3c0,0-3.7-2.4-6.1-1.9c-0.5-0.2-1.5-0.6-1.2-0.8c0.3-0.3,1.2-1.2,1.1-1.5c-0.1-0.3-1,0.4-2.3,0.7   c-1.3,0.2-1.7,0.5-2,1c-0.3,0.5-1.4,0.7-1.4,0.7l0,0c-0.7-0.1-1.2-0.2-1.6-0.2c-1.1-0.5-2.6-1.1-4.2-1.8   c-4.7-2.1-10.6-4.9-11.9-6.4c-3-3.3-6.6-14.5-9.9-21.9c-0.2-0.4-0.3-0.8-0.5-1.2c-0.1-0.3-0.3-0.6-0.4-0.8c0-0.1-0.1-0.1-0.1-0.2   c-0.2-0.3-0.3-0.6-0.4-0.8c0,0,0-0.1-0.1-0.1c-0.6-1.2-1.9-2.8-1.9-2.8c-0.7-0.8-1.5-1.1-2.1-0.9c0,0-0.9,0.4-1.9,1.5   c-0.2,0.2-0.5,0.5-0.7,0.7c-0.2,0.1-0.3,0.3-0.4,0.5c-0.8,1-1.6,2.4-2,4.1c-0.4,1.3-0.6,2.8-0.5,4.5c0.1,2.8,1.5,6.4,3.5,10   c0.1,0.2,0.2,0.3,0.3,0.5c3.8,6.8,9.7,13.5,13.3,15.7c2.4,1.5,8.3,2.4,13.3,2.9c2.1,0.2,4.1,0.4,5.5,0.5c0.1,0,0.2,0,0.4,0.1   c1.3,0.2,3.9,0.7,6.3,1.5c3.5,1.1,5.4-1.2,6.9-1.9C603.5,311.1,603,310.3,603,310.3z"
   id="path140" />
	<path
   class="st8"
   d="M561.9,428.5l-3.6,1.4c0,0-15.8-21.9-17.8-41.2c-0.3-3.4-0.2-6.8,0.5-9.9c0,0-0.2-0.9-0.4-2.4   c-0.1-0.7-0.3-1.6-0.5-2.6c-0.5-2.9-1.2-7-2-11.6c-1.9-10.6-4.3-24.1-6.1-34l1-0.3l10.6-3.4l2.2-7l7.9-2.1c0,0,1.8,3.5,3.3,19.8   c0.3,2.1,0.6,4.5,0.8,7.1c0.6,7.8,0.7,17.5-0.8,28.6c-0.4,2.8-0.8,5.8-1.4,8.8c-0.4,2.2-0.5,5.2-0.3,8.7   C556.1,404,561.9,428.5,561.9,428.5z"
   id="path142" />
	<path
   class="st14"
   d="M557.7,342.3l-17.2,34.1c-0.1-0.7-0.3-1.6-0.5-2.6c-0.5-2.9-1.2-7-2-11.6c-1.9-10.6-4.3-24.1-6.1-34l1-0.3   l10.6-3.4l2.2-7l7.9-2.1c0,0,1.8,3.5,3.3,19.8C557.3,337.3,557.5,339.7,557.7,342.3z"
   id="path144" />
	<path
   class="st8"
   d="M550.2,319.8l-0.4-3.4c-6.7,1.8-24.4-4.9-24.4-4.9s-6.4,5.7-5.6,19.2c0.4,6.6,1.2,34.8,2,43.1   c0.3,3,0.5,5.2,0.6,6c0,0,0,0,0,0c0,0.3-0.1,0.5-0.2,0.7c-1.2,2-2.1,4-2.9,6.1c-7.7,20.6,1.2,46,1.2,46l2.3-0.9   c0,0,5.1-28.2,9.2-40.7c0.7-2.1,1.4-3.8,2-4.8c1.8-2.9,3.5-7.6,5-13.3c2.9-10.6,5.2-24.5,6.7-35.2   C545.8,337.9,550.2,319.8,550.2,319.8z"
   id="path146" />
	<path
   class="st3"
   d="M555.9,278.5c-1.9,1.3-4.3,2.3-7.3,2.9c-11.2,2.3-15.2-7.3-16.7-13.8c1.5-0.8,3-1,3.8-1.1   c0.8-0.1,1.7-0.1,2.4-0.1c1.3-0.9,3.3-4.8,3.8-10.9l0.5,0.2l8.7,2.7c0,0-0.5,2.8-0.8,5.4c-0.2,2.1-0.3,4,0.1,4.5   c0.7,0.2,1.1,0.3,1.1,0.3s0,0,0,0C551.8,268.7,554.2,273,555.9,278.5z"
   id="path148" />
	<path
   class="st15"
   d="M551.2,258.3c0,0-0.5,2.8-0.8,5.4c-5-0.6-7.1-5.4-8-8.1L551.2,258.3z"
   id="path150" />
	<path
   class="st3"
   d="M552.6,261c0,0-11.8-1-11.1-8.3c0.7-7.3-0.3-12.4,7.3-12.1c7.6,0.3,8.8,3.3,9.1,5.8   C558.3,248.8,555.7,261,552.6,261z"
   id="path152" />
	<path
   class="st9"
   d="M562.9,276.9c-0.1-0.3-0.3-0.6-0.4-0.8c0-0.1-0.1-0.1-0.1-0.2c-0.2-0.3-0.3-0.6-0.4-0.8c0,0,0-0.1-0.1-0.1   c-0.6-1.2-1.9-2.8-1.9-2.8c-0.4-0.5-0.9-0.9-1.3-1.1c0,0,0,0,0,0c0,0-2-1.4-7.1-2.5c0.1,0.3,3.2,7.4,2.7,9.1   c-0.5,1.7-15.8-1.4-16.7-2.5c-0.8-0.9-1.5-6-1.8-7.9c-0.1-0.5-0.1-0.8-0.1-0.8s-5.5,0.1-8.4,1.7c0,0,1.6,2.4,2.4,5.2   c0.1,0.3,0.1,0.5,0.2,0.8c0.1,0.6,0.2,1.1,0.3,1.7c0.1,0.7-0.2,1.5-0.7,2.2c-0.5,0.7-1.1,1.4-1.9,2.1c-0.5,0.5-1,1-1.6,1.6   c0.1,1.2,0.4,2.6,0.6,4.3c0.5,3,0.9,6.7,1.1,10.6c0.1,1.5-0.2,3-0.8,4.4c-0.2,0.5-0.5,1.1-0.9,1.6c-2.7,4.1-7.3,12-5.4,16.3   c0.2,1,2.6,1.8,6.1,2.4c10.4,1.7,30.4,1,29.3-2.3c0,0,1.6-26.4,3.6-32.9c0.1-0.2,0.1-0.5,0.2-0.7c0.5-2.3,0.1-4.6-0.4-6.6   C560.4,277.9,562,277.3,562.9,276.9z"
   id="path154" />
	<path
   class="st8"
   d="M558,242.2c-1.6-2.4-3-2-3.9-1.5c-6.1-4.2-10.8,0.6-10.8,0.6c-1.3,5.2-5.4,7.8-5.4,7.8s2,1.5,7.1,0.8   c1.6-0.2,3-1.2,4.3-2.4c-2.3,3.2-5.3,5.3-5.3,5.3c6.2-2.1,9.4-10.1,9.7-11c0.7,0.7,1.9,2.3,2.2,3.7c0.4,1.9,0.3,5.8,1.4,5.8   C557.4,251.4,560.4,245.8,558,242.2z"
   id="path156" />
	<path
   class="st10"
   d="M533.1,304.3c-1.4,3.4-2.9,11.7-6.4,17.2c-3.5-0.5-5.9-1.4-6.1-2.4c-1.9-4.3,2.7-12.2,5.4-16.3   c0.3-0.5,0.6-1,0.9-1.6c0.6-1.4,0.9-2.9,0.8-4.4c-0.1-3.9-0.6-7.6-1.1-10.6c0.6-1.3,0.9-2,0.9-2S535.4,298.9,533.1,304.3z"
   id="path158" />
	<path
   class="st14"
   d="M533.9,434.6h-18.3c0,0-0.4-2.8,0.5-4.9c0.9-2,2.4-3,2-5.4c1.2,1.2,3.1,2.5,5.7,2.2c0.3,0.5,2.1,3.3,3.2,4.1   C528.2,431.5,533.5,431.2,533.9,434.6z"
   id="path160" />
	<path
   class="st14"
   d="M573.2,434.6h-18.3c0,0-0.7-2.9,0.5-4.9c1.1-1.8,0.7-2.8-0.1-4.2c0.8,0.3,1.9,0.6,3.1,0.6   c0.9-0.1,1.9-0.5,2.7-1c0.8,0.9,4.2,4.7,5.2,5.5C567.5,431.5,572.9,431.2,573.2,434.6z"
   id="path162" />
	<path
   class="st2"
   d="M549.8,256.7c0,0,0.2,1,2.6,1c0,0,2,0,2-1.1C554.4,256.6,552.5,255.8,549.8,256.7z"
   id="path164" />
	<g
   id="g298">
		<path
   class="st8"
   d="M571.3,324.3c0,0-0.9,1.5-1.4,2c-0.6,0.5-0.9,0.7-1.8-0.3c-0.9-1-3.1-2.8-2.3-3.5s2.5-1.5,3-1.9    c0.5-0.4,8.5-8.1,8.5-8.1l0.6,0.8l2.6,2.4L571.3,324.3z"
   id="path166" />
		<path
   class="st16"
   d="M566.2,324.2c-0.6-0.6-0.9-1.3-0.5-1.7c0.8-0.7,2.4-1.7,2.9-2c0.5-0.4,8.6-8,8.6-8l0.6,0.8    C577.8,313.2,566.3,324.2,566.2,324.2z"
   id="path168" />
		<path
   class="st5"
   d="M577.2,312.3c0,0,1.8-4.1,3.5-10.4c1.7-6.4,2.5-10.7,6-15s7.6-8.6,11.7-9.3c4.2-0.7,8.7-0.7,13.7,4.5    c3.6,3.7,4.5,9.7,3.5,13.4c-0.9,3.3-3.1,7.3-8.9,11c0,0-4.8,3.4-9.2,4.5c-2.5,0.6-9.4,1.9-11.3,2.6c-1.9,0.7-5.2,1.7-5.8,2.2    l-2.5-2L577.2,312.3z"
   id="path170" />
		<path
   class="st17"
   d="M577.2,312.3c0,0,1.8-4.1,3.5-10.4c1.7-6.4,1.9-9.5,5.5-15.4c2.9-4.8,8-8.3,12.2-9c4.2-0.7,8.7-0.7,13.7,4.5    c0.2,0.3-3.3-2.6-5.6-3c-0.1,0-5.4-0.9-9.3,1.1c-6.3,3.3-7.2,5.6-9.2,8.1c-3.7,4.8-4.4,11.3-6.2,16c-2.1,5.6-4,9.4-4,9.4    L577.2,312.3z"
   id="path172" />
		
			<ellipse
   transform="matrix(0.7242 -0.6896 0.6896 0.7242 -28.965 494.8352)"
   class="st16"
   cx="604.2"
   cy="283.6"
   rx="0.8"
   ry="0.6"
   id="ellipse174" />
		
			<ellipse
   transform="matrix(0.7242 -0.6896 0.6896 0.7242 -29.242 492.9362)"
   class="st16"
   cx="601.7"
   cy="283"
   rx="0.8"
   ry="0.6"
   id="ellipse176" />
		
			<ellipse
   transform="matrix(0.7242 -0.6896 0.6896 0.7242 -29.7365 491.1288)"
   class="st16"
   cx="599.2"
   cy="282.7"
   rx="0.8"
   ry="0.6"
   id="ellipse178" />
		
			<ellipse
   transform="matrix(0.7242 -0.6896 0.6896 0.7242 -31.1845 494.2211)"
   class="st16"
   cx="602.3"
   cy="286.1"
   rx="0.8"
   ry="0.6"
   id="ellipse180" />
		
			<ellipse
   transform="matrix(0.7242 -0.6896 0.6896 0.7242 -33.5713 493.1567)"
   class="st16"
   cx="599.8"
   cy="288.6"
   rx="0.8"
   ry="0.6"
   id="ellipse182" />
		
			<ellipse
   transform="matrix(0.7242 -0.6896 0.6896 0.7242 -33.4866 495.2938)"
   class="st16"
   cx="602.5"
   cy="289.5"
   rx="0.8"
   ry="0.6"
   id="ellipse184" />
		
			<ellipse
   transform="matrix(0.7242 -0.6896 0.6896 0.7242 -31.3956 496.3265)"
   class="st16"
   cx="604.8"
   cy="287.4"
   rx="0.8"
   ry="0.6"
   id="ellipse186" />
		
			<ellipse
   transform="matrix(0.7242 -0.6896 0.6896 0.7242 -31.9761 498.1589)"
   class="st16"
   cx="606.8"
   cy="289.1"
   rx="0.8"
   ry="0.6"
   id="ellipse188" />
		
			<ellipse
   transform="matrix(0.7242 -0.6896 0.6896 0.7242 -33.9992 497.2603)"
   class="st16"
   cx="604.7"
   cy="291.1"
   rx="0.8"
   ry="0.6"
   id="ellipse190" />
		
			<ellipse
   transform="matrix(0.7242 -0.6896 0.6896 0.7242 -36.063 496.3067)"
   class="st16"
   cx="602.5"
   cy="293.2"
   rx="0.8"
   ry="0.6"
   id="ellipse192" />
		
			<ellipse
   transform="matrix(0.7242 -0.6896 0.6896 0.7242 -37.951 495.4709)"
   class="st16"
   cx="600.5"
   cy="295.2"
   rx="0.8"
   ry="0.6"
   id="ellipse194" />
		
			<ellipse
   transform="matrix(0.7242 -0.6896 0.6896 0.7242 -37.3435 497.8474)"
   class="st16"
   cx="603.8"
   cy="295.6"
   rx="0.8"
   ry="0.6"
   id="ellipse196" />
		
			<ellipse
   transform="matrix(0.7242 -0.6896 0.6896 0.7242 -35.222 498.8251)"
   class="st16"
   cx="606"
   cy="293.4"
   rx="0.8"
   ry="0.6"
   id="ellipse198" />
		
			<ellipse
   transform="matrix(0.7242 -0.6896 0.6896 0.7242 -41.1648 492.2445)"
   class="st16"
   cx="594.8"
   cy="297.6"
   rx="0.8"
   ry="0.6"
   id="ellipse200" />
		
			<ellipse
   transform="matrix(0.7242 -0.6896 0.6896 0.7242 -40.699 494.2399)"
   class="st16"
   cx="597.6"
   cy="298"
   rx="0.8"
   ry="0.6"
   id="ellipse202" />
		
			<ellipse
   transform="matrix(0.7242 -0.6896 0.6896 0.7242 -39.4618 496.4157)"
   class="st16"
   cx="600.9"
   cy="297.5"
   rx="0.8"
   ry="0.6"
   id="ellipse204" />
		
			<ellipse
   transform="matrix(0.7242 -0.6896 0.6896 0.7242 -41.1022 497.3302)"
   class="st16"
   cx="601.2"
   cy="300.1"
   rx="0.8"
   ry="0.6"
   id="ellipse206" />
		
			<ellipse
   transform="matrix(0.7242 -0.6896 0.6896 0.7242 -42.6553 498.0197)"
   class="st16"
   cx="601.3"
   cy="302.3"
   rx="0.8"
   ry="0.6"
   id="ellipse208" />
		
			<ellipse
   transform="matrix(0.7242 -0.6896 0.6896 0.7242 -44.6878 498.0227)"
   class="st16"
   cx="600.3"
   cy="304.9"
   rx="0.8"
   ry="0.6"
   id="ellipse210" />
		
			<ellipse
   transform="matrix(0.7242 -0.6896 0.6896 0.7242 -45.9674 496.4327)"
   class="st16"
   cx="597.7"
   cy="305.7"
   rx="0.8"
   ry="0.6"
   id="ellipse212" />
		
			<ellipse
   transform="matrix(0.7242 -0.6896 0.6896 0.7242 -33.0467 499.6806)"
   class="st16"
   cx="608.2"
   cy="291.2"
   rx="0.8"
   ry="0.6"
   id="ellipse214" />
		
			<ellipse
   transform="matrix(0.7242 -0.6896 0.6896 0.7242 -34.5559 501.0303)"
   class="st16"
   cx="609.1"
   cy="293.7"
   rx="0.8"
   ry="0.6"
   id="ellipse216" />
		
			<ellipse
   transform="matrix(0.7242 -0.6896 0.6896 0.7242 -32.6555 502.2491)"
   class="st16"
   cx="611.6"
   cy="292"
   rx="0.8"
   ry="0.6"
   id="ellipse218" />
		
			<ellipse
   transform="matrix(0.7242 -0.6896 0.6896 0.7242 -34.3063 503.2176)"
   class="st16"
   cx="612"
   cy="294.5"
   rx="0.8"
   ry="0.6"
   id="ellipse220" />
		
			<ellipse
   transform="matrix(0.7242 -0.6896 0.6896 0.7242 -36.0058 503.7903)"
   class="st16"
   cx="611.9"
   cy="296.9"
   rx="0.8"
   ry="0.6"
   id="ellipse222" />
		
			<ellipse
   transform="matrix(0.7242 -0.6896 0.6896 0.7242 -36.52 502.0888)"
   class="st16"
   cx="609.5"
   cy="296.7"
   rx="0.8"
   ry="0.6"
   id="ellipse224" />
		
			<ellipse
   transform="matrix(0.7242 -0.6896 0.6896 0.7242 -36.9165 500.0676)"
   class="st16"
   cx="606.7"
   cy="296.2"
   rx="0.8"
   ry="0.6"
   id="ellipse226" />
		
			<ellipse
   transform="matrix(0.7242 -0.6896 0.6896 0.7242 -38.7238 500.9642)"
   class="st16"
   cx="607"
   cy="298.9"
   rx="0.8"
   ry="0.6"
   id="ellipse228" />
		
			<ellipse
   transform="matrix(0.7242 -0.6896 0.6896 0.7242 -39.9215 502.0499)"
   class="st16"
   cx="607.7"
   cy="300.9"
   rx="0.8"
   ry="0.6"
   id="ellipse230" />
		
			<ellipse
   transform="matrix(0.7242 -0.6896 0.6896 0.7242 -40.793 499.6676)"
   class="st16"
   cx="604.3"
   cy="300.8"
   rx="0.8"
   ry="0.6"
   id="ellipse232" />
		
			<ellipse
   transform="matrix(0.7242 -0.6896 0.6896 0.7242 -41.8716 500.9013)"
   class="st16"
   cx="605.3"
   cy="302.8"
   rx="0.8"
   ry="0.6"
   id="ellipse234" />
		
			<ellipse
   transform="matrix(0.7242 -0.6896 0.6896 0.7242 -43.2468 499.571)"
   class="st16"
   cx="603"
   cy="303.9"
   rx="0.8"
   ry="0.6"
   id="ellipse236" />
		
			<ellipse
   transform="matrix(0.7242 -0.6896 0.6896 0.7242 -47.4456 492.8854)"
   class="st16"
   cx="592.5"
   cy="305.8"
   rx="0.8"
   ry="0.6"
   id="ellipse238" />
		
			<ellipse
   transform="matrix(0.7242 -0.6896 0.6896 0.7242 -39.0817 498.7555)"
   class="st16"
   cx="604"
   cy="298.2"
   rx="0.8"
   ry="0.6"
   id="ellipse240" />
		
			<ellipse
   transform="matrix(0.7242 -0.6896 0.6896 0.7242 -42.4047 495.279)"
   class="st16"
   cx="598"
   cy="300.7"
   rx="0.8"
   ry="0.6"
   id="ellipse242" />
		
			<ellipse
   transform="matrix(0.7242 -0.6896 0.6896 0.7242 -44.9626 494.0842)"
   class="st16"
   cx="595.2"
   cy="303.3"
   rx="0.8"
   ry="0.6"
   id="ellipse244" />
		
			<ellipse
   transform="matrix(0.7242 -0.6896 0.6896 0.7242 -43.9916 496.0931)"
   class="st16"
   cx="598.2"
   cy="303"
   rx="0.8"
   ry="0.6"
   id="ellipse246" />
		<ellipse
   transform="matrix(0.7242 -0.6896 0.6896 0.7242 -46.8896 494.6725)"
   class="st16"
   cx="595"
   cy="306"
   rx="0.8"
   ry="0.6"
   id="ellipse248" />
		
			<ellipse
   transform="matrix(0.7242 -0.6896 0.6896 0.7242 -43.3309 493.1589)"
   class="st16"
   cx="594.9"
   cy="300.8"
   rx="0.8"
   ry="0.6"
   id="ellipse250" />
		
			<ellipse
   transform="matrix(0.7242 -0.6896 0.6896 0.7242 -38.1154 503.0249)"
   class="st16"
   cx="609.8"
   cy="299.2"
   rx="0.8"
   ry="0.6"
   id="ellipse252" />
		
			<ellipse
   transform="matrix(0.7242 -0.6896 0.6896 0.7242 -36.1046 492.3375)"
   class="st16"
   cx="597.5"
   cy="291.3"
   rx="0.8"
   ry="0.6"
   id="ellipse254" />
		
			<ellipse
   transform="matrix(0.7242 -0.6896 0.6896 0.7242 -35.6279 494.3092)"
   class="st16"
   cx="600.2"
   cy="291.7"
   rx="0.8"
   ry="0.6"
   id="ellipse256" />
		
			<ellipse
   transform="matrix(0.7242 -0.6896 0.6896 0.7242 -38.1426 493.7853)"
   class="st16"
   cx="598.3"
   cy="294.6"
   rx="0.8"
   ry="0.6"
   id="ellipse258" />
		
			<ellipse
   transform="matrix(0.7242 -0.6896 0.6896 0.7242 -38.7541 491.8579)"
   class="st16"
   cx="595.6"
   cy="294.4"
   rx="0.8"
   ry="0.6"
   id="ellipse260" />
		
			<ellipse
   transform="matrix(0.7242 -0.6896 0.6896 0.7242 -31.5774 492.0104)"
   class="st16"
   cx="599.3"
   cy="285.5"
   rx="0.8"
   ry="0.6"
   id="ellipse262" />
		
			<ellipse
   transform="matrix(0.7242 -0.6896 0.6896 0.7242 -31.8591 489.9268)"
   class="st16"
   cx="596.6"
   cy="284.8"
   rx="0.8"
   ry="0.6"
   id="ellipse264" />
		
			<ellipse
   transform="matrix(0.7242 -0.6896 0.6896 0.7242 -33.9094 489.1315)"
   class="st16"
   cx="594.6"
   cy="287"
   rx="0.8"
   ry="0.6"
   id="ellipse266" />
		
			<ellipse
   transform="matrix(0.7242 -0.6896 0.6896 0.7242 -36.2149 488.6206)"
   class="st16"
   cx="592.8"
   cy="289.6"
   rx="0.8"
   ry="0.6"
   id="ellipse268" />
		
			<ellipse
   transform="matrix(0.7242 -0.6896 0.6896 0.7242 -38.445 488.2555)"
   class="st16"
   cx="591.2"
   cy="292.2"
   rx="0.8"
   ry="0.6"
   id="ellipse270" />
		
			<ellipse
   transform="matrix(0.7242 -0.6896 0.6896 0.7242 -40.6566 488.2852)"
   class="st16"
   cx="590.1"
   cy="295"
   rx="0.8"
   ry="0.6"
   id="ellipse272" />
		
			<ellipse
   transform="matrix(0.7242 -0.6896 0.6896 0.7242 -42.6343 488.5866)"
   class="st16"
   cx="589.5"
   cy="297.6"
   rx="0.8"
   ry="0.6"
   id="ellipse274" />
		
			<ellipse
   transform="matrix(0.7242 -0.6896 0.6896 0.7242 -44.6693 489.1593)"
   class="st16"
   cx="589.2"
   cy="300.4"
   rx="0.8"
   ry="0.6"
   id="ellipse276" />
		
			<ellipse
   transform="matrix(0.7242 -0.6896 0.6896 0.7242 -46.3154 489.9227)"
   class="st16"
   cx="589.4"
   cy="302.9"
   rx="0.8"
   ry="0.6"
   id="ellipse278" />
		
			<ellipse
   transform="matrix(0.7242 -0.6896 0.6896 0.7242 -47.7636 491.1248)"
   class="st16"
   cx="590.1"
   cy="305.3"
   rx="0.8"
   ry="0.6"
   id="ellipse280" />
		
			<ellipse
   transform="matrix(0.7242 -0.6896 0.6896 0.7242 -45.4975 492.0917)"
   class="st16"
   cx="592.5"
   cy="302.9"
   rx="0.8"
   ry="0.6"
   id="ellipse282" />
		
			<ellipse
   transform="matrix(0.7242 -0.6896 0.6896 0.7242 -43.7108 491.033)"
   class="st16"
   cx="592.1"
   cy="300.2"
   rx="0.8"
   ry="0.6"
   id="ellipse284" />
		
			<ellipse
   transform="matrix(0.7242 -0.6896 0.6896 0.7242 -41.4403 490.3643)"
   class="st16"
   cx="592.4"
   cy="297"
   rx="0.8"
   ry="0.6"
   id="ellipse286" />
		
			<ellipse
   transform="matrix(0.7242 -0.6896 0.6896 0.7242 -39.1178 490.0295)"
   class="st16"
   cx="593.1"
   cy="293.9"
   rx="0.8"
   ry="0.6"
   id="ellipse288" />
		
			<ellipse
   transform="matrix(0.7242 -0.6896 0.6896 0.7242 -36.6272 490.3654)"
   class="st16"
   cx="594.8"
   cy="291"
   rx="0.8"
   ry="0.6"
   id="ellipse290" />
		
			<ellipse
   transform="matrix(0.7242 -0.6896 0.6896 0.7242 -33.8834 491.1004)"
   class="st16"
   cx="597.1"
   cy="287.9"
   rx="0.8"
   ry="0.6"
   id="ellipse292" />
		<path
   class="st16"
   d="M584.1,304.3c0,0,0.9,2.9,2.2,3.9s4.4,2.3,4.4,2.3s0.5,0.4-1.6,1.2s-6.2,2-7.4,2.2c-1.2,0.2-1.8,0.2-1.8-0.7    s0.8-4.5,2.2-6.4C583.4,304.9,584.1,304.3,584.1,304.3z"
   id="path294" />
		<path
   class="st16"
   d="M580.9,311c0,0,0.9-3.3,1.6-4c0.7-0.8,1.2-1.4,1.2-1.4s0.4,0.6,1.3,1.8c1,1.2,1.3,1.4,1.3,1.4    S584.9,310.2,580.9,311z"
   id="path296" />
	</g>
	<g
   id="g304">
		<path
   class="st3"
   d="M568,322.3c-4.1-0.6-25.2-6.4-27-7.8c-1.5-0.9-5.9-4.8-10.1-13.2c-0.6-1.1-1.2-2.3-1.7-3.4    c-2-4.2-3.7-8.3-4.8-11.9c-0.7-2.1-1.2-4.1-1.4-5.8c-0.1-0.6-0.2-1.1-0.2-1.6c0-0.3,0-0.6-0.1-0.9c1.6-1.4,5.3-4.1,10.4-3.8    c0.1,0.2,0.2,0.4,0.3,0.6c2.2,4,11.1,30,11.5,31.1c0.4,1,18.6,10.5,23.2,12.6C570.2,319,568,322.3,568,322.3z"
   id="path300" />
		<path
   class="st9"
   d="M538.2,283.2c-7.6-3.5-14.9,0.8-14.9,0.8c-2.7-14.6,5.9-16.5,5.9-16.5C530.9,266.5,540.8,276,538.2,283.2z"
   id="path302" />
	</g>
	<path
   class="st3"
   d="M568.3,318.1c0,0,1.8-0.6,2.6-1c0.8-0.4,2.4,0,3.6-0.2c1.2-0.2,1.3,0.2,0.9,0.6c-0.4,0.3-2.2,0.8-2.5,1.2   c-0.3,0.3,3.5,0.7,5.3,0.1c1.8-0.6,1.9-0.3,1.3,1c-0.6,1.3-3.7,3.8-5.7,3.7c-2-0.1-5.9-1.2-5.9-1.2L568.3,318.1z"
   id="path306" />
</g>
<g
   id="g348">
	<g
   id="g318">
		<path
   class="st18"
   d="M212.8,379.7c0,0-8.8-10.3-0.5-16.8c0,0,6-3.7,11-3.4c0,0-7,11.7-4.7,12.9c2.3,1.2,6.8-13.6,6.8-13.6    s13.7-1.3,18.2,0.8c0,0-11.7,9.6-9.3,10.2c2.5,0.6,15.2-8.9,15.2-8.9s12.8,2.2,12.1,10c-0.7,7.8-5.1,10.2-7,10    c-1.9-0.2-13.3-4.5-13.5-2.9c-0.2,1.6,6.6,6.8,11.3,7c0,0-9,9.9-15,7.1c-6-2.9-6.5-7.4-10.2-9.1c-3.7-1.7-6.9-1.7-5.4,0    c1.5,1.7,8.3,3.4,10.4,7.2c2.1,3.8,4.1,6.3-2.1,5.4c-6.2-0.9-16.3-5.5-16.7-10.7C212.8,379.7,212.8,379.7,212.8,379.7z"
   id="path310" />
		<g
   id="g316">
			<path
   class="st18"
   d="M255.2,371.1c0,0-34.7-1.3-42.4,8.6c0,0-1.7,5.1-6.9,9.7l-0.8,2.2c0,0,6-6.3,8.2-6.7     C213.3,384.9,209.9,372.6,255.2,371.1z"
   id="path312" />
			<path
   class="st18"
   d="M205.9,389.4c0,0-7.5,5.5-8,15.4l1.4,0.1c0,0,2.4-10.2,6.7-14.2C210.3,386.8,205.9,389.4,205.9,389.4z"
   id="path314" />
		</g>
	</g>
	<g
   id="g328">
		<path
   class="st19"
   d="M182,366.8c0,0,14-7.8,7.5-18.5c0,0-5.2-6.5-10.8-8.2c0,0,3,15.9,0,16.3c-3,0.4-2.1-17.9-2.1-17.9    s-14.8-7.1-20.6-6.5c0,0,9.2,15.5,6.2,15.1c-3-0.4-13.3-16.1-13.3-16.1s-15.1-2.8-17.6,6.2c-2.4,9,1.5,13.5,3.7,14    c2.2,0.6,16.6,0.4,16.3,2.2c-0.4,1.9-10.1,4.9-15.5,3.2c0,0,6,14.8,13.8,14c7.8-0.7,10.3-5.6,15.1-6c4.9-0.4,8.4,0.9,6,2.2    c-2.4,1.3-10.7,0.4-14.6,3.8c-3.9,3.3-7.1,5.4,0.2,6.9c7.3,1.5,20.4,0.6,23-5C182,366.8,182,366.8,182,366.8z"
   id="path320" />
		<g
   id="g326">
			<path
   class="st19"
   d="M138.3,339.9c0,0,39.2,12.7,43.7,26.9c0,0-0.2,6.4,3.7,13.6v2.8c0,0-4.1-9.5-6.4-10.8     C179.4,372.4,188.2,360.1,138.3,339.9z"
   id="path322" />
			<path
   class="st19"
   d="M185.8,380.4c0,0,6.1,9.2,2.6,20.4l-1.6-0.4c0,0,1.5-12.3-1.7-18.5C182,375.7,185.8,380.4,185.8,380.4z"
   id="path324" />
		</g>
	</g>
	<g
   id="g338">
		<path
   class="st11"
   d="M204.3,356c0,0-18.5-10.3-9.9-24.4c0,0,6.9-8.6,14.3-10.8c0,0-3.9,20.9,0,21.4c3.9,0.5,2.7-23.6,2.7-23.6    s19.5-9.4,27.1-8.6c0,0-12.1,20.4-8.1,20c3.9-0.5,17.5-21.2,17.5-21.2s20-3.7,23.2,8.1c3.2,11.8-2,17.7-4.9,18.5    c-3,0.7-21.9,0.5-21.4,3c0.5,2.5,13.3,6.4,20.4,4.2c0,0-7.9,19.5-18.2,18.5c-10.3-1-13.5-7.4-20-7.9c-6.4-0.5-11.1,1.2-7.9,3    c3.2,1.7,14,0.6,19.2,5c5.2,4.4,9.4,7.1-0.2,9.1c-9.6,2-26.9,0.7-30.3-6.7S204.3,356,204.3,356z"
   id="path330" />
		<g
   id="g336">
			<path
   class="st18"
   d="M262,320.5c0,0-51.7,16.8-57.6,35.5c0,0,0.2,8.4-4.9,18v3.7c0,0,5.4-12.6,8.4-14.3     C207.8,363.4,196.2,347.1,262,320.5z"
   id="path332" />
			<path
   class="st18"
   d="M199.4,373.9c0,0-8,12.1-3.4,26.9l2.1-0.6c0,0-2-16.2,2.2-24.4C204.4,367.7,199.4,373.9,199.4,373.9z"
   id="path334" />
		</g>
	</g>
	<path
   class="st20"
   d="M203.7,432.8c20,0,36.2-16.2,36.2-36.2h-72.4C167.5,416.6,183.7,432.8,203.7,432.8z"
   id="path340" />
	<path
   class="st21"
   d="M212.6,432.5c-1.5,0.2-3,0.3-4.5,0.3c-20,0-36.2-16.2-36.2-36.2h9C180.9,415.1,194.7,430.3,212.6,432.5z"
   id="path342" />
	<path
   class="st20"
   d="M240.4,434.6H167l0,0c0-2.5,2-4.5,4.5-4.5h64.4C238.4,430.2,240.4,432.2,240.4,434.6L240.4,434.6z"
   id="path344" />
	<rect
   x="166.3"
   y="396.6"
   class="st20"
   width="74.4"
   height="1.1"
   id="rect346" />
</g>
<g
   id="g354">
	
		<rect
   x="584.1"
   y="329"
   transform="matrix(-1 -1.224647e-16 1.224647e-16 -1 1205.9038 763.6027)"
   class="st19"
   width="37.6"
   height="105.7"
   id="rect350" />
	
		<rect
   x="593.4"
   y="329"
   transform="matrix(-1 -1.224647e-16 1.224647e-16 -1 1224.3782 763.6027)"
   class="st11"
   width="37.6"
   height="105.7"
   id="rect352" />
</g>
<g
   id="g476">
	<path
   class="st3"
   d="M771.5,183.4c-1.2-1.1-4.2,1.3-5.3,2c-1.1,0.7-1.3,0.4-0.9-0.4c0.4-0.8,0.9-2.5,0.5-2.8   c-0.5-0.3-1,1.2-2.6,2.3c-1.5,1.1-1.2,2.7-1.1,3.5c0.1,0.8-0.9,2.1-0.9,2.1s-12.7,13.6-19.8,19.7c-3.8,3.3-11.6,6.8-21.3,8.5   c-10.4,1.8-18.4,5.2-18.4,5.2l17.1,10.5c0,0,15.1-8.3,24.9-13.3c9.7-5.1,21.1-28.5,21.1-28.5s1.3-1.1,3.2-1.7   C769.8,190,772.7,184.5,771.5,183.4z"
   id="path356" />
	<path
   class="st20"
   d="M723.3,230.3c-0.8,3.2-2.3,6.1-5,7.9c-0.1,0.1-0.3,0.2-0.4,0.2c-2.4,1.3-4.3,0.1-5.8-2.2   c-0.7-1.1-1.4-2.5-1.9-4c-1.8-4.8-3.3-10.6-3.3-10.6c0.3-0.4,6.7-3.2,17.1-4C723.9,217.6,724.8,224.3,723.3,230.3z"
   id="path358" />
	<path
   class="st10"
   d="M723.3,230.3c-0.8,3.2-2.3,6.1-5,7.9c-0.1,0.1-0.3,0.2-0.4,0.2c-2-0.6-4.1-1.4-5.8-2.2   c-2.5-1.2-3.8-2.6-1.9-4c0.5-0.3,1.1-0.6,2-0.9C717.1,229.5,720.8,229.6,723.3,230.3z"
   id="path360" />
	<g
   id="g430">
		<g
   id="g366">
			<path
   class="st2"
   d="M830.1,152.5c-2.3-1.5-5.3-3.3-8.9-5c-1.1-0.5-2.2-1-3.3-1.5c-2.3-1-4.7-1.9-7.3-2.7     c-4.5-1.4-9.4-2.4-14.3-2.6v-11.9c0-1.3-0.6-3.8-3-3.9c-1.2-0.1-1.9-0.7-2.4-1.2c-0.7-0.8-1-1.8-1-2.7c0.2-2.5,1.9-4.1,4.4-4.1     c0.4,0,0.8,0.1,1.1,0.3h2.6c-1.1-1.7-2.5-2.1-3.6-2.1c-3.5,0-5.9,2.3-6.2,5.8c-0.1,1.3,0.4,2.9,1.4,4c1,1.1,2.2,1.8,3.7,1.9     c1.2,0.1,1.3,2,1.3,2.1v11.9c-5.5,0.1-11,1.3-16,2.9c-2.3,0.8-4.5,1.6-6.5,2.5c0,0,0,0-0.1,0c-3.5,1.6-6.6,3.2-9.1,4.7     c-0.5,0.3-1,0.6-1.5,0.9c-0.4,0.2-0.8,0.6-1,0.9l0,0c-0.6,0.8-0.8,1.9-0.5,3c0.4,1.5,1.8,2.5,3.4,2.5h65.3c1.4,0,2.6-0.9,2.9-2.2     C831.8,154.7,831.3,153.3,830.1,152.5z M828.7,155.2c-0.1,0.2-0.2,0.2-0.3,0.2h-65.3c-0.5,0-0.6-0.4-0.7-0.5     c0-0.2-0.1-0.5,0.3-0.8c2.6-1.6,6.1-3.6,10.3-5.4c0.4-0.2,0.8-0.3,1.2-0.5c1.7-0.7,3.5-1.4,5.3-2c4.8-1.6,10.1-2.7,15.4-2.7     c0.2,0,0.3,0,0.5,0c4.9,0.1,9.7,1,14.2,2.4c2.8,0.9,5.5,1.9,8,3.1c0.5,0.2,0.9,0.4,1.4,0.6c3.9,1.8,7.1,3.8,9.5,5.3     C828.6,154.9,828.8,155,828.7,155.2z"
   id="path362" />
			<path
   class="st2"
   d="M798.6,123.1c0.4,0,0.7-0.2,0.8-0.6h-1.7C797.8,122.9,798.2,123.1,798.6,123.1z"
   id="path364" />
		</g>
		<g
   id="g428">
			<path
   class="st22"
   d="M819.3,167L819.3,167c0,0,1.6,4,2.4,5.3c0,0,6.9,0.4,16.5-5.3c0,0-5.1-11-14-21.3c0,0-7.5-3.8-14.8-4.5     c-7.3-0.8-10.6-0.8-14.1-0.8c-3.6,0-6.9,0-14.1,0.8c-7.3,0.8-14.8,4.5-14.8,4.5c-8.9,10.3-14,21.3-14,21.3     c9.6,5.6,16.5,5.3,16.5,5.3c0.8-1.3,2.4-5.3,2.4-5.3c1.4,10.2,2.5,21.4,2.6,27c0.3,11.1-6.5,29.1-5,37.1c0,0,3.1,2.4,13,2.4     s13.4,0,13.4,0s3.5,0,13.4,0s13-2.4,13-2.4c1.5-8-5.3-26-5-37.1C816.8,188.4,817.8,177.2,819.3,167z"
   id="path368" />
			<path
   class="st5"
   d="M819.3,167L819.3,167c0,0,1.6,4,2.4,5.3c0,0,6.9,0.4,16.5-5.3c0,0-5.1-11-14-21.3c0,0-7.5-3.8-14.8-4.5     c-7.3-0.8-10.6-0.8-14.1-0.8c-3.6,0-6.9,0-14.1,0.8c-7.3,0.8-14.8,4.5-14.8,4.5c-8.9,10.3-14,21.3-14,21.3     c9.6,5.6,16.5,5.3,16.5,5.3c0.8-1.3,2.4-5.3,2.4-5.3c1.4,10.2,2.5,21.4,2.6,27c0.3,11.1-6.5,29.1-5,37.1c0,0,3.1,2.4,13,2.4     s13.4,0,13.4,0s3.5,0,13.4,0s13-2.4,13-2.4c1.5-8-5.3-26-5-37.1C816.8,188.4,817.8,177.2,819.3,167z"
   id="path370" />
			<path
   class="st23"
   d="M807.5,141.2c-7.3-0.8-8.7-0.8-12.3-0.8s-5,0-12.3,0.8l12.3,11.3L807.5,141.2z"
   id="path372" />
			<g
   id="g378">
				<path
   class="st24"
   d="M787,141.5l4.3,6.3C791.3,147.8,786.9,145.7,787,141.5z"
   id="path374" />
				<path
   class="st24"
   d="M789.7,145.8c0,0,3.3,0.8,5,3.6c0.6,0.9,1.1,3.6,1.1,3.6S790,150.3,789.7,145.8z"
   id="path376" />
			</g>
			<g
   id="g384">
				<path
   class="st24"
   d="M803.5,141.5l-4.3,6.3C799.2,147.8,803.7,145.7,803.5,141.5z"
   id="path380" />
				<path
   class="st24"
   d="M800.8,145.8c0,0-3.3,0.8-5,3.6c-0.6,0.9-1.1,3.6-1.1,3.6S800.6,150.3,800.8,145.8z"
   id="path382" />
			</g>
			<path
   class="st9"
   d="M753.4,164.8c-0.7,1.4-1.1,2.1-1.1,2.1c9.6,5.6,16.5,5.3,16.5,5.3c0.3-0.6,0.8-1.6,1.3-2.7     C768.4,169.5,762.1,169.2,753.4,164.8z"
   id="path386" />
			<path
   class="st25"
   d="M791.4,149.2c0,0,2.4,1,3.3,4c0,0-0.7-2.4-4.3-2.6C790.4,150.6,789.9,149.5,791.4,149.2z"
   id="path388" />
			<path
   class="st9"
   d="M820.4,169.6c0.5,1,1,2.1,1.3,2.7c0,0,6.9,0.4,16.5-5.3c0,0-0.4-0.8-1.1-2.1     C828.4,169.2,822.1,169.5,820.4,169.6z"
   id="path390" />
			<path
   class="st25"
   d="M799.1,149.2c0,0-4.4,1.6-5,5.8c0,0,1.7-3.8,6-4.4C800.1,150.6,800.6,149.5,799.1,149.2z"
   id="path392" />
			<path
   class="st26"
   d="M803.4,136.6c-2.2-1.1-4.4,0-8.1,0s-6-1.1-8.1,0l-2.3,4.9c2.2-0.9,10.4-0.7,10.4-0.7s8.2-0.2,10.4,0.7     L803.4,136.6z"
   id="path394" />
			<path
   class="st9"
   d="M787.1,136.6c0,0-3.9,3.5-5.1,5.3c-1.2,1.8,1.9,7.7,3.4,12.2c0,0,5.5-2.6,6.4-5.6     C791.7,148.5,785,143.1,787.1,136.6z"
   id="path396" />
			<path
   class="st9"
   d="M803.4,136.6c0,0,3.9,3.5,5.1,5.3s-1.9,7.7-3.4,12.2c0,0-5.5-2.6-6.4-5.6     C798.7,148.5,805.5,143.1,803.4,136.6z"
   id="path398" />
			<path
   class="st25"
   d="M796.5,151.5c0,0-1.9,1.7-2.4,3.5v7h2.4V151.5z"
   id="path400" />
			<circle
   class="st0"
   cx="795.2"
   cy="159.7"
   r="0.6"
   id="circle402" />
			<circle
   class="st0"
   cx="795.2"
   cy="156.2"
   r="0.6"
   id="circle404" />
			<g
   class="st27"
   id="g426">
				<defs
   id="defs407">
					<path
   id="SVGID_1_"
   class="st27"
   d="M819.3,167c0,0,1.6,4,2.4,5.3c0,0,6.9,0.4,16.5-5.3c0,0-5.1-11-14-21.3       c0,0-7.5-3.8-14.8-4.5c-7.3-0.8-10.6-0.8-14.1-0.8c-3.6,0-6.9,0-14.1,0.8c-7.3,0.8-14.8,4.5-14.8,4.5       c-8.9,10.3-14,21.3-14,21.3c9.6,5.6,16.5,5.3,16.5,5.3c0.8-1.3,2.4-5.3,2.4-5.3c1.4,10.2,2.5,21.4,2.6,27       c0.3,11.1-6.5,29.1-5,37.1c0,0,3.1,2.4,13,2.4s13.4,0,13.4,0s3.5,0,13.4,0s13-2.4,13-2.4c1.5-8-5.3-26-5-37.1       C816.8,188.4,817.8,177.2,819.3,167z" />
				</defs>
				<clipPath
   id="SVGID_2_">
					<use
   xlink:href="#SVGID_1_"
   style="overflow:visible;"
   id="use409" />
				</clipPath>
				<g
   class="st28"
   clip-path="url(#SVGID_2_)"
   id="g424">
					<path
   class="st29"
   d="M774.1,170.6c2.5,12.6,0.7,24.3-0.8,30.5c-0.4,2.5-0.9,5.1-1.4,7.8C782.2,191.7,774.1,170.6,774.1,170.6z       "
   id="path412" />
					<path
   class="st29"
   d="M772.1,207.9c-0.4,2-29.1,38.3,19.6,25.7c-18.6-7.3-11-23.4-10.3-36.4c0.4-8.4-2.6-16.6-2.6-16.6       C780.3,193.6,775.3,203.7,772.1,207.9z"
   id="path414" />
					<path
   class="st29"
   d="M817.2,201.1c-1.4-6.2-3.2-17.9-0.8-30.5c0,0-8.1,21.1,2.2,38.3C818,206.2,817.5,203.6,817.2,201.1z"
   id="path416" />
					<path
   class="st29"
   d="M818.4,207.9c-3.2-4.2-6.5-10.3-8.2-18.7c0,0,2.2,20.7,11.7,31.4C821.4,218.6,818.8,210,818.4,207.9z"
   id="path418" />
					<path
   class="st29"
   d="M771.2,167c0.1,0.8,1,7.5,1,7.5c2.2-10.6-2.7-23.3-2.7-23.3C771.1,158.2,771.2,167,771.2,167L771.2,167z"
   id="path420" />
					<path
   class="st29"
   d="M819,167c-0.1,0.8-1,7.5-1,7.5c-2.2-10.6,2.7-23.3,2.7-23.3C819.1,158.2,819,167,819,167L819,167z"
   id="path422" />
				</g>
			</g>
		</g>
	</g>
	<path
   class="st14"
   d="M726.2,434.9h-25.5c0,0-0.6-3.9,0.7-6.8c1.3-2.8,3.3-4.1,2.8-7.5c1.6,1.7,4.3,3.5,7.9,3   c0.5,0.7,2.9,4.6,4.4,5.7C718.3,430.5,725.7,430.1,726.2,434.9z"
   id="path432" />
	<path
   class="st14"
   d="M777.5,434.9H752c0,0-0.6-3.9,0.7-6.8c1.3-2.8,3.3-4.1,2.8-7.5c1.6,1.7,4.3,3.5,7.9,3   c0.5,0.7,2.9,4.6,4.4,5.7C769.6,430.5,777,430.1,777.5,434.9z"
   id="path434" />
	<path
   class="st14"
   d="M689.2,285.7c0,0-8.6,2,0.6,47.4c6.8,33.7,6.3,30.4,5,43.8c-1.3,13.4,11.3,48.6,11.3,48.6l6.2-0.5   c0,0-1.5-69.6,5.9-112.2C722.8,284.8,689.2,285.7,689.2,285.7z"
   id="path436" />
	<path
   class="st8"
   d="M719.6,283.9c0,0,19.9,94.9,43.9,139.6c0,0-1,1.5-3.8,1c-1.5-0.2-4.1-2.7-4.1-2.7s-33.1-35.2-32.2-48.9   c1-13.7-57.9-73.1-31.1-91.1C709.2,270.6,719.6,283.9,719.6,283.9z"
   id="path438" />
	<path
   class="st3"
   d="M691.5,221.8c1.4-1.4,3.1-6.4,2.6-13.9l0.7,0.1l11.1,1.6c0,0,0,0.1,0,0.3c0,0.9,0,3.7,0.1,6.4   c0.1,2.5,0.4,4.9,0.9,5.5C707.8,221.8,699.8,228.3,691.5,221.8z"
   id="path440" />
	<path
   class="st20"
   d="M725,263.2c-0.1,13.2-0.5,28.2-2.5,31.1c-2.1,2.9-32.3,0.2-36-3.8c-2.3-2.5,0-7.7,2.6-13.6h0   c1.5-3.5,3.1-7.2,3.9-10.7c0.8-3.4-3.4-14.8-5-25.8c-0.7-4.9-0.9-9.7,0-13.7c1.2-5,4.3-7.4,8-8c-0.1,0.2-0.2,0.5-0.3,0.7   c0,0,5.5,5.2,10.9,2.2c2.7,1.5,6.2,3.3,7.7,5.5C721.8,237.7,725.2,250,725,263.2z"
   id="path442" />
	<g
   id="g458">
		<path
   class="st17"
   d="M793.9,208.7l-35.5-11c-1.3-0.4-2.7,0.3-3.1,1.6l-16.1,51.8c-0.4,1.3,0.3,2.7,1.6,3.1l35.5,11    c1.3,0.4,2.7-0.3,3.1-1.6l16.1-51.8C796,210.5,795.2,209.1,793.9,208.7z M773.4,210.9c-1.1-0.3-1.7-1.5-1.3-2.6    c0.3-1.1,1.5-1.7,2.6-1.3c1.1,0.3,1.7,1.5,1.3,2.6C775.6,210.7,774.4,211.3,773.4,210.9z"
   id="path444" />
		<path
   class="st30"
   d="M788.2,208.6l-25.1-7.8c-3.4-1.1-7.1,0.9-8.1,4.3l-12.7,40.7c-1.1,3.4,0.9,7.1,4.3,8.1l25.1,7.8    c3.4,1.1,7.1-0.9,8.1-4.3l12.7-40.7C793.5,213.4,791.6,209.7,788.2,208.6z M773.4,210.9c-1.1-0.3-1.7-1.5-1.3-2.6    c0.3-1.1,1.5-1.7,2.6-1.3c1.1,0.3,1.7,1.5,1.3,2.6C775.6,210.7,774.4,211.3,773.4,210.9z"
   id="path446" />
		<path
   class="st17"
   d="M782.5,222.1l-23-7.2c-0.5-0.2-0.8-0.7-0.6-1.2v0c0.2-0.5,0.7-0.8,1.2-0.6l23,7.2c0.5,0.2,0.8,0.7,0.6,1.2    l0,0C783.5,221.9,783,222.2,782.5,222.1z"
   id="path448" />
		<path
   class="st17"
   d="M781.3,226.2l-23.2-7.2c-0.4-0.1-0.7-0.6-0.6-1.1l0.1-0.2c0.1-0.4,0.6-0.7,1.1-0.6l23.2,7.2    c0.4,0.1,0.7,0.6,0.6,1.1l-0.1,0.2C782.2,226.1,781.8,226.4,781.3,226.2z"
   id="path450" />
		<path
   class="st17"
   d="M780,230.6l-23.2-7.2c-0.4-0.1-0.7-0.6-0.6-1.1l0.1-0.2c0.1-0.4,0.6-0.7,1.1-0.6l23.2,7.2    c0.4,0.1,0.7,0.6,0.6,1.1L781,230C780.9,230.4,780.4,230.7,780,230.6z"
   id="path452" />
		<path
   class="st17"
   d="M760.8,252c-0.4-0.1-0.5-0.5-0.4-1l0.4-1.2c-0.8-0.3-1.6-0.7-2.3-1.2c-0.9-0.7-1.3-1.4-1.1-2.1    c0.1-0.3,0.3-0.6,0.6-0.7c0.3-0.1,0.6-0.1,1,0c0.1,0,0.4,0.2,0.8,0.6c0.6,0.4,0.9,0.7,0.9,0.7c0.5,0.3,1,0.6,1.5,0.7    c0.6,0.2,1.2,0.1,1.7-0.2c0.6-0.3,0.9-0.7,1.1-1.3c0.3-0.9-0.1-1.7-1.1-2.5c-0.9-0.8-1.9-1.6-2.8-2.3c-0.9-1.1-1.2-2.3-0.8-3.6    c0.3-1.1,1-1.9,2-2.4c0.9-0.5,2-0.6,3.1-0.4l0.3-0.9c0.2-0.5,0.5-0.8,0.9-0.6c0.4,0.1,0.5,0.4,0.4,0.8c0,0-0.1,0.4-0.3,1    c0.8,0.3,1.4,0.6,1.9,1.1c0.7,0.6,1,1.2,0.8,1.8c-0.1,0.3-0.3,0.6-0.6,0.7c-0.3,0.1-0.6,0.1-0.9,0c-0.2-0.1-0.6-0.3-1.1-0.7    c-0.5-0.4-0.9-0.7-1.3-0.8c-0.6-0.2-1.1-0.2-1.5,0c-0.5,0.2-0.8,0.6-1,1.1c-0.1,0.5-0.1,0.9,0.2,1.2c0.2,0.3,0.7,0.7,1.4,1.2    c1.4,1.1,2.3,2,2.7,2.5c0.7,1,0.9,2.2,0.5,3.5c-0.4,1.3-1.1,2.2-2.2,2.8c-1,0.6-2.2,0.8-3.6,0.5l-0.4,1.2    C761.6,251.9,761.3,252.1,760.8,252z"
   id="path454" />
		<path
   class="st30"
   d="M773.2,211.3c-1.3-0.4-2-1.8-1.6-3.1c0.4-1.3,1.8-2,3.1-1.6c1.3,0.4,2,1.8,1.6,3.1S774.5,211.8,773.2,211.3z     M774.4,207.5c-0.9-0.3-1.8,0.2-2,1.1c-0.3,0.9,0.2,1.8,1.1,2c0.9,0.3,1.8-0.2,2-1.1C775.8,208.6,775.3,207.7,774.4,207.5z"
   id="path456" />
	</g>
	<g
   id="g462">
		<path
   class="st5"
   d="M775.3,207.5l-0.4,0c0-0.1,0.4-11.9-5.5-15.3c-4-2.3-5.4-5.3-4.7-6.9c0.4-1.1,1.7-1.5,3.4-1    C772.5,185.5,777.5,195.1,775.3,207.5z M766.7,184.5c-0.8,0-1.4,0.3-1.7,0.9c-0.6,1.5,0.9,4.3,4.5,6.4c2.5,1.5,4.3,4.6,5.2,9.2    c0.3,1.5,0.4,2.9,0.5,4c1.2-11-3.3-19.3-7.3-20.3C767.5,184.5,767.1,184.5,766.7,184.5z"
   id="path460" />
	</g>
	<path
   class="st15"
   d="M706,216.3c-4.4-0.3-9.8-5.5-9.8-5.5c4.5-1.2,7.7-1.3,9.7-0.9C705.9,210.8,705.9,213.6,706,216.3z"
   id="path464" />
	<path
   class="st3"
   d="M710.4,209.9c0,0-13.2,6.1-16.8-2.2c-3.7-8.3-7.8-13,0.4-17.3c8.3-4.2,11.3-1.8,13.2,0.6   C709,193.5,713.7,208.1,710.4,209.9z"
   id="path466" />
	<path
   class="st10"
   d="M703.7,242.7c0,0-0.5,26.3-14.5,34.2c1.5-3.5,3.1-7.2,3.9-10.7c0.8-3.4-3.4-14.8-5-25.8   c1.7-3.2,3.6-5,5.5-4.6C702.6,238,703.7,242.7,703.7,242.7z"
   id="path468" />
	<path
   class="st3"
   d="M761.2,260.5c0,0-2.1-0.9-3.2-0.2c0,0-27.1,1.3-34.5-1.2c-7.4-2.5-22.3-32.7-22.3-32.7   c-9.2-6.8-10.5,7.2-12,12.3c-1.5,5.1,15.5,28.8,29.6,31.5c14.1,2.7,42.1-6.9,42.1-6.9s4.1,3,5.8,2.9c1.6-0.1,6.1-2.1,6.1-2.1   L761.2,260.5z"
   id="path470" />
	<path
   class="st20"
   d="M710.4,240.3c0.3-0.3-7.6-19.7-13.3-17.4c-5.6,2.3-12,13.9-6,26C691,248.9,700.8,249.9,710.4,240.3z"
   id="path472" />
	<path
   class="st8"
   d="M705.9,183.2c-1.9-5.1-10.4-1.6-16.8,0c-6.4,1.6-18.8,6.5-13.5,21.9c5.3,15.3-3.1,25.5,7.1,31.4   c6.1,4.5,7.2,13.4,7.2,13.4c0.2-5,4.2-5.4,7.8-9.2c3.6-3.9-1.4-8.5-2.8-11.9c-1.4-3.4,1.4-7.5,1.4-7.5c3.2-2.6-2.1-7.3,1.3-12   c3.4-4.7-0.7-9.3,4.8-11c5.4-1.8,2.8-9.1,2.8-9.1S707.8,188.3,705.9,183.2z"
   id="path474" />
</g>
<path
   class="st8"
   d="M291.9,176.7c-8.8-12.9-4.6-20.4-4.6-20.4C295.4,161.3,292,175.9,291.9,176.7z"
   id="path478" />
<path
   class="st31"
   d="M1040.8,437.1H111.5c-0.7,0-1.2-0.6-1.2-1.2l0,0c0-0.7,0.6-1.2,1.2-1.2h929.3c0.7,0,1.2,0.6,1.2,1.2l0,0  C1042,436.5,1041.4,437.1,1040.8,437.1z"
   id="path480" />
<g
   id="g638">
	<path
   class="st8"
   d="M666.4,389.8c0,0,1.5,0.9,2.2,1c0.7,0.1,1.1,0.1,1.4-1.2c0.3-1.3,1.3-4,0.2-4.2s-3-0.1-3.6-0.1   c-0.6-0.1-11.5-2.7-11.5-2.7l-0.1,0.9l-1,3.4L666.4,389.8z"
   id="path482" />
	<path
   class="st16"
   d="M670.8,387.1c0.2-0.8,0.1-1.6-0.4-1.7c-1.1-0.2-2.9-0.2-3.5-0.3c-0.6-0.1-11.5-2.5-11.5-2.5l-0.1,0.9   C655.3,383.4,670.8,387.1,670.8,387.1z"
   id="path484" />
	<path
   class="st32"
   d="M655.3,382.4c0,0-3.6-2.6-8.3-7.2c-4.6-4.6-7.5-8-12.7-10c-5.2-2-10.9-3.6-14.8-2.1c-4,1.5-7.8,3.7-9.5,10.8   c-1.2,5,1,10.6,3.8,13.4c2.4,2.4,6.4,4.8,13.2,5.1c0,0,5.9,0.5,10.2-0.8c2.5-0.7,9.1-3.1,11.1-3.5s5.3-1.1,6.1-1.1l1.2-3   L655.3,382.4z"
   id="path486" />
	<path
   class="st17"
   d="M655.3,382.4c0,0-3.6-2.6-8.3-7.2c-4.6-4.6-6.4-7.2-12.5-10.5c-4.9-2.6-11.1-3.1-15.1-1.6   c-4,1.5-7.8,3.7-9.5,10.8c-0.1,0.3,1.6-3.9,3.3-5.4c0.1-0.1,4.2-3.5,8.6-3.7c7.1-0.4,9.1,1.2,12,2.3c5.6,2.2,9.5,7.5,13.4,10.7   c4.7,3.8,8.2,6.1,8.2,6.1L655.3,382.4z"
   id="path488" />
	
		<ellipse
   transform="matrix(0.2299 -0.9732 0.9732 0.2299 114.3106 886.8382)"
   class="st16"
   cx="617.5"
   cy="371.2"
   rx="0.6"
   ry="0.8"
   id="ellipse490" />
	
		<ellipse
   transform="matrix(0.2299 -0.9732 0.9732 0.2299 117.4874 887.276)"
   class="st16"
   cx="619.4"
   cy="369.4"
   rx="0.6"
   ry="0.8"
   id="ellipse492" />
	
		<ellipse
   transform="matrix(0.2299 -0.9732 0.9732 0.2299 120.5141 888.0784)"
   class="st16"
   cx="621.4"
   cy="367.9"
   rx="0.6"
   ry="0.8"
   id="ellipse494" />
	
		<ellipse
   transform="matrix(0.2299 -0.9732 0.9732 0.2299 115.366 890.5388)"
   class="st16"
   cx="620.4"
   cy="372.4"
   rx="0.6"
   ry="0.8"
   id="ellipse496" />
	
		<ellipse
   transform="matrix(0.2299 -0.9732 0.9732 0.2299 117.1761 894.5132)"
   class="st16"
   cx="623.8"
   cy="373.2"
   rx="0.6"
   ry="0.8"
   id="ellipse498" />
	
		<ellipse
   transform="matrix(0.2299 -0.9732 0.9732 0.2299 113.6039 894.3998)"
   class="st16"
   cx="622"
   cy="375.4"
   rx="0.6"
   ry="0.8"
   id="ellipse500" />
	
		<ellipse
   transform="matrix(0.2299 -0.9732 0.9732 0.2299 111.8508 890.9194)"
   class="st16"
   cx="618.9"
   cy="374.8"
   rx="0.6"
   ry="0.8"
   id="ellipse502" />
	
		<ellipse
   transform="matrix(0.2299 -0.9732 0.9732 0.2299 108.7965 891.9137)"
   class="st16"
   cx="618"
   cy="377.2"
   rx="0.6"
   ry="0.8"
   id="ellipse504" />
	
		<ellipse
   transform="matrix(0.2299 -0.9732 0.9732 0.2299 110.3248 895.2823)"
   class="st16"
   cx="620.9"
   cy="377.9"
   rx="0.6"
   ry="0.8"
   id="ellipse506" />
	
		<ellipse
   transform="matrix(0.2299 -0.9732 0.9732 0.2299 111.9454 898.7184)"
   class="st16"
   cx="623.9"
   cy="378.6"
   rx="0.6"
   ry="0.8"
   id="ellipse508" />
	
		<ellipse
   transform="matrix(0.2299 -0.9732 0.9732 0.2299 113.3671 901.8621)"
   class="st16"
   cx="626.6"
   cy="379.3"
   rx="0.6"
   ry="0.8"
   id="ellipse510" />
	
		<ellipse
   transform="matrix(0.2299 -0.9732 0.9732 0.2299 109.3879 900.8784)"
   class="st16"
   cx="624"
   cy="381.3"
   rx="0.6"
   ry="0.8"
   id="ellipse512" />
	
		<ellipse
   transform="matrix(0.2299 -0.9732 0.9732 0.2299 107.726 897.3463)"
   class="st16"
   cx="620.9"
   cy="380.6"
   rx="0.6"
   ry="0.8"
   id="ellipse514" />
	
		<ellipse
   transform="matrix(0.2299 -0.9732 0.9732 0.2299 118.8007 907.1898)"
   class="st16"
   cx="632.7"
   cy="378.5"
   rx="0.6"
   ry="0.8"
   id="ellipse516" />
	
		<ellipse
   transform="matrix(0.2299 -0.9732 0.9732 0.2299 115.4602 906.4377)"
   class="st16"
   cx="630.5"
   cy="380.3"
   rx="0.6"
   ry="0.8"
   id="ellipse518" />
	
		<ellipse
   transform="matrix(0.2299 -0.9732 0.9732 0.2299 111.8081 904.3992)"
   class="st16"
   cx="627.4"
   cy="381.5"
   rx="0.6"
   ry="0.8"
   id="ellipse520" />
	
		<ellipse
   transform="matrix(0.2299 -0.9732 0.9732 0.2299 110.3017 907.1523)"
   class="st16"
   cx="628.4"
   cy="383.9"
   rx="0.6"
   ry="0.8"
   id="ellipse522" />
	
		<ellipse
   transform="matrix(0.2299 -0.9732 0.9732 0.2299 109.1701 909.7567)"
   class="st16"
   cx="629.5"
   cy="385.9"
   rx="0.6"
   ry="0.8"
   id="ellipse524" />
	
		<ellipse
   transform="matrix(0.2299 -0.9732 0.9732 0.2299 109.1919 913.153)"
   class="st16"
   cx="631.6"
   cy="387.6"
   rx="0.6"
   ry="0.8"
   id="ellipse526" />
	
		<ellipse
   transform="matrix(0.2299 -0.9732 0.9732 0.2299 111.8656 915.2703)"
   class="st16"
   cx="634.3"
   cy="386.9"
   rx="0.6"
   ry="0.8"
   id="ellipse528" />
	
		<ellipse
   transform="matrix(0.2299 -0.9732 0.9732 0.2299 106.2678 893.7228)"
   class="st16"
   cx="617.9"
   cy="379.7"
   rx="0.6"
   ry="0.8"
   id="ellipse530" />
	
		<ellipse
   transform="matrix(0.2299 -0.9732 0.9732 0.2299 104.0325 896.2624)"
   class="st16"
   cx="618.4"
   cy="382.4"
   rx="0.6"
   ry="0.8"
   id="ellipse532" />
	
		<ellipse
   transform="matrix(0.2299 -0.9732 0.9732 0.2299 101.9708 893.1029)"
   class="st16"
   cx="615.3"
   cy="382.1"
   rx="0.6"
   ry="0.8"
   id="ellipse534" />
	
		<ellipse
   transform="matrix(0.2299 -0.9732 0.9732 0.2299 100.3742 895.8742)"
   class="st16"
   cx="616.3"
   cy="384.5"
   rx="0.6"
   ry="0.8"
   id="ellipse536" />
	
		<ellipse
   transform="matrix(0.2299 -0.9732 0.9732 0.2299 99.4397 898.7215)"
   class="st16"
   cx="617.6"
   cy="386.5"
   rx="0.6"
   ry="0.8"
   id="ellipse538" />
	
		<ellipse
   transform="matrix(0.2299 -0.9732 0.9732 0.2299 102.2896 899.5583)"
   class="st16"
   cx="619.6"
   cy="385.1"
   rx="0.6"
   ry="0.8"
   id="ellipse540" />
	
		<ellipse
   transform="matrix(0.2299 -0.9732 0.9732 0.2299 105.6723 900.1943)"
   class="st16"
   cx="621.7"
   cy="383.3"
   rx="0.6"
   ry="0.8"
   id="ellipse542" />
	
		<ellipse
   transform="matrix(0.2299 -0.9732 0.9732 0.2299 104.1979 903.226)"
   class="st16"
   cx="622.8"
   cy="385.8"
   rx="0.6"
   ry="0.8"
   id="ellipse544" />
	
		<ellipse
   transform="matrix(0.2299 -0.9732 0.9732 0.2299 102.3995 905.2416)"
   class="st16"
   cx="623.2"
   cy="387.9"
   rx="0.6"
   ry="0.8"
   id="ellipse546" />
	
		<ellipse
   transform="matrix(0.2299 -0.9732 0.9732 0.2299 106.3918 906.6664)"
   class="st16"
   cx="626.1"
   cy="386.1"
   rx="0.6"
   ry="0.8"
   id="ellipse548" />
	
		<ellipse
   transform="matrix(0.2299 -0.9732 0.9732 0.2299 104.3446 908.4851)"
   class="st16"
   cx="626.2"
   cy="388.3"
   rx="0.6"
   ry="0.8"
   id="ellipse550" />
	
		<ellipse
   transform="matrix(0.2299 -0.9732 0.9732 0.2299 106.5856 910.7655)"
   class="st16"
   cx="628.8"
   cy="388"
   rx="0.6"
   ry="0.8"
   id="ellipse552" />
	
		<ellipse
   transform="matrix(0.2299 -0.9732 0.9732 0.2299 117.8127 917.6934)"
   class="st16"
   cx="638.8"
   cy="384.4"
   rx="0.6"
   ry="0.8"
   id="ellipse554" />
	
		<ellipse
   transform="matrix(0.2299 -0.9732 0.9732 0.2299 107.8934 903.795)"
   class="st16"
   cx="625.1"
   cy="383.7"
   rx="0.6"
   ry="0.8"
   id="ellipse556" />
	
		<ellipse
   transform="matrix(0.2299 -0.9732 0.9732 0.2299 113.7464 909.3018)"
   class="st16"
   cx="631.5"
   cy="382.8"
   rx="0.6"
   ry="0.8"
   id="ellipse558" />
	
		<ellipse
   transform="matrix(0.2299 -0.9732 0.9732 0.2299 115.7767 913.5602)"
   class="st16"
   cx="635.2"
   cy="383.6"
   rx="0.6"
   ry="0.8"
   id="ellipse560" />
	<ellipse
   transform="matrix(0.2299 -0.9732 0.9732 0.2299 112.407 911.9642)"
   class="st16"
   cx="632.5"
   cy="385"
   rx="0.6"
   ry="0.8"
   id="ellipse562" />
	
		<ellipse
   transform="matrix(0.2299 -0.9732 0.9732 0.2299 114.8192 916.788)"
   class="st16"
   cx="636.7"
   cy="385.8"
   rx="0.6"
   ry="0.8"
   id="ellipse564" />
	
		<ellipse
   transform="matrix(0.2299 -0.9732 0.9732 0.2299 117.3013 910.8214)"
   class="st16"
   cx="634.2"
   cy="381.3"
   rx="0.6"
   ry="0.8"
   id="ellipse566" />
	
		<ellipse
   transform="matrix(0.2299 -0.9732 0.9732 0.2299 100.7464 902.2366)"
   class="st16"
   cx="620.5"
   cy="387.5"
   rx="0.6"
   ry="0.8"
   id="ellipse568" />
	
		<ellipse
   transform="matrix(0.2299 -0.9732 0.9732 0.2299 118.5784 898.7354)"
   class="st16"
   cx="627.2"
   cy="374.4"
   rx="0.6"
   ry="0.8"
   id="ellipse570" />
	
		<ellipse
   transform="matrix(0.2299 -0.9732 0.9732 0.2299 115.2775 897.9649)"
   class="st16"
   cx="625.1"
   cy="376.1"
   rx="0.6"
   ry="0.8"
   id="ellipse572" />
	
		<ellipse
   transform="matrix(0.2299 -0.9732 0.9732 0.2299 116.1862 902.1601)"
   class="st16"
   cx="628.2"
   cy="377.7"
   rx="0.6"
   ry="0.8"
   id="ellipse574" />
	
		<ellipse
   transform="matrix(0.2299 -0.9732 0.9732 0.2299 119.4148 903.1565)"
   class="st16"
   cx="630.4"
   cy="376.1"
   rx="0.6"
   ry="0.8"
   id="ellipse576" />
	
		<ellipse
   transform="matrix(0.2299 -0.9732 0.9732 0.2299 119.0654 891.1662)"
   class="st16"
   cx="622.7"
   cy="370.3"
   rx="0.6"
   ry="0.8"
   id="ellipse578" />
	
		<ellipse
   transform="matrix(0.2299 -0.9732 0.9732 0.2299 122.5508 891.6094)"
   class="st16"
   cx="624.7"
   cy="368.4"
   rx="0.6"
   ry="0.8"
   id="ellipse580" />
	
		<ellipse
   transform="matrix(0.2299 -0.9732 0.9732 0.2299 123.9067 895.0249)"
   class="st16"
   cx="627.5"
   cy="369.2"
   rx="0.6"
   ry="0.8"
   id="ellipse582" />
	
		<ellipse
   transform="matrix(0.2299 -0.9732 0.9732 0.2299 124.7909 898.8707)"
   class="st16"
   cx="630.4"
   cy="370.6"
   rx="0.6"
   ry="0.8"
   id="ellipse584" />
	
		<ellipse
   transform="matrix(0.2299 -0.9732 0.9732 0.2299 125.4304 902.5924)"
   class="st16"
   cx="633.1"
   cy="372"
   rx="0.6"
   ry="0.8"
   id="ellipse586" />
	
		<ellipse
   transform="matrix(0.2299 -0.9732 0.9732 0.2299 125.41 906.2883)"
   class="st16"
   cx="635.4"
   cy="373.9"
   rx="0.6"
   ry="0.8"
   id="ellipse588" />
	
		<ellipse
   transform="matrix(0.2299 -0.9732 0.9732 0.2299 124.9323 909.597)"
   class="st16"
   cx="637.2"
   cy="375.9"
   rx="0.6"
   ry="0.8"
   id="ellipse590" />
	
		<ellipse
   transform="matrix(0.2299 -0.9732 0.9732 0.2299 124.0023 913.0051)"
   class="st16"
   cx="638.9"
   cy="378.1"
   rx="0.6"
   ry="0.8"
   id="ellipse592" />
	
		<ellipse
   transform="matrix(0.2299 -0.9732 0.9732 0.2299 122.7484 915.7657)"
   class="st16"
   cx="640"
   cy="380.3"
   rx="0.6"
   ry="0.8"
   id="ellipse594" />
	
		<ellipse
   transform="matrix(0.2299 -0.9732 0.9732 0.2299 120.7588 918.2016)"
   class="st16"
   cx="640.6"
   cy="382.8"
   rx="0.6"
   ry="0.8"
   id="ellipse596" />
	
		<ellipse
   transform="matrix(0.2299 -0.9732 0.9732 0.2299 119.1132 914.4277)"
   class="st16"
   cx="637.4"
   cy="381.9"
   rx="0.6"
   ry="0.8"
   id="ellipse598" />
	
		<ellipse
   transform="matrix(0.2299 -0.9732 0.9732 0.2299 120.8587 911.4281)"
   class="st16"
   cx="636.4"
   cy="379.3"
   rx="0.6"
   ry="0.8"
   id="ellipse600" />
	
		<ellipse
   transform="matrix(0.2299 -0.9732 0.9732 0.2299 121.9461 907.6253)"
   class="st16"
   cx="634.5"
   cy="376.8"
   rx="0.6"
   ry="0.8"
   id="ellipse602" />
	
		<ellipse
   transform="matrix(0.2299 -0.9732 0.9732 0.2299 122.4749 903.7401)"
   class="st16"
   cx="632.3"
   cy="374.5"
   rx="0.6"
   ry="0.8"
   id="ellipse604" />
	
		<ellipse
   transform="matrix(0.2299 -0.9732 0.9732 0.2299 121.8808 899.5827)"
   class="st16"
   cx="629.4"
   cy="372.8"
   rx="0.6"
   ry="0.8"
   id="ellipse606" />
	
		<ellipse
   transform="matrix(0.2299 -0.9732 0.9732 0.2299 120.6163 895.0076)"
   class="st16"
   cx="625.9"
   cy="371.3"
   rx="0.6"
   ry="0.8"
   id="ellipse608" />
	<path
   class="st16"
   d="M645.3,378.9c0,0,0.7,2.9,0.1,4.5c-0.6,1.6-2.6,4.2-2.6,4.2s-0.2,0.6,2,0.2s6.4-1.4,7.5-1.9   c1.1-0.4,1.7-0.8,1.2-1.5s-3-3.4-5.1-4.4S645.3,378.9,645.3,378.9z"
   id="path610" />
	<path
   class="st16"
   d="M651.5,383.1c0,0-2.5-2.3-3.4-2.7c-1-0.3-1.8-0.6-1.8-0.6s-0.1,0.7-0.3,2.2c-0.2,1.5-0.4,1.9-0.4,1.9   S647.6,384.4,651.5,383.1z"
   id="path612" />
	<g
   id="g636">
		<g
   id="g616">
			<circle
   class="st33"
   cx="644.4"
   cy="385.7"
   r="5.3"
   id="circle614" />
		</g>
		<g
   class="st34"
   id="g620">
			<path
   class="st2"
   d="M639.7,387.1c0.2,0.7,0.7,1.3,1.4,1.6c0.4,0.2,0.8,0.2,1.1,0.1c0.4-0.1,0.7-0.5,0.7-0.9     c0-0.2-0.1-0.4-0.3-0.6c-0.3-0.4-0.6-0.7-0.7-1.2c-0.2-0.6-0.1-1.4-0.4-2c-0.1-0.3-0.3-0.5-0.6-0.5c-0.6-0.1-1.1,0.9-1.3,1.3     C639.3,385.6,639.5,386.5,639.7,387.1z"
   id="path618" />
		</g>
		<g
   id="g626">
			<g
   id="g624">
				<path
   class="st35"
   d="M647,387.9c-0.1,0.2-0.2,0.4-0.4,0.7c-0.3,0.5-0.8,1-1.3,1.3c-0.5,0.3-1.1,0.5-1.7,0.4      c-1.4-0.2-2.5-1.5-3.3-2.7c-0.5-0.7-1-1.4-1.3-1.3c0,0-0.1-0.5,0-0.5c0.1-0.1,0.6,0.1,0.9,0.4c0.3,0.3,0.6,0.7,0.9,1.1      c0.8,1,1.7,2.3,2.9,2.4c0.8,0.1,1.8-0.5,2.4-1.5c0.6-0.9,0.7-1.8,0.4-2.4c-0.5-0.9-1.4-1.3-2.4-1.7c-0.6-0.2-1.1-0.5-1.6-0.8      c-0.6-0.4-0.9-1.1-0.7-1.9c0-0.2,0.2-0.4,0.2-0.5c0.1-0.1,0.6-0.2,0.6-0.2c0,0-0.3,0.4-0.3,0.9c-0.1,0.6,0,1,0.5,1.3      c0.4,0.3,1,0.5,1.5,0.8c1,0.4,2,0.9,2.6,1.9c0.2,0.4,0.3,0.9,0.2,1.5C647.2,387.3,647.1,387.6,647,387.9z"
   id="path622" />
			</g>
		</g>
		<g
   id="g630">
			<path
   class="st36"
   d="M641.3,381.4c1.1-0.3,2.4-0.3,3.6,0.2c2.7,1.2,3.9,4.3,2.8,6.9c-0.4,0.9-1,1.7-1.8,2.2     c1.4-0.4,2.7-1.5,3.3-3c1.2-2.7-0.1-5.8-2.8-6.9C644.7,380.1,642.7,380.4,641.3,381.4z"
   id="path628" />
		</g>
		<g
   id="g634">
			<path
   class="st37"
   d="M642.5,381.2c0.1-0.3,0.2-0.5,0.2-0.5c-0.2,0.1-0.5,0.2-0.7,0.3c-0.1,0.1-0.1,0.2-0.2,0.3     C642.1,381.2,642.3,381.2,642.5,381.2z"
   id="path632" />
		</g>
	</g>
</g>
<rect
   x="626"
   y="390.3"
   class="st11"
   width="46.4"
   height="44.4"
   id="rect640" />
<rect
   x="614.6"
   y="390.4"
   class="st38"
   width="46.4"
   height="44.4"
   id="rect642" />
<g
   id="g650">
	<path
   class="st39"
   d="M846,358.5c0,0,3.6,2.2,9-1.3l-0.6-0.7c0,0-3.9-0.9-4.9-0.7s-1.5,0.3-2.2,1.1   C846.6,357.7,846,358.5,846,358.5z"
   id="path644" />
	<path
   class="st40"
   d="M897.3,357.1c0,0,1.8-14.1-2.5-19.4c-4.3-5.3-11.4-7.6-11.4-7.6s-8.2-0.6-13.2,1.5s-8.8,4.1-10,8.8   c-1.2,4.7-2.8,8.5-3,9.3s-0.2,1.2-0.2,1.2s6.3,1.4,7.1,1.5c0.8,0.2,11.6,2.6,11.6,2.6s5.8,1.1,6.2,1   C882.3,356.1,897.3,357.1,897.3,357.1z"
   id="path646" />
	<path
   class="st32"
   d="M883.9,355.6c0,0-7.2,11-21,5c-13.8-6-15.8-3.2-15.8-3.2s-1,1.7-1.1,0.8s2.1-2.6,4.2-3.6s7-4.1,7-4.1   s1.8-1.3,4.3-0.8c2.6,0.4,12,2.5,15.7,3.8C880.9,354.8,883.9,355.6,883.9,355.6z"
   id="path648" />
</g>
<path
   class="st0"
   d="M347.7,176.3"
   id="path652" />
<g
   id="g666">
	<defs
   id="defs655">
		<path
   id="SVGID_3_"
   d="M788.3,144.6c0,0-1.4-2.9-1.5-3.6c-0.1-0.7,0.1-5.5,0.5-6.3s1.5-3.7,1.5-3.7l-1.2-5.8c0,0-3.1-6.2-0.6-8.4    s7.3-3.7,7.3-3.7l4.2,1.7l1.5,1.8c0,0,1.2,1.9,1.2,3.4s0.1,2.9-0.2,4.1s-0.8,2.3-0.8,2.3l-0.7,3.4l-0.4,2.9l-0.1,1.6l1.6,0.6    l2.2,4.6l0.5,1.2l0.2,0.8c0,0-0.9,2.6-1.5,3.4S788.3,144.6,788.3,144.6z" />
	</defs>
	<clipPath
   id="SVGID_4_">
		<use
   xlink:href="#SVGID_3_"
   style="overflow:visible;"
   id="use657" />
	</clipPath>
	<g
   class="st41"
   clip-path="url(#SVGID_4_)"
   id="g664">
		<path
   class="st2"
   d="M830.1,152.5c-2.3-1.5-5.3-3.3-8.9-5c-1.1-0.5-2.2-1-3.3-1.5c-2.3-1-4.7-1.9-7.3-2.7    c-2.4-0.7-4.7-1.3-7.2-1.8c-2.3-0.4-4.8-0.7-7.2-0.8v-11.9c0-1.3-0.6-3.8-3-3.9c-1.2-0.1-1.9-0.7-2.4-1.2c-0.7-0.8-1-1.8-1-2.7    c0.2-2.5,1.9-4.1,4.4-4.1c0.4,0,0.8,0.1,1.1,0.3h2.6c-1.1-1.7-2.5-2.1-3.6-2.1c-3.5,0-5.9,2.3-6.2,5.8c-0.1,1.3,0.4,2.9,1.4,4    c1,1.1,2.2,1.8,3.7,1.9c1.2,0.1,1.3,2,1.3,2.1v11.9c-2.5,0-5,0.3-7.5,0.7c-2.9,0.5-5.8,1.3-8.5,2.2c-2.3,0.8-4.5,1.6-6.5,2.5    c0,0,0,0-0.1,0c-3.5,1.6-6.6,3.2-9.1,4.7c-0.5,0.3-1,0.6-1.5,0.9c-0.4,0.2-0.8,0.6-1,0.9l0,0c-0.6,0.8-0.8,1.9-0.5,3    c0.4,1.5,1.8,2.5,3.4,2.5h65.3c1.4,0,2.6-0.9,2.9-2.2C831.8,154.7,831.3,153.3,830.1,152.5z M828.7,155.2    c-0.1,0.2-0.2,0.2-0.3,0.2h-65.3c-0.5,0-0.6-0.4-0.7-0.5c0-0.2-0.1-0.5,0.3-0.8c2.6-1.6,6.1-3.6,10.3-5.4c0.4-0.2,0.8-0.3,1.2-0.5    c1.7-0.7,3.5-1.4,5.3-2c2.9-1,5.3-1.7,8.5-2.2c2-0.3,4.8-0.6,6.9-0.6c0.2,0,0.3,0,0.5,0c2.3,0,4.8,0.3,7,0.6    c2.5,0.4,4.8,1.1,7.2,1.8c2.8,0.9,5.5,1.9,8,3.1c0.5,0.2,0.9,0.4,1.4,0.6c3.9,1.8,7.1,3.8,9.5,5.3    C828.6,154.9,828.8,155,828.7,155.2z"
   id="path660" />
		<path
   class="st2"
   d="M798.6,123.1c0.4,0,0.7-0.2,0.8-0.6h-1.7C797.8,122.9,798.2,123.1,798.6,123.1z"
   id="path662" />
	</g>
</g>
<g
   id="g690">
	<g
   id="g670">
		<circle
   class="st33"
   cx="612.8"
   cy="323.9"
   r="5.3"
   id="circle668" />
	</g>
	<g
   class="st34"
   id="g674">
		<path
   class="st2"
   d="M609.7,320.1c-0.5,0.5-0.9,1.2-0.9,1.9c0,0.4,0.1,0.8,0.3,1.1c0.3,0.3,0.7,0.4,1.1,0.3    c0.2-0.1,0.4-0.3,0.5-0.5c0.3-0.4,0.5-0.8,0.8-1.1c0.5-0.5,1.2-0.7,1.7-1.2c0.2-0.2,0.3-0.5,0.3-0.8c-0.2-0.5-1.3-0.7-1.8-0.7    C610.9,319.2,610.2,319.6,609.7,320.1z"
   id="path672" />
	</g>
	<g
   id="g680">
		<g
   id="g678">
			<path
   class="st35"
   d="M611.8,327.1c-0.2,0-0.5,0-0.7-0.1c-0.6-0.1-1.2-0.3-1.7-0.7c-0.5-0.4-0.9-0.8-1.1-1.4     c-0.4-1.4,0.5-2.9,1.2-4.1c0.4-0.7,0.9-1.5,0.6-1.7c0,0,0.5-0.3,0.5-0.3c0.1,0.1,0.2,0.5,0,0.9c-0.1,0.4-0.4,0.8-0.7,1.3     c-0.7,1.1-1.5,2.5-1.1,3.6c0.2,0.8,1.1,1.4,2.3,1.6c1,0.2,2-0.1,2.4-0.6c0.6-0.8,0.6-1.8,0.6-2.8c0-0.6,0-1.2,0.1-1.8     c0.2-0.7,0.7-1.2,1.5-1.4c0.2,0,0.4,0,0.6,0c0.2,0,0.5,0.5,0.5,0.5c0,0-0.5-0.1-1,0c-0.6,0.1-0.9,0.4-1,1     c-0.1,0.5-0.1,1.1-0.1,1.7c0,1.1,0,2.2-0.7,3.2c-0.3,0.4-0.7,0.7-1.3,0.8C612.4,327.1,612.1,327.1,611.8,327.1z"
   id="path676" />
		</g>
	</g>
	<g
   id="g684">
		<path
   class="st36"
   d="M615.5,319.3c0.8,0.9,1.2,2.1,1.2,3.4c0,2.9-2.4,5.3-5.3,5.3c-1,0-1.9-0.3-2.8-0.8c1,1.2,2.4,1.9,4.1,1.9    c2.9,0,5.3-2.4,5.3-5.3C618.1,321.9,617.1,320.3,615.5,319.3z"
   id="path682" />
	</g>
	<g
   id="g688">
		<path
   class="st37"
   d="M616.2,320.4c0.3,0,0.6,0,0.6,0c-0.2-0.2-0.3-0.4-0.5-0.5c-0.1,0-0.2,0-0.3,0    C616,320,616.1,320.2,616.2,320.4z"
   id="path686" />
	</g>
</g>
<g
   id="g794">
	<g
   id="g714">
		<g
   id="g694">
			<circle
   class="st33"
   cx="909.2"
   cy="312.2"
   r="6.8"
   id="circle692" />
		</g>
		<g
   class="st34"
   id="g698">
			<path
   class="st2"
   d="M905.2,307.4c-0.7,0.6-1.2,1.5-1.2,2.5c0,0.5,0.1,1,0.4,1.4c0.3,0.4,0.9,0.6,1.4,0.3     c0.3-0.1,0.5-0.4,0.6-0.6c0.3-0.5,0.6-1,1-1.5c0.6-0.6,1.6-0.9,2.2-1.5c0.3-0.3,0.4-0.6,0.3-1c-0.2-0.7-1.6-0.9-2.2-0.9     C906.9,306.3,905.9,306.9,905.2,307.4z"
   id="path696" />
		</g>
		<g
   id="g704">
			<g
   id="g702">
				<path
   class="st35"
   d="M908,316.4c-0.3,0-0.6,0-1-0.1c-0.8-0.1-1.5-0.4-2.1-0.8c-0.7-0.5-1.1-1.1-1.4-1.8      c-0.5-1.8,0.6-3.7,1.5-5.2c0.5-0.9,1.1-1.9,0.8-2.2c0,0,0.6-0.4,0.6-0.3c0.2,0.1,0.2,0.7,0,1.2c-0.2,0.5-0.5,1-0.9,1.6      c-0.8,1.4-1.9,3.2-1.4,4.6c0.3,1,1.5,1.9,2.9,2.1c1.3,0.2,2.5-0.1,3.1-0.8c0.8-1.1,0.8-2.3,0.8-3.6c0-0.8,0-1.6,0.2-2.3      c0.2-1,0.9-1.6,1.9-1.8c0.2,0,0.6,0,0.8,0c0.2,0.1,0.6,0.6,0.6,0.6c0,0-0.6-0.1-1.2,0c-0.7,0.2-1.2,0.6-1.3,1.2      c-0.1,0.7-0.1,1.4-0.1,2.2c0,1.4,0,2.8-0.9,4.1c-0.4,0.5-0.9,0.8-1.6,1C908.8,316.4,908.4,316.4,908,316.4z"
   id="path700" />
			</g>
		</g>
		<g
   id="g708">
			<path
   class="st36"
   d="M912.8,306.5c1,1.2,1.6,2.7,1.6,4.4c0,3.7-3,6.8-6.8,6.8c-1.3,0-2.5-0.4-3.5-1c1.2,1.5,3.1,2.4,5.2,2.4     c3.7,0,6.8-3,6.8-6.8C916,309.8,914.7,307.6,912.8,306.5z"
   id="path706" />
		</g>
		<g
   id="g712">
			<path
   class="st37"
   d="M913.6,307.8c0.4,0,0.7,0,0.7,0c-0.2-0.2-0.4-0.5-0.7-0.7c-0.1,0-0.3,0-0.4,0     C913.4,307.3,913.5,307.5,913.6,307.8z"
   id="path710" />
		</g>
	</g>
	<g
   id="g738">
		<g
   id="g718">
			<circle
   class="st33"
   cx="909.2"
   cy="325.6"
   r="6.8"
   id="circle716" />
		</g>
		<g
   class="st34"
   id="g722">
			<path
   class="st2"
   d="M905.2,320.8c-0.7,0.6-1.2,1.5-1.2,2.5c0,0.5,0.1,1,0.4,1.4c0.3,0.4,0.9,0.6,1.4,0.3     c0.3-0.1,0.5-0.4,0.6-0.6c0.3-0.5,0.6-1,1-1.5c0.6-0.6,1.6-0.9,2.2-1.5c0.3-0.3,0.4-0.6,0.3-1c-0.2-0.7-1.6-0.9-2.2-0.9     C906.9,319.6,905.9,320.2,905.2,320.8z"
   id="path720" />
		</g>
		<g
   id="g728">
			<g
   id="g726">
				<path
   class="st35"
   d="M908,329.8c-0.3,0-0.6,0-1-0.1c-0.8-0.1-1.5-0.4-2.1-0.8c-0.7-0.5-1.1-1.1-1.4-1.8      c-0.5-1.8,0.6-3.7,1.5-5.2c0.5-0.9,1.1-1.9,0.8-2.2c0,0,0.6-0.4,0.6-0.3c0.2,0.1,0.2,0.7,0,1.2c-0.2,0.5-0.5,1-0.9,1.6      c-0.8,1.4-1.9,3.2-1.4,4.6c0.3,1,1.5,1.9,2.9,2.1c1.3,0.2,2.5-0.1,3.1-0.8c0.8-1.1,0.8-2.3,0.8-3.6c0-0.8,0-1.6,0.2-2.3      c0.2-1,0.9-1.6,1.9-1.8c0.2,0,0.6,0,0.8,0c0.2,0.1,0.6,0.6,0.6,0.6c0,0-0.6-0.1-1.2,0c-0.7,0.2-1.2,0.6-1.3,1.2      c-0.1,0.7-0.1,1.4-0.1,2.2c0,1.4,0,2.8-0.9,4.1c-0.4,0.5-0.9,0.8-1.6,1C908.8,329.7,908.4,329.8,908,329.8z"
   id="path724" />
			</g>
		</g>
		<g
   id="g732">
			<path
   class="st36"
   d="M912.8,319.8c1,1.2,1.6,2.7,1.6,4.4c0,3.7-3,6.8-6.8,6.8c-1.3,0-2.5-0.4-3.5-1c1.2,1.5,3.1,2.4,5.2,2.4     c3.7,0,6.8-3,6.8-6.8C916,323.1,914.7,321,912.8,319.8z"
   id="path730" />
		</g>
		<g
   id="g736">
			<path
   class="st37"
   d="M913.6,321.1c0.4,0,0.7,0,0.7,0c-0.2-0.2-0.4-0.5-0.7-0.7c-0.1,0-0.3,0-0.4,0     C913.4,320.7,913.5,320.9,913.6,321.1z"
   id="path734" />
		</g>
	</g>
	<g
   id="g762">
		<g
   id="g742">
			<circle
   class="st33"
   cx="909.2"
   cy="338.4"
   r="6.8"
   id="circle740" />
		</g>
		<g
   class="st34"
   id="g746">
			<path
   class="st2"
   d="M905.2,333.6c-0.7,0.6-1.2,1.5-1.2,2.5c0,0.5,0.1,1,0.4,1.4c0.3,0.4,0.9,0.6,1.4,0.3     c0.3-0.1,0.5-0.4,0.6-0.6c0.3-0.5,0.6-1,1-1.5c0.6-0.6,1.6-0.9,2.2-1.5c0.3-0.3,0.4-0.6,0.3-1c-0.2-0.7-1.6-0.9-2.2-0.9     C906.9,332.4,905.9,333,905.2,333.6z"
   id="path744" />
		</g>
		<g
   id="g752">
			<g
   id="g750">
				<path
   class="st35"
   d="M908,342.5c-0.3,0-0.6,0-1-0.1c-0.8-0.1-1.5-0.4-2.1-0.8c-0.7-0.5-1.1-1.1-1.4-1.8      c-0.5-1.8,0.6-3.7,1.5-5.2c0.5-0.9,1.1-1.9,0.8-2.2c0,0,0.6-0.4,0.6-0.3c0.2,0.1,0.2,0.7,0,1.2c-0.2,0.5-0.5,1-0.9,1.6      c-0.8,1.4-1.9,3.2-1.4,4.6c0.3,1,1.5,1.9,2.9,2.1c1.3,0.2,2.5-0.1,3.1-0.8c0.8-1.1,0.8-2.3,0.8-3.6c0-0.8,0-1.6,0.2-2.3      c0.2-1,0.9-1.6,1.9-1.8c0.2,0,0.6,0,0.8,0c0.2,0.1,0.6,0.6,0.6,0.6c0,0-0.6-0.1-1.2,0c-0.7,0.2-1.2,0.6-1.3,1.2      c-0.1,0.7-0.1,1.4-0.1,2.2c0,1.4,0,2.8-0.9,4.1c-0.4,0.5-0.9,0.8-1.6,1C908.8,342.5,908.4,342.5,908,342.5z"
   id="path748" />
			</g>
		</g>
		<g
   id="g756">
			<path
   class="st36"
   d="M912.8,332.6c1,1.2,1.6,2.7,1.6,4.4c0,3.7-3,6.8-6.8,6.8c-1.3,0-2.5-0.4-3.5-1c1.2,1.5,3.1,2.4,5.2,2.4     c3.7,0,6.8-3,6.8-6.8C916,335.9,914.7,333.8,912.8,332.6z"
   id="path754" />
		</g>
		<g
   id="g760">
			<path
   class="st37"
   d="M913.6,333.9c0.4,0,0.7,0,0.7,0c-0.2-0.2-0.4-0.5-0.7-0.7c-0.1,0-0.3,0-0.4,0     C913.4,333.4,913.5,333.7,913.6,333.9z"
   id="path758" />
		</g>
	</g>
	<g
   id="g786">
		<g
   id="g766">
			<circle
   class="st33"
   cx="909.2"
   cy="351.5"
   r="6.8"
   id="circle764" />
		</g>
		<g
   class="st34"
   id="g770">
			<path
   class="st2"
   d="M905.2,346.7c-0.7,0.6-1.2,1.5-1.2,2.5c0,0.5,0.1,1,0.4,1.4c0.3,0.4,0.9,0.6,1.4,0.3     c0.3-0.1,0.5-0.4,0.6-0.6c0.3-0.5,0.6-1,1-1.5c0.6-0.6,1.6-0.9,2.2-1.5c0.3-0.3,0.4-0.6,0.3-1c-0.2-0.7-1.6-0.9-2.2-0.9     C906.9,345.5,905.9,346.1,905.2,346.7z"
   id="path768" />
		</g>
		<g
   id="g776">
			<g
   id="g774">
				<path
   class="st35"
   d="M908,355.7c-0.3,0-0.6,0-1-0.1c-0.8-0.1-1.5-0.4-2.1-0.8c-0.7-0.5-1.1-1.1-1.4-1.8      c-0.5-1.8,0.6-3.7,1.5-5.2c0.5-0.9,1.1-1.9,0.8-2.2c0,0,0.6-0.4,0.6-0.3c0.2,0.1,0.2,0.7,0,1.2c-0.2,0.5-0.5,1-0.9,1.6      c-0.8,1.4-1.9,3.2-1.4,4.6c0.3,1,1.5,1.9,2.9,2.1c1.3,0.2,2.5-0.1,3.1-0.8c0.8-1.1,0.8-2.3,0.8-3.6c0-0.8,0-1.6,0.2-2.3      c0.2-1,0.9-1.6,1.9-1.8c0.2,0,0.6,0,0.8,0c0.2,0.1,0.6,0.6,0.6,0.6c0,0-0.6-0.1-1.2,0c-0.7,0.2-1.2,0.6-1.3,1.2      c-0.1,0.7-0.1,1.4-0.1,2.2c0,1.4,0,2.8-0.9,4.1c-0.4,0.5-0.9,0.8-1.6,1C908.8,355.6,908.4,355.7,908,355.7z"
   id="path772" />
			</g>
		</g>
		<g
   id="g780">
			<path
   class="st36"
   d="M912.8,345.7c1,1.2,1.6,2.7,1.6,4.4c0,3.7-3,6.8-6.8,6.8c-1.3,0-2.5-0.4-3.5-1c1.2,1.5,3.1,2.4,5.2,2.4     c3.7,0,6.8-3,6.8-6.8C916,349,914.7,346.9,912.8,345.7z"
   id="path778" />
		</g>
		<g
   id="g784">
			<path
   class="st37"
   d="M913.6,347c0.4,0,0.7,0,0.7,0c-0.2-0.2-0.4-0.5-0.7-0.7c-0.1,0-0.3,0-0.4,0     C913.4,346.6,913.5,346.8,913.6,347z"
   id="path782" />
		</g>
	</g>
	<path
   class="st42"
   d="M915.3,358.9h-11.5c-1,0-1.9-0.8-1.9-1.9v-50.7c0-1,0.8-1.9,1.9-1.9h11.5c1,0,1.9,0.8,1.9,1.9V357   C917.2,358,916.3,358.9,915.3,358.9z"
   id="path788" />
	<rect
   x="901.5"
   y="315.5"
   class="st5"
   width="16.2"
   height="22.2"
   id="rect790" />
	<rect
   x="901.5"
   y="303.9"
   class="st20"
   width="16.2"
   height="3.6"
   id="rect792" />
</g>
</svg>
