<svg xmlns="http://www.w3.org/2000/svg" viewBox="0 0 613.94 471.16"><defs><style>.cls-1{fill:#f7cc7f;}.cls-2{fill:#f09b8c;}.cls-3{fill:#355389;}.cls-4{fill:#ef8b7e;}.cls-5{fill:#13375b;}.cls-6{fill:#86b1f2;}.cls-7{fill:#f0a28f;}.cls-8{fill:#ed7357;}.cls-9{fill:#fff;}.cls-10{fill:#438f7c;}.cls-11{fill:#1a4655;}.cls-12{fill:#b75742;}.cls-13{fill:#6392d9;}.cls-14{fill:#f1a391;}.cls-15{fill:#e3ae5c;}.cls-16,.cls-21{fill:#ec7357;}.cls-16,.cls-26{opacity:0.2;}.cls-17{fill:#f0a290;}.cls-18{fill:#5cbea3;}.cls-19{fill:#0f2e35;}.cls-20{fill:#db513a;}.cls-22{fill:#ef855c;}.cls-23{fill:#466eb6;}.cls-24{fill:#c8dff7;}.cls-25,.cls-26{fill:#9bc1f9;}.cls-27{fill:#96d9c9;}.cls-28{fill:#5cbfa5;}.cls-29{fill:#e05a44;}.cls-30{fill:#65cab0;}.cls-31{fill:#0b345a;}</style></defs><title>Asset 1</title><g id="Layer_2" data-name="Layer 2"><g id="Layer_1-2" data-name="Layer 1"><path class="cls-1" d="M490.63,120.89c-10.56,8.59-25.56,18.11-37.92,22.21l18.36,3.46L395.25,236,244.13,279.45,65.3,470.16l140.87,0L278,354.88l143.81-85.44,55.85-119,11.9,14.4C487.13,152,488.22,134.29,490.63,120.89Z"/><path class="cls-2" d="M41.15,322.79S33,308.11,31,305s-7.19-15.52-7.37-16,3.57-6.36,2.73-6.56-1.76,3.09-2.66,2.7-3.51-8.33-4-7.93c-1,.73,1.41,4.92.9,5.18s-2.05-4.6-3.05-4.46,1.9,4.46,1.62,4.84-3.29-3.68-3.83-2.81c-.3.47,2.76,3.55,2.18,3.83s-3.32-1.69-3.61-1.12,2.52,1.36,3.36,2.9,2.27,2.22,2.87,5.08,1.48,13.22,4.53,18.39,9.73,16.61,9.73,16.61Z"/><path class="cls-3" d="M38.88,318s9.06,9.77,10.41,13.7-1.31,9.57-5,9.81-11.84-17.33-11.84-17.33Z"/><path class="cls-4" d="M81.56,388.72c-.66-.55-1.46-.3-3.75-1.36a13.89,13.89,0,0,0-2.13-.63.27.27,0,0,1-.2-.19c-.69-2.64-3.74-14.81-4.08-18.31s-2.65-18.81-3-21.12a.26.26,0,0,0-.33-.22l-6.65,1.86a.26.26,0,0,0-.19.31c.41,1.81,3,13.2,3.72,19,.6,4.6,7.44,19.34,7.58,20.28v0a.59.59,0,0,0,.57.49h7.42C80.79,388.82,81.77,388.9,81.56,388.72Z"/><path class="cls-5" d="M66.75,340.54c-3.54-10.73-7.49-10.28-7.49-10.28l3.06,22.57c2.18-.6,5-1.93,7.21-2.54A97,97,0,0,0,66.75,340.54Z"/><path class="cls-1" d="M65.65,312.63c-1.08-7.06-7.47-12.14-14.15-8.71a15.9,15.9,0,0,0-4.57,3.66c-2.81,3.6-3.52,8.05-6.42,11.55a28.85,28.85,0,0,0,3.88,2.46l1.81-2.4-.62,3c4.48,2.15,10.81,3.92,19.48,3.87A37.36,37.36,0,0,0,65.65,312.63Z"/><path class="cls-4" d="M67.74,469.12a29,29,0,0,0-5.1-2.83c-.22-.1-1-.59-1.27-.76a10.58,10.58,0,0,1-2-1.8c-.58-.65-.86-2.74-1-4.4.34-3.72,5.72-63.32,6.86-69.77,1.17-6.66-.62-16.82-.62-16.82l-4.15-1.57-7.9,27.35.63,20.82a55.46,55.46,0,0,0-2.09,9.59c-.24,3.59,2.68,32.7,2.68,32.7h0a14.74,14.74,0,0,1-.16,2.57c-.21,1.09-1.4,3.33-.86,4.35a2.78,2.78,0,0,0,1.18,1.29l14.18.22C68.87,470.08,68.36,469.58,67.74,469.12Z"/><path class="cls-2" d="M46.21,370.6s-4.92,7.43-6.09,13.58.86,25-1.4,33.1c-1.22,4.36-5.85,11.09-6.55,16.73S29,455.91,29,455.91h0a14.38,14.38,0,0,1-1.7,4.8,13.92,13.92,0,0,0-1.86,2.45c-.86,1.69-.38,4.21.25,5.59.33.71,0,.71.72.94a4.55,4.55,0,0,0,5.47-2.57A13.12,13.12,0,0,0,33,462.39a22.14,22.14,0,0,1,.78-5h0l15.74-38.61,11.39-33.32L63.8,368.3Z"/><path class="cls-6" d="M32.32,466a7,7,0,0,1-6.85-2.87c-.87,1.69-1.29,4.22-.65,5.61.56,1.23,2.2,1.19,3.49,1.24a3.38,3.38,0,0,0,3.1-1.9A11.82,11.82,0,0,0,32.32,466Z"/><path class="cls-6" d="M61.37,465.53a12.88,12.88,0,0,1-8.07-.32c-.4,1.13-.93,2.56-.65,3.38.34,1,.83,1.23,1.27,1.25,3.42.09,12.54.21,15.16.24a.43.43,0,0,0,.33-.7C68.76,468.6,61.65,465.7,61.37,465.53Z"/><path class="cls-1" d="M49.41,418.86l.89.05h0l.88.05h.05l.89,0h.05l.9,0a59,59,0,0,0,10.18-.39c1.36-13.59,1.86-26,2.37-28.75,1.22-6.66-1.07-17.17-1.07-17.17l-1.09-.2.69-3.89L45.9,371s-5.12,7.42-6.34,13.57.9,25-1.45,33.1C38.11,417.63,43.34,418.44,49.41,418.86Z"/><path class="cls-3" d="M50.2,328.34s-6.52-.42-9.1,2.4,5.72,25.11,6.19,28.69-2.39,13.12-2.39,13.12,15.32,3.09,19.69.19c0,0,.47-25.79,0-28.35s-4.37-13-5.31-14S50.2,328.34,50.2,328.34Z"/><path class="cls-7" d="M52.37,319.6s0,.2-.09.52c-.29,1.58-1.41,6.79-2.17,8.22-.91,1.73,3.13,7.25,7,6.58,1.16-.2-1-5.07-.88-5.59.2-1,.47-2.34.74-3.72.15-.78.31-1.57.46-2.31.41-2.11.75-3.84.75-3.84Z"/><path class="cls-8" d="M52.28,320.12c.06-.32.09-.52.09-.52l5.83-.14s-.34,1.73-.75,3.84c-.15.74-.31,1.52-.46,2.3a5.47,5.47,0,0,1-2.78-1.4,7.41,7.41,0,0,1-2.11-3.14C52.17,320.69,52.23,320.37,52.28,320.12Z"/><path class="cls-7" d="M56.29,306.32a5.24,5.24,0,0,0-4.47,1.92c-1.72,2.23-3.58,9.13.7,12.89s8.51-.5,9.14-5S62.53,306.16,56.29,306.32Z"/><path class="cls-7" d="M62.92,316.06c-.51,1-1.36,1.55-1.91,1.23s-.58-1.38-.07-2.37,1.37-1.55,1.92-1.23S63.43,315.07,62.92,316.06Z"/><path class="cls-1" d="M56.6,305.58s-3.67,6.57-6.3,6.87-3,3.8-3,3.8.94-8,3.54-9.59A9.59,9.59,0,0,1,56.6,305.58Z"/><path class="cls-7" d="M51,314.1c.22,1.17-.21,2.24-1,2.39s-1.52-.67-1.73-1.83.22-2.24,1-2.39S50.78,312.94,51,314.1Z"/><path class="cls-9" d="M54.23,318.34l4,.78a1.77,1.77,0,0,1-2.14,1.2C53.91,320,54.23,318.34,54.23,318.34Z"/><rect class="cls-10" x="444.66" y="432.75" width="1.66" height="37.99" transform="translate(967.32 812.6) rotate(169.26)"/><polygon class="cls-10" points="372.83 470.74 370.87 470.74 378.17 432.92 379.8 433.23 372.83 470.74"/><polygon class="cls-10" points="430.04 470.74 428.08 470.74 435.38 432.92 437.01 433.23 430.04 470.74"/><polygon class="cls-11" points="390.69 470.74 392.28 470.76 385.27 433.09 383.65 433.4 390.69 470.74"/><path class="cls-8" d="M418.88,351c8.7.93,19.95,1.91,31.25,21.08,12.35,21,5.85,52.27-3.9,61s-41.58,19.44-68.34,3.36c0,0-16.16-9.75-7.87-25.92,12.77-24.89,11-30.08,16.67-39.83S400.42,349,418.88,351Z"/><path class="cls-12" d="M450.13,372.06c-7.71-13.08-15.4-17.7-22.27-19.6a57.5,57.5,0,0,1,8.05,10.87c12.35,20.95,5.85,52.26-3.9,61-8.65,7.71-34.66,17-59.1,7.83a24.79,24.79,0,0,0,5,4.27c26.76,16.08,58.6,5.34,68.34-3.36S462.48,393,450.13,372.06Z"/><polygon class="cls-2" points="390.96 382.83 388.72 389.54 395.53 386.86 390.96 382.83"/><path class="cls-13" d="M398,362.87c-.45,0-1.7.44-3.52,3.86-2.32,4.38-5.72,17.6-5.72,17.6l10.14,3.77,1.3-2.76,2.15-21.25S398.11,362.87,398,362.87Z"/><path class="cls-6" d="M411.38,361a61.85,61.85,0,0,0-13.4,1.9s-2.45,21,2.2,36.88c1,3.56-.86,14.77-.86,14.77l30.05-.39s-3.56-27.1-2.22-31.48S428.52,363,428.52,363l-6.75-1.16A68.18,68.18,0,0,0,411.38,361Z"/><path class="cls-14" d="M414.88,453.41s-.66,7.65-1.88,9.76.06,5.72.13,6.21,2.57,1.2,6.56.78,3.92-1.34,3.6-2.82-2.44-3.39-2.57-4.8,1.22-6.49,1.22-6.49Z"/><path class="cls-15" d="M402.71,408.21s-20.74-1.15-25.37,1.65.84,8.53.84,8.53,16.88,7.32,45.15,8.95c6.69.38,7.27-17.4,6-18.87S402.71,408.21,402.71,408.21Z"/><path class="cls-8" d="M420.18,470.75c4.11-.43,3.6-2.44,3.27-4-.21-.95-1.38-2.08-2.09-3.15a6.72,6.72,0,0,1-2.74,1.33c-1.85.55-4.39-.53-6-1.21a19.76,19.76,0,0,0-.55,5.28C412.13,469.54,416.08,471.19,420.18,470.75Z"/><path class="cls-1" d="M417.92,423c-.83,6.25-4.93,37.35-4.93,37.35l9.52,1.18s11.7-40.6,11.1-46.81-5-6.74-5-6.74S420.11,406.46,417.92,423Z"/><path class="cls-14" d="M428.85,365.34c-2.81-1-4.19,24.18-4.56,34.56a122.56,122.56,0,0,1-15.81-.16c-1-.07-3.35-.93-4.36-1.06a9.92,9.92,0,0,0-2.49-.12,48.83,48.83,0,0,0-5.81,2.61c-.55.58-2,2-1.79,2.65s2.86-1.74,2.86-1.74l1.28-.72c-1.59,1.55-4.62,3.58-4.18,4.33s3.15-1.35,5.1-2.75c-1.67,1.5-3.74,4.19-3.26,4.61s2.78-2.74,5.31-3.64c.93-.33,1.86.59,2.6.7a5.31,5.31,0,0,0,1.9.11l2.73-.77c.93.08.95.63,1.89.83,1.09.23,2.88.47,4.27.81,8,2,10.66,2.85,13.11,2.85C435.06,408.44,435.49,367.82,428.85,365.34Z"/><path class="cls-6" d="M434.18,389c.53-10.63.45-23.74-5.53-26-2.36-.88-6.53,4.43-5.78,26.2A44.81,44.81,0,0,0,434.18,389Z"/><path class="cls-14" d="M387.05,460s.83,2.65-.66,4.41-7.67,3.48-8.48,4.43a2.67,2.67,0,0,0-.75,1.76l17.35-.48-.19-5.22-.8-3.75Z"/><path class="cls-8" d="M385.31,465.23s4.46,1.8,6.61.74,2.09-1.36,2.71-1,.85,5.73.85,5.73l-19.51.13c-1.35,0-2-1-.94-1.88a15,15,0,0,1,2.13-1.26C378.69,466.86,385.31,465.23,385.31,465.23Z"/><path class="cls-1" d="M387.71,413.11c-1.35-2.81-4.39-6.47-9.76-4.27-5.12,2.11-6.49,7.27-4.88,12.57s12.25,36.4,12.62,40.68l8.48.05s-1.54-24.63-1.92-30.59A57.46,57.46,0,0,0,387.71,413.11Z"/><path class="cls-3" d="M373.93,384.46H402.3A1.85,1.85,0,0,1,404,385.6l8.73,21.31h15.64a.79.79,0,0,1,.79.79h0a.79.79,0,0,1-.79.79H383.87a3.1,3.1,0,0,1-2.83-1.84l-8.8-19.59A1.85,1.85,0,0,1,373.93,384.46Z"/><path class="cls-9" d="M389.2,396.86a1.56,1.56,0,1,0,3-.61,1.69,1.69,0,0,0-1.87-1.43A1.67,1.67,0,0,0,389.2,396.86Z"/><path class="cls-7" d="M414.83,352l1.39,9.15s-5.07,10.89-8.1,9.95c-2.53-.79-1-10.43-1-10.43s1.38-5.18,1-7.77S414.83,352,414.83,352Z"/><path class="cls-16" d="M408.12,352.88c-.42-2.59,6.71-.9,6.71-.9l.12.76a4.33,4.33,0,0,1-.78,1.28,9.4,9.4,0,0,1-6.23,2.82A14.37,14.37,0,0,0,408.12,352.88Z"/><path class="cls-7" d="M416,339c.2-.07,1.62,10.42-1.07,13.31s-7.91,3.83-9.78,1.56c-2.08-2.52-2-13.8,2.2-16.77S416,339,416,339Z"/><path class="cls-1" d="M408.94,331.53A11.63,11.63,0,0,1,415,335c1.46.17,3.45,1,5.51,4.38a8.51,8.51,0,0,1-2.28,11.09c-2.95,2.28-2.9,4.9-2.9,4.9l-.47-1.35a7.72,7.72,0,0,1-.37-3.2,6.29,6.29,0,0,1,.48-1.93c.71-1.52-1.52-2.53-2.15-3.79-.48-1-.5-3.2-1.26-4.8l-.9-1.23s-2.09-1.63-4.13-1.17S404.8,330.69,408.94,331.53Z"/><path class="cls-7" d="M413,347c0,1.28.56,2.33,1.3,2.34s1.36-1,1.38-2.3-.56-2.32-1.3-2.34S413,345.69,413,347Z"/><path class="cls-9" d="M409.36,350.52l-4-.21a1.76,1.76,0,0,0,1.79,1.68C409.27,352.17,409.36,350.52,409.36,350.52Z"/><path class="cls-17" d="M550.52,299.52c.45,1.81,1.24,4.68,1.24,4.68-.06.78-.29,4.06-.57,8.08l5.9-2.36s-.07-6.55.2-6.95.59.08,2.4-2.51a4.89,4.89,0,0,0,.62-2.08s.11-1.64-.26-1.8a.77.77,0,0,0-.92.38c-.14.28-.1,1-.24,1.23a2,2,0,0,1-1.34.61c-.36,0,0-4.86,0-4.86s.2-1.38.3-1.83.44-1.51.44-1.51.41-1.63-.1-1.75c-.3-.07-1.06,1.25-1.58,2.66a28.86,28.86,0,0,1-1,3.1c-.38-.06-.18-2.71-.18-2.71a8.46,8.46,0,0,0,.37-1.79c.36-.71.59-2,0-2.12a10.46,10.46,0,0,0-.94,1.64s-.33,1.17-.51,1.71a29.12,29.12,0,0,0-.56,3.15c-.15.56-.28.33-.34.36a16.47,16.47,0,0,1,.13-1.81,12.27,12.27,0,0,1,.13-1.76,13,13,0,0,0,.26-1.85c.1-1.37-.77-1.23-1.07,0l-.35,1.53c-.46,2.06-.45,4-.67,4.06s-.1-3.59-.1-3.59-.44-2-.88-.15a16,16,0,0,0-.45,4A15.31,15.31,0,0,0,550.52,299.52Z"/><path class="cls-17" d="M613.2,294.74c-.44,1.82-1.24,4.68-1.24,4.68.07.79.3,4.07.58,8.08l-5.91-2.36s.07-6.54-.19-6.95-.6.09-2.41-2.5a5.09,5.09,0,0,1-.62-2.08s-.11-1.65.26-1.8a.77.77,0,0,1,.93.37c.13.29.1.95.23,1.23a2,2,0,0,0,1.35.61c.36,0,0-4.86,0-4.86s-.2-1.37-.3-1.82-.43-1.51-.43-1.51-.41-1.63.09-1.76c.3-.07,1.06,1.25,1.58,2.66a28,28,0,0,0,1,3.1c.38-.05.18-2.71.18-2.71a8.31,8.31,0,0,1-.37-1.79c-.35-.7-.59-2,0-2.12a11.32,11.32,0,0,1,.94,1.64s.32,1.17.51,1.72c.33,1,.38,2.48.56,3.15s.27.33.33.35a12.14,12.14,0,0,0-.13-1.81,9.9,9.9,0,0,0-.13-1.75,11.82,11.82,0,0,1-.25-1.85c-.1-1.38.76-1.24,1.06,0l.35,1.53c.47,2.06.45,4.05.68,4.06s.1-3.59.1-3.59.44-2,.88-.14a16.58,16.58,0,0,1,.45,4A15.78,15.78,0,0,1,613.2,294.74Z"/><path class="cls-14" d="M597.05,448.77a44.7,44.7,0,0,0,4.09,4.56c.81.49-.37,6.39-2.59,6.78-1.25.22-1.95-1.16-1.95-1.16l.36-1.7-4.67-4.82Z"/><path class="cls-14" d="M580.18,449.77a45.82,45.82,0,0,0,3.47,5c.75.6-1.17,6.3-3.43,6.4-1.27.06-1.78-1.4-1.78-1.4l.57-1.64-4-5.37Z"/><path class="cls-5" d="M583.49,454.64a34.55,34.55,0,0,1-2.42,2.79,29,29,0,0,1-2.52,2s-1.6,2.91-2,3.92c-1,2.26-2.07,4.78-1.91,6,0,.41,1,.84,1.72.6,3.16-1,11.25-8.37,12.27-10.35C589.77,457.38,583.49,454.64,583.49,454.64Z"/><path class="cls-10" d="M560.41,387c.29-.83.57-1.59.85-2.3,3.36.73,7.16,1.54,11.07,2.37l.47,14.33c0-1.11-2.93,22.85-2.93,22.85s7.59,16.81,12.78,26.61a17.9,17.9,0,0,1-6.21,5.33c-8.07-9.66-18.62-27.35-19.06-30.29C557.13,424.16,556.9,396.81,560.41,387Z"/><path class="cls-18" d="M590.43,391.09c-1,11.16-3.31,32.5-3.12,34.22.57,2.14,10.74,21.89,12.57,24.76-1.45,2.19-3.7,4.55-6.12,5.21-.48.13-17.25-23.75-18.17-25.64-1-2.14-2.76-13.83-2.79-28.29L572.33,387C578.84,388.41,584.83,389.77,590.43,391.09Z"/><path class="cls-3" d="M569.05,340.21l7.66,1.05s6.13.11,6.89.11,5.59,28,7,38.52.31,12.39.31,12.39-9.72,2.18-16.91,1.55c-7.48-.66-15.89-4.7-15.89-4.7s6.39-20.22,7.66-26.54S569.05,340.21,569.05,340.21Z"/><path class="cls-6" d="M550.46,306.33s-.49,20.85.3,22.45c1.14,2.32,14,18.76,14,18.76s-6.15,25.73-8.73,34.62c-.26.89-1.42,6.67-1.42,7.24,0,1.25,5.44,2.83,6.09,2.74s5.32-24.56,8.35-36.54a34.24,34.24,0,0,1,5.2-11.31l2.11-3L560.2,325.08s-2-18-2-19.53C558.2,305.16,551.25,304.86,550.46,306.33Z"/><path class="cls-6" d="M583.34,341.37l20.16-20.54s2.81-19.43,3-20.17,5.21-1.1,7.22-1.3c.65-.06-.33,20.69-1.3,24.17-1.14,4.11-16.38,22.84-16.38,22.84S593.32,356.51,594,364c1.09,12.36,4,29.36,3.51,29.89-3.28,2.07-15.86,2.29-16.65,1C572.05,380.69,583.34,341.37,583.34,341.37Z"/><path class="cls-5" d="M601,453.17a34.3,34.3,0,0,1-2,3.08,30.3,30.3,0,0,1-2.24,2.34s-1.22,3.09-1.52,4.15c-.68,2.36-1.45,5.22-1.13,6.45.1.4,1,1.15,1.69.68,2.78-1.8,10.19-10.26,10.94-12.36C607.53,455.09,601,453.17,601,453.17Z"/><path class="cls-19" d="M577.28,314.6a20,20,0,0,0,2.57-.05,11.75,11.75,0,0,1,2.91,0c1.49.32,3.85,1.37,4.64,3.33,1,2.43,4.5,2.07.34,11.31-4.72,10.45-10.23,7-10.31,6.79l-2.72-8.85s-3.3,3.27-3.24,3.12S567,314.23,577.28,314.6Z"/><path class="cls-14" d="M576.82,337.46l-.55,4.09s-1.23,5.89.35,7,6.73-7.2,6.73-7.2L582.81,331Z"/><path class="cls-8" d="M583,334.38a11.71,11.71,0,0,1-6.63,6.55l.47-3.47,6-6.44Z"/><path class="cls-14" d="M581,319.3a5.46,5.46,0,0,0-7.83,2.94,42.11,42.11,0,0,0-1.42,5.07c-1,4.68.56,9.7,2.69,10.11s8.57-1.51,10.06-8.13C585.44,325.2,584.11,321.07,581,319.3Z"/><path class="cls-14" d="M582.86,329.51a1.59,1.59,0,1,0,1.88-1.58A1.76,1.76,0,0,0,582.86,329.51Z"/><path class="cls-19" d="M584.74,327.93s-2.63-.31-2.94-2.2-2.25-6.43-6.83-6.58,4.84-2,5.17-1.9l4.24,1.57s2.07,3.61,2.08,3.92-.25,3.6-.25,3.6Z"/><path class="cls-9" d="M577.89,332.73l-4.7-.81a2.09,2.09,0,0,0,1.86,2.23C577.55,334.66,577.89,332.73,577.89,332.73Z"/><path class="cls-14" d="M240.9,351.63a4.71,4.71,0,0,0,.51,1.22,45.76,45.76,0,0,0,4.83,6.42l2.6-5.87s-.42-1.85-1.16-4.49C245.16,349.57,242.76,350,240.9,351.63Z"/><path class="cls-5" d="M255.86,346.53s-14.55,6.27-15,6.15c-.3-.08-6-9.56-6-18.48,0-4.12,4.25-9.08,9-8.1,2.41.5,2.37,1.17,5.92,6.33S255.86,346.53,255.86,346.53Z"/><path class="cls-14" d="M268.28,458.88s-.34,5.71-.34,5.73a30.08,30.08,0,0,0-.63,3.17c0,2.48,11.77-2.1,9.13-3.2-.24-.1-1.49-.85-1.57-1.69-.12-1.3-.43-3.93-.43-3.93Z"/><path class="cls-20" d="M276.41,464.56s-2.76.76-4.18.95-3.28-1.41-4.28-1-1.06,4.75-1.06,4.75,14.82,1.21,19,0C287.52,468.74,282.06,466.32,276.41,464.56Z"/><path class="cls-14" d="M244.21,458.88s-.34,5.71-.34,5.73a30.08,30.08,0,0,0-.63,3.17c0,2.48,11.77-2.1,9.13-3.2-.24-.1-1.86-1.41-1.94-2.25-.12-1.3-.06-3.37-.06-3.37Z"/><path class="cls-20" d="M252.34,464.56s-2.76.76-4.18.95-3.28-1.41-4.28-1-1.14,4.75-1.14,4.75,14.88,1.41,19.06,0C263.43,468.67,258,466.32,252.34,464.56Z"/><path class="cls-7" d="M247.81,354.8l10.36-14.52c.05-.13.14-.39.28-.79.53-1.44,1.61-4.43,2.56-7.42v0c.3-1,.93-2.86,1.54-4.62.67-1.95,1.51-4.38,1.54-4.79,0-.07-.07-.2-.14-.37a33,33,0,0,1-1.07-4.36c-.12-.65-.23-2.23.54-2.23,1.22,0,.64,1.58,1.2,2.57a26.2,26.2,0,0,0,.84-3.29l.2-3.09c0-.23-.21-1.93.65-1.93h0c.76.05.75,1.86,1.06,4.93a10.52,10.52,0,0,0,.28-1.17,11.9,11.9,0,0,1,.26-1.62c-.15-.85-.06-2.2.85-2.07.45.06.41,1.94.41,1.94,0,.26,0,2.25,0,2.64.09-.67.45-3.51,1.17-3.51s.63.76.62,1.37c0,.36-.38,3.44-.4,3.79.28-.46.61-3.18.89-3.18,1.15,0,.73,3.86.31,4.87a4.53,4.53,0,0,0-.13.53,9.7,9.7,0,0,1-1,2.87c-.72,1.24-1.72,3.21-1.87,3.51-.12.62-.46,2.83-.9,5.61-.19,1.19-.39,2.5-.6,3.85h0c0,.29-.26,1.22-1.08,4.71a40.12,40.12,0,0,1-1.29,5.07c-.48.86-11.66,16-12.13,16.68l-.28.38Z"/><path class="cls-21" d="M267.09,320.94s-.85-2.15-2.34-2.16a1.71,1.71,0,0,1,1.55.27A3,3,0,0,1,267.09,320.94Z"/><path class="cls-14" d="M245.31,316.78,244,325.22s5.09,4.08,8.05,3.22c2.48-.72.78-4,.78-4s-1.32-4.51-.92-6.87S245.31,316.78,245.31,316.78Z"/><path class="cls-22" d="M246.26,319.33A21,21,0,0,0,252,321a11.08,11.08,0,0,1-.14-3.35c.19-1.09-1.2-1.35-2.74-1.31-2,.17-3.83.49-3.83.49l-.26,1.62A4.09,4.09,0,0,0,246.26,319.33Z"/><path class="cls-14" d="M238.89,307.05c-.21,0,2,9.42,5.44,11.05s8.56.77,9.52-1.77c1.06-2.8-2.81-12.42-7.64-13.64S238.89,307.05,238.89,307.05Z"/><path class="cls-5" d="M242.87,298.39a10.76,10.76,0,0,0-4.43,4.89c-1.29.61-2.85,1.93-3.59,5.49-.92,4.38,2.35,7.76,5.81,8.77s4,3.31,4,3.31l.4-2.47a9.89,9.89,0,0,0-1.93-3.22c-1.16-1.08.54-2.65.69-3.93.12-1-.6-2.89-.45-4.51,0,0,1.93-2.92,3.83-3.64C250.43,301.85,246.38,296.36,242.87,298.39Z"/><path class="cls-14" d="M244.32,312.88c.45,1.08.27,2.17-.4,2.41s-1.59-.44-2-1.53-.27-2.17.41-2.41S243.88,311.79,244.32,312.88Z"/><path class="cls-14" d="M257.12,355l20-3.26S274.83,346,274,346s-15.11,6.25-15.11,6.25l-1.14,2.28Z"/><path class="cls-11" d="M246.88,368.74s-2,9.64-1.18,16.95.87,33.27.87,33.27l-3.1,41.55,7.36.16s8.73-41.53,8.56-40.46S262.32,391,262.32,391l-10.4-23.15Z"/><path class="cls-5" d="M248.83,368.28s-1.3,8.68.32,12.49,13.94,41.16,14.11,44.2,4.25,36.72,4.25,36.72l8.56-.25L277.92,424l-3.87-47-3.77-11.89Z"/><path class="cls-14" d="M244,325.22a7.7,7.7,0,0,0,4.08,1.22c2-.16,4.75-2,4.75-2l-.39-1.32s-5.09-.74-5.22-.66S244,325.22,244,325.22Z"/><path class="cls-14" d="M266.46,345.76s7.56,7.14,11,5.92,4.83-5.38-3.5-11.48C266.48,334.75,266.46,345.76,266.46,345.76Z"/><path class="cls-3" d="M271.58,354.57c-1.12-6.11-9.26-25.12-9.91-28.63-.32-1.7-4.71-1.74-8.89-1.52-4.42.24-8.81.8-8.81.8s-3.91.64-5.63,2.25-2.18,6.07.3,14.54c2,6.68,4.37,10.35,5.57,15.22.24,1.63.45,3.24.72,5.12.44,7.28,0,16.89,0,16.89s21.29,4.42,29.25-2.28C274.18,377,272.73,360.83,271.58,354.57Z"/><path class="cls-23" d="M277,341.43s-8.35,6.9-8.84,6.9c-.31,0-11.92-8.54-14.6-15.56-1.48-3.87,1.62-8.21,5.17-8.2,2.46,0,3.56.65,8.43,4.76S277,341.43,277,341.43Z"/><path class="cls-24" d="M283.54,189.59c-2-1.38-4.13-2.69-6.15-4.11a1.81,1.81,0,0,1-.65-1.36c.27-2.84.7-5.67.94-8.52a1.51,1.51,0,0,1,1.05-1.57c2.8-1.09,5.57-2.26,8.35-3.41.45-.18.89-.38,1.67-.72-1.33-4.26-2.64-8.48-4-12.8-3.58.71-6.84,1.3-10.07,2a2,2,0,0,1-2.5-.93c-1.49-2.16-3.29-4.11-4.91-6.19a1.67,1.67,0,0,1-.21-1.34c1.1-2.84,2.2-5.69,3.46-8.46.61-1.33.31-2.05-.88-2.66a8.14,8.14,0,0,1-1.24-1l-6.17-3.32a4.05,4.05,0,0,1-.77-.16c-2.51-1-2-1-3.45,1.09-1.73,2.55-3.42,5.13-4.91,7.36l-11.13-1L237.64,132a42.76,42.76,0,0,0-12.76,4c.71,3.51,1.39,6.94,2.09,10.37a1.17,1.17,0,0,1-.51,1.43c-2.36,1.77-4.68,3.59-6.91,5.52a1.4,1.4,0,0,1-1.75.26c-2.85-1.2-5.73-2.33-8.59-3.52a1.2,1.2,0,0,0-1.69.42,38,38,0,0,0-5.28,10.24c-.27.72.08,1,.63,1.39,2.52,1.64,5,3.34,7.53,5a1.49,1.49,0,0,1,.8,1.81c-.5,3.25-.81,6.54-1.23,10.08l-10.12,4.17A39.76,39.76,0,0,0,203.73,196l10.94-2.25c2.1,2.43,4,4.74,6,6.91a1.92,1.92,0,0,1,.46,2.46c-1.2,2.7-2.3,5.45-3.41,8.2-.22.54-.65,1.17.2,1.62l10.32,5.45c.74.39,1.2.14,1.64-.55,1.65-2.56,3.41-5.06,5-7.65.62-1,1.29-1,2.33-.9a69,69,0,0,0,7.72.7,1.69,1.69,0,0,1,1.9,1.31c1.21,3.18,2.54,6.31,3.79,9.39,2.76,0,10.27-2.35,13-4-.71-3.39-1.39-6.82-2.17-10.22a1.47,1.47,0,0,1,.71-1.74c2.11-1.65,4.09-3.46,6.18-5.13a1.77,1.77,0,0,1,1.47-.28c2.54,1,5.05,2.08,7.57,3.17,1.4.6,2,.85,2.5.49L285.79,192C285.81,191.12,285.2,190.7,283.54,189.59Zm-21.85-3.84a20.09,20.09,0,0,1-27.22,8.18h0a20.09,20.09,0,0,1-8.18-27.22h0a20.1,20.1,0,0,1,27.22-8.18h0a20.1,20.1,0,0,1,8.18,27.22Z"/><path class="cls-25" d="M181.25,236.41c-3.31.32-6.6.76-9.91,1a2.45,2.45,0,0,1-1.85-.86c-2.16-3.18-4.15-6.48-6.33-9.65a2,2,0,0,1-.26-2.53c2-3.54,3.84-7.13,5.74-10.7.31-.58.6-1.17,1.11-2.18l-15.12-9.88c-3.1,3.81-6,7.22-8.71,10.75a2.67,2.67,0,0,1-3.39,1.17c-3.41-1-6.95-1.43-10.41-2.21a2.2,2.2,0,0,1-1.37-1.21c-1.3-3.89-2.61-7.79-3.66-11.75-.51-1.9-1.44-2.38-3.21-2a12.43,12.43,0,0,1-2.12.06l-9.24,1.84a5.32,5.32,0,0,1-.94.5c-3.48,1.09-3,.69-2.65,4.09.39,4.13.85,8.26,1.22,11.85L97.69,223.2,84.13,216a57.34,57.34,0,0,0-9.84,15.07c3.75,3,7.39,6,11.06,9a1.59,1.59,0,0,1,.7,1.93c-.93,3.86-1.77,7.74-2.44,11.65A1.87,1.87,0,0,1,82,255.38c-4,1.2-8,2.5-11.94,3.72a1.62,1.62,0,0,0-1.4,1.89A51.5,51.5,0,0,0,72,276.15c.34,1,1,1,1.84.9,4-.46,8.06-.82,12.07-1.31a2,2,0,0,1,2.4,1.19c2.27,3.81,4.76,7.49,7.36,11.52-2.12,4-4.52,8.5-6.93,13a53.78,53.78,0,0,0,15.14,10.11l9.43-11.72c4.27.71,8.22,1.48,12.21,2A2.59,2.59,0,0,1,128.1,304c1.07,3.84,2.3,7.64,3.5,11.44.23.75.33,1.78,1.59,1.52l15.41-3.2c1.09-.23,1.36-.88,1.22-2-.49-4.08-.8-8.18-1.36-12.25-.21-1.56.44-2.18,1.64-2.92a92.49,92.49,0,0,0,8.62-5.91,2.26,2.26,0,0,1,3.09-.27c4,2.26,8.05,4.37,12,6.5,2.87-2.37,8.64-11.26,10-15.33-3.64-2.9-7.29-5.88-11-8.75a2,2,0,0,1-.75-2.41c.76-3.52,1.28-7.1,2-10.63a2.36,2.36,0,0,1,1.28-1.55c3.5-1.15,7-2.18,10.58-3.21,2-.57,2.78-.8,3-1.64L185.66,237C184.91,236.06,183.92,236.15,181.25,236.41Zm-26,14.78A27.06,27.06,0,0,1,134,283h0a27.06,27.06,0,0,1-31.85-21.23h0A27.07,27.07,0,0,1,123.4,230h0a27.07,27.07,0,0,1,31.86,21.24Z"/><path class="cls-26" d="M174.37,151.16c-1.32-.63-2.67-1.21-4-1.87a1,1,0,0,1-.5-.74c-.1-1.7-.1-3.4-.21-5.09a.9.9,0,0,1,.48-1c1.55-.89,3.07-1.83,4.6-2.75l.92-.57L172.19,132c-2,.73-3.9,1.37-5.74,2.09a1.16,1.16,0,0,1-1.54-.33c-1.08-1.13-2.31-2.12-3.44-3.2a1,1,0,0,1-.25-.77c.39-1.77.78-3.54,1.28-5.28.24-.84,0-1.23-.75-1.49a5,5,0,0,1-.82-.45l-3.92-1.4a2.42,2.42,0,0,1-.47,0c-1.56-.38-1.28-.41-1.93,1-.79,1.65-1.56,3.32-2.23,4.76l-6.64.38-3.5-5.81a25.41,25.41,0,0,0-7.14,3.47c.72,2,1.43,4,2.15,5.91a.7.7,0,0,1-.18.89c-1.22,1.25-2.42,2.53-3.56,3.86a.84.84,0,0,1-1,.31c-1.78-.45-3.58-.86-5.36-1.3a.71.71,0,0,0-1,.39,22.78,22.78,0,0,0-2.19,6.5c-.09.44.14.6.49.76,1.63.73,3.24,1.51,4.87,2.24a.9.9,0,0,1,.64,1c0,2,.1,3.92.17,6l-5.58,3.35a23.49,23.49,0,0,0,3.44,7.27l6.23-2.3c1.45,1.24,2.77,2.43,4.17,3.52a1.16,1.16,0,0,1,.49,1.41c-.47,1.69-.87,3.41-1.28,5.12-.08.34-.28.75.26.94l6.56,2.28c.47.16.72,0,.91-.47.75-1.65,1.56-3.27,2.27-4.94.28-.65.66-.73,1.29-.74a39.3,39.3,0,0,0,4.6-.28,1,1,0,0,1,1.23.6c1,1.76,2.06,3.49,3.07,5.19a22.84,22.84,0,0,0,7.27-3.53c-.72-1.93-1.43-3.89-2.19-5.82a.86.86,0,0,1,.27-1.08c1.09-1.16,2.09-2.4,3.17-3.57a1.07,1.07,0,0,1,.84-.3c1.58.36,3.16.78,4.73,1.19.88.23,1.24.33,1.52.07l2.48-7C175.84,151.86,175.44,151.67,174.37,151.16Zm-13.19-.31a12,12,0,0,1-15.27,7.24h0a12,12,0,0,1-7.24-15.27h0a11.94,11.94,0,0,1,15.27-7.24h0a11.94,11.94,0,0,1,7.24,15.27Z"/><path class="cls-3" d="M153.33,467.64H149.4c.52-17.17,1-43.23.11-44.7,0,0,.05.1.26.2l3.19-.83c.52.26.83.41.94,7.71,0,3.76,0,8.95-.07,15.42C153.67,456.45,153.34,467.53,153.33,467.64Z"/><path class="cls-3" d="M164.86,467.44H138.32a2.22,2.22,0,0,0-2.22,2.21h0a.4.4,0,0,0,.39.39h30.19a.39.39,0,0,0,.39-.39h0A2.21,2.21,0,0,0,164.86,467.44Z"/><path class="cls-3" d="M152.9,465.25h-3.25a1.74,1.74,0,0,0-1.74,1.74h0a1.74,1.74,0,0,0,1.74,1.75h3.25a1.74,1.74,0,0,0,1.74-1.75h0A1.74,1.74,0,0,0,152.9,465.25Z"/><rect class="cls-5" x="57.24" y="391.74" width="1.57" height="78.25"/><path class="cls-5" d="M138,348.45a21.07,21.07,0,0,1,1.93-10.15c1.34-2.79,4.65-4.37,7.67-4.37,9.59,0,10.81,12.66,16.92,17.55,1.86,1.49,3.95,2.71,5.71,4.32,6.52,5.94,3.58,16.95-2.4,22.17-4.16,3.62-10.68,5.67-15.8,2.84a16.11,16.11,0,0,1-6.15-6.62c-2.05-3.81-3.37-8.22-4.83-12.28A46.24,46.24,0,0,1,138,348.45Z"/><path class="cls-4" d="M111.49,384.88l20.88-5.81s4.39-5.91,10-13.84c1.85,1.84,2.88,4.65,4.74,6.46L133.34,387a2.61,2.61,0,0,1-1.94.87l-19.18.07-6.57.52v-4.2Z"/><path class="cls-27" d="M141.54,380.45s7.16-7.34,9-10.53-1.26-1.12-4.42-2c-1.2-.31-.9-7.34-3.16-5a103.23,103.23,0,0,0-8.39,10.29Z"/><path class="cls-28" d="M151.73,359.68s6.42-1.26,9.36,1.19-.63,24.24-.63,27.85,2,13.82,2,13.82-19.49,3.41-22.58-2c0,0-.88-20.66-.75-23.26s3-13.23,3.82-14.36S151.73,359.68,151.73,359.68Z"/><path class="cls-7" d="M151.77,349.74s0,.19.09.52c.29,1.57,1.41,6.77,2.17,8.2.92,1.73-3.14,7.25-7,6.58-1.16-.2,1-5.07.88-5.59-.2-1-.46-2.33-.74-3.71-.15-.78-.31-1.57-.45-2.31l-.76-3.83Z"/><path class="cls-8" d="M151.86,350.26c-.06-.33-.09-.52-.09-.52l-5.85-.14.76,3.83c.14.74.3,1.52.45,2.3a5.5,5.5,0,0,0,2.79-1.4,7.38,7.38,0,0,0,2.12-3.14C152,350.82,151.91,350.5,151.86,350.26Z"/><path class="cls-7" d="M147.83,336.47a5.28,5.28,0,0,1,4.48,1.92c1.73,2.23,3.59,9.12-.7,12.87s-8.53-.49-9.16-5S141.58,336.31,147.83,336.47Z"/><path class="cls-7" d="M141.18,346.2c.51,1,1.37,1.55,1.92,1.23s.58-1.37.07-2.37-1.38-1.54-1.92-1.23S140.67,345.21,141.18,346.2Z"/><path class="cls-5" d="M147.52,335.74s3.68,6.56,6.32,6.86,3,3.79,3,3.79-.94-8-3.55-9.58A9.7,9.7,0,0,0,147.52,335.74Z"/><path class="cls-7" d="M153.15,344.25c-.22,1.16.21,2.23,1,2.38s1.52-.66,1.74-1.83-.22-2.23-1-2.39S153.36,343.08,153.15,344.25Z"/><path class="cls-4" d="M128.36,452.26s5.92,7.09,6,7.71-.24,7.35-.94,8-2.77,1.05-2.11,1.75c.51.52,4.37.41,6.93.27.74,0,1.68-6,2-6.88.43-1.27,1.47-4.14,1.08-5a7.49,7.49,0,0,0-2.38-2.15c-1.35-.87-6.52-8-6.52-8Z"/><path class="cls-12" d="M138.79,455.86s-4,11.18-5.52,11.72c-.41.15-2.4.51-2.77,1.39a3.84,3.84,0,0,0,0,1.14h8.28s1.05-4.92,1.46-7.09c0,0,2.19-5.29,1.95-5.77S138.79,455.86,138.79,455.86Z"/><path class="cls-14" d="M92.94,455.67s-4.83,6.8-4.41,8.95c.23,1.15,1.24,2.66.66,3.74A2.91,2.91,0,0,1,88,469.72L72.88,470c-.82,0-.28-.51.39-1a30.41,30.41,0,0,1,5.41-3c.23-.11,1-.63,1.35-.81a10.55,10.55,0,0,0,2.15-1.9c1.08-1.2,5.84-11,5.84-11Z"/><path class="cls-12" d="M80,465.16a13.69,13.69,0,0,0,8.58-.34c.42,1.2,1,2.71.68,3.58-.36,1.06-.88,1.31-1.34,1.32-3.64.09-13.33.22-16.11.26a.46.46,0,0,1-.35-.75C72.18,468.41,79.73,465.34,80,465.16Z"/><path class="cls-12" d="M110.41,413.72s6,6.83,7.5,7.91,16.17,28,16.17,28l-5.22,3.81s-13.08-16.31-19.22-25c-5.2-7.38-3.29-6.91-6.34-11.41a6,6,0,0,1,.92-7.82q.41-.37.9-.78c4.52-3.77,35.52-8,35.52-8l19.82,1.94s-16.2,11.36-16.8,11.66-22.37,3.48-22.82,3.48S110.41,413.72,110.41,413.72Z"/><path class="cls-8" d="M162.48,402.54s3.4,10.2-1.7,15-35.41,4.23-45.38,4.23c0,0-4.09,11.19-4.54,13S90.61,460,90.61,460l-5.44-3.47s21.31-41.42,23-43.23,25.39-9.07,31.29-10.73S162.48,402.54,162.48,402.54Z"/><path class="cls-7" d="M123.05,384.18l18.09-4s6.55-8.41,12.83-15.65c1.85,1.84,2.88,4.65,4.74,6.46L144.9,386.27a2.65,2.65,0,0,1-2,.87l-19.18.07-6.57.52v-4.2Z"/><path class="cls-27" d="M153.09,379.75s7.17-7.34,9-10.53.47-8.54-2.69-9.38-13.28,12.66-13.28,12.66Z"/><path class="cls-12" d="M85.87,363.58h29.84a2,2,0,0,1,1.8,1.21l9.19,22.42h16.46a.83.83,0,0,1,.83.83h0a.83.83,0,0,1-.83.83H96.33a3.26,3.26,0,0,1-3-1.93l-9.26-20.61A2,2,0,0,1,85.87,363.58Z"/><path class="cls-9" d="M101.94,376.64a1.64,1.64,0,1,0,1.23-2.15A1.75,1.75,0,0,0,101.94,376.64Z"/><path class="cls-11" d="M146.3,392.65H57.14a1.89,1.89,0,0,1-1.89-1.89h0a1.89,1.89,0,0,1,1.89-1.89H146.3a1.89,1.89,0,0,1,1.89,1.89h0A1.89,1.89,0,0,1,146.3,392.65Z"/><path class="cls-9" d="M146.17,348.79l4-.21a1.76,1.76,0,0,1-1.78,1.68C146.26,350.44,146.17,348.79,146.17,348.79Z"/><path class="cls-3" d="M133.52,422.78l1.83-7.6a12.32,12.32,0,0,1,11.44-9.41l23.13-.93.72-2.36-23.94,1a14.65,14.65,0,0,0-13.61,11.18l-1.94,8.08C131.8,422.74,132.61,422.76,133.52,422.78Z"/><path class="cls-11" d="M164.54,418.73s-31.77.54-35.09,0-4.74,3.61-3.75,5.78,3.71,3,7.71,3.22,37.33,1.14,38.27.25c.77-.73,10.87-35.27,14.55-47.9a4.77,4.77,0,0,0-3.24-5.9h0a4.77,4.77,0,0,0-5.91,3.19Z"/><rect class="cls-5" x="144.74" y="391.74" width="1.57" height="78.25"/><rect class="cls-5" x="57.24" y="396.8" width="88.68" height="0.84"/><path class="cls-29" d="M382.42,15.23s11.52,7.46,39.91,6.45c0,0-30.43,11.49-42.33,13.27l-4.9-19.34Z"/><path class="cls-12" d="M387.85,25A29.42,29.42,0,0,1,380,35l-2.55-10.08.16-4.88Z"/><path class="cls-8" d="M344.06,4.2S377.33,2,382.5,3.85L387.85,25s-18.94-1.62-37.39,4.53Z"/><path class="cls-4" d="M324,239.64s-1.61,2.62-1.46,3.39,2.07,9,3.13,9.52,3.75.44,3.15,1.5c-.45.81-5.26,1.88-8.47,2.5-.93.19-4-6.89-4.6-7.88-.93-1.44-3.11-4.65-2.91-5.87a9.56,9.56,0,0,1,2.28-3.4,15,15,0,0,0,2.38-4.3Z"/><path class="cls-7" d="M347.29,238.89s-.54,5.87-.54,5.88c.08.89.05,3.14.25,3.91.74,2.91,12.5-5.79,9.23-6.34a3.22,3.22,0,0,1-1.7-1.74,7.06,7.06,0,0,1,.23-3.72Z"/><path class="cls-10" d="M342.52,133.47s3.4,9.4,3.44,9.55c4,15.6,14.76,45.3,14.92,48.39.37,7.52-5.83,47.93-5.83,47.93l-8.6,1.12L346.26,194l-8.46-16.58-14.47-33.35Z"/><path class="cls-18" d="M316.66,149.09l.73,9.55,5.25,38.72-7,40.91s3.66,4.77,7.23,4.66l16.42-44.34,3.9-52.4-3.28-10.59Z"/><path class="cls-5" d="M315.23,239.32s8.4,12.57,10.49,12.76c.55,0,3.11-.13,3.85.84a11.75,11.75,0,0,1,.69,1.74l-10.54,3s-2.85-6.54-4-9.08c0,0-4.36-5.85-4.21-6.52S315.23,239.32,315.23,239.32Z"/><path class="cls-5" d="M346.47,250.17l.33-5.47s3.49.54,5-.08,4.38-2.3,4.38-2.3c6.83.48,12.25.18,11.73,2.09h0Z"/><path class="cls-4" d="M362.79,101.73l4.55,3.49c.87-.68,2.79-3.52,4-4.41l-4.15-4.53h0a1.19,1.19,0,0,1-.49-1.09,4.48,4.48,0,0,1,.11-.7c.13-.35.25-.78.38-1.14s-.73-1.08-1.18-1.21-.6,1.6-.79,2.12a57.14,57.14,0,0,0-1.44,6.49Z"/><path class="cls-5" d="M367.83,104.77c-1.28-1.36-3.08-2.13-4.42-3.54l-20.17,13.89s-15.6-18.44-24.07-11.91a139.46,139.46,0,0,0,10.47,15.08c5.18,6.41,13.09,9.47,14.64,8.76C346,126.26,367.38,105.32,367.83,104.77Z"/><path class="cls-17" d="M279.58,58.6c.66,1.77,1.82,4.57,1.82,4.57,0,.8.2,4.14.41,8.24l5.68-3.11s-.88-6.61-.66-7,.61,0,2.13-2.83a5.24,5.24,0,0,0,.37-2.18s-.09-1.68-.49-1.79a.78.78,0,0,0-.89.5c-.1.3,0,1-.08,1.27a2.11,2.11,0,0,1-1.29.78c-.36,0-.55-4.92-.55-4.92s0-1.41.09-1.88.25-1.58.25-1.58.22-1.69-.31-1.76c-.31,0-.92,1.4-1.27,2.88a30.09,30.09,0,0,1-.67,3.26c-.39,0-.51-2.72-.51-2.72a8.61,8.61,0,0,0,.15-1.85c.27-.75.35-2.1-.3-2.14a11.26,11.26,0,0,0-.75,1.78s-.18,1.21-.3,1.79a31.2,31.2,0,0,0-.18,3.25c-.08.58-.24.37-.29.4a13,13,0,0,1-.1-1.84,11.45,11.45,0,0,1-.08-1.79,12.23,12.23,0,0,0,0-1.9c-.06-1.4-.92-1.15-1.07.15-.06.5-.11,1-.17,1.59-.22,2.14,0,4.14-.18,4.19s-.54-3.62-.54-3.62-.69-2-.91,0a17.12,17.12,0,0,0,0,4.09A15.85,15.85,0,0,0,279.58,58.6Z"/><path class="cls-8" d="M319.41,75.59S316,72.75,314,76.94a2.44,2.44,0,0,0-3.1,1.22s-3.52-.62-3.73,4.57c0,0-1.79-.12-1.77,2a5.19,5.19,0,0,0,1.24,3.36s-.89.86-.21,2.72a2.36,2.36,0,0,0,1.95,1.66s.69,2.7,2,3.38a3.92,3.92,0,0,0,2.86.09,1.85,1.85,0,0,0,2,1.13c1.37-.3,2.93-1.83,4.55-1.42s5.57-.71,5.57-.71,4.28-2.56,2.37-7a3.39,3.39,0,0,0-.28-4.75s1-4.21-2.26-6.23S319.41,75.59,319.41,75.59Z"/><path class="cls-1" d="M329.1,104.72l-7-3.59s-6.19.91-7,1-2.21,28.93-2.33,39.73S314,154.42,314,154.42s10.09,1,17.28-.5c7.47-1.59,15.48-6.7,15.48-6.7s-8.93-19.65-11-25.87S329.1,104.72,329.1,104.72Z"/><path class="cls-5" d="M315.45,102.06l-22.89-18.3s-5.21-19.28-5.5-20-5.4-.48-7.46-.43c-.66,0,2.87,20.86,4.27,24.26,1.66,4,19.35,21.07,19.35,21.07s4,9.92,4.24,17.52c.41,12.62-.49,30.15.11,30.62,3.56,1.69,16.3.38,16.95-1C331.67,140.4,315.45,102.06,315.45,102.06Z"/><path class="cls-14" d="M321.53,97.39l1,4s1.94,5.72.49,7-7.6-6.36-7.6-6.36l-.71-10.4Z"/><path class="cls-8" d="M315,95.06a11.88,11.88,0,0,0,7.43,5.73l-.88-3.4-6.78-5.7Z"/><path class="cls-8" d="M305.47,85.69c.19,1.57,1.24,2.74,2.35,2.6s1.84-1.51,1.65-3.09-1.24-2.74-2.34-2.61S305.28,84.11,305.47,85.69Z"/><path class="cls-8" d="M310.73,78.83c.11.91,1.29,1.51,2.63,1.35s2.34-1,2.23-1.93-1.28-1.51-2.63-1.35S310.62,77.93,310.73,78.83Z"/><path class="cls-14" d="M317.1,80.39a5.49,5.49,0,0,1,7.66,3.48,39.87,39.87,0,0,1,1.07,5.18c.67,4.75-1.24,9.68-3.4,10s-8.52-2.1-9.55-8.84C312.24,86,313.87,82,317.1,80.39Z"/><path class="cls-14" d="M314.54,90.5a1.6,1.6,0,1,1-1.79-1.71A1.77,1.77,0,0,1,314.54,90.5Z"/><path class="cls-8" d="M326.18,76.88c2.45,1.5,3.56,4.1,2.48,5.8s-3.94,1.86-6.39.36-3.56-4.09-2.48-5.79S323.74,75.39,326.18,76.88Z"/><path class="cls-8" d="M320.52,79c.09.77-.76,1.51-1.91,1.65s-2.15-.38-2.24-1.14.76-1.51,1.91-1.65S320.42,78.27,320.52,79Z"/><path class="cls-8" d="M327.41,84.21a1.8,1.8,0,0,1-1.56,2,1.8,1.8,0,1,1,1.56-2Z"/><path class="cls-5" d="M334.91,109s9.67,22.87,13.11,30.93c.37.87,2.25,6.57,2.31,7.14.16,1.26-5.14,3.53-5.81,3.52s-8.38-24.17-12.91-35.9a35,35,0,0,0-6.63-10.8l-2.2-1.81-.21-.68S332.39,102.27,334.91,109Z"/><rect class="cls-5" x="361.87" y="-2.24" width="1.79" height="160.65" transform="translate(-8.07 91.43) rotate(-14.21)"/><path class="cls-7" d="M372.22,98.78a4.68,4.68,0,0,0-.32-1,2.84,2.84,0,0,0-.6-1,1.82,1.82,0,0,1-.3-.64,1.23,1.23,0,0,0-.14-.25h0a2.71,2.71,0,0,0-.6-.57,2.63,2.63,0,0,1-.64-.7,2,2,0,0,0-.72-.63c-.29-.14-.51-.14-.61,0-.48.82-2.85,3.43-1.89,4.69a27.2,27.2,0,0,1,2.07,2.65c.3.69,1.35.64,2,.4A2.38,2.38,0,0,0,372.22,98.78Z"/><rect class="cls-11" y="469.37" width="607.16" height="1.8"/><path class="cls-8" d="M336.73,68.57a.36.36,0,0,1,.57-.09l.76.77c.56.57.57.61.65.6s.21-.39.2-.53a4.38,4.38,0,0,1-.09-.88.66.66,0,0,1,1.1-.5c.44.36.86.75,1.28,1.14,0-.64,0-1.28.09-1.91a.25.25,0,0,1,.42-.19l1.93,1.51c.1.08.52.49.64.42s.1-.52.11-.61c.06-.55.09-.74.32-2.51a.3.3,0,0,1,.49-.15c1.36,1.63,1.57,1.46,1.69,2a.14.14,0,0,1-.16.17c-.26,0-.32-.05-1-.71l-.52-.52c-.24,2.16-.25,2.71-.79,2.87-.37.11-.44,0-2.63-1.73,0,.67,0,1.34-.07,2a.29.29,0,0,1-.48.21c-1.57-1.29-1.55-1.39-1.72-1.46,0,0,0-.12,0,0s.22.89,0,1.4a.87.87,0,0,1-1.15.57c-.27-.14-.35-.28-1.19-1.08a7.71,7.71,0,0,1-.95,1.48,1.18,1.18,0,0,1-.56.42.31.31,0,0,1-.38-.37C335.47,70.3,336,70.15,336.73,68.57Z"/><path class="cls-30" d="M329.51,60.66a9.61,9.61,0,0,0,1.79.16c.11,0,.33,0,.41-.1.18-.28-.3-.72-.51-1.83-.1-.48-.33-1.46.32-1.66a3.55,3.55,0,0,1,1.08,0h.77c-.46-1.8-.56-1.7-.38-2.11a.24.24,0,0,1,.31-.09c.36.24.26.19.86,2.46a.35.35,0,0,1-.32.45c-.35,0-1.94-.14-2.13-.12a.49.49,0,0,1,0,.12,5.86,5.86,0,0,0,.53,2.06c.21.56.2,1.32-.51,1.48a7.33,7.33,0,0,1-1.79,0c.32,1.09.65,2.19,1,3.29a.38.38,0,0,1-.35.49c-.71-.06-1.42-.1-2.13-.14a6.78,6.78,0,0,0,.87,1.82c.29.41-.29.91-.93-.17a6.2,6.2,0,0,1-.81-2,.38.38,0,0,1,.36-.49c.7,0,1.4.06,2.1.11-.31-1.09-.6-2.19-.91-3.29A.36.36,0,0,1,329.51,60.66Z"/><path class="cls-31" d="M313.06,54.55a.36.36,0,0,1-.36-.33,8.44,8.44,0,0,1,0-2.88c.1-.5.83-.32.76.17a10.86,10.86,0,0,0-.1,2.35,8.07,8.07,0,0,0,1.69-.22c.21,0,.49.09.47.34,0,.62-.25,3-.27,3h.06c.24.05,1.08-.12,1.46-.1s.57.61.59,1c0,.71-.49,1.49-.24,2.19s1.29-.07,2.08.48c.6.42.4,1.13.15,2.25-.07.27-.13.54-.4.67a.18.18,0,0,1-.22,0c-.3-.34-.14-.75.06-1.77,0-.13.11-.35,0-.47-.3-.39-1.19.17-1.91-.3a1.64,1.64,0,0,1-.55-1.69c.08-.47.37-1.05.21-1.54-.4,0-.81,0-1.22,0a.71.71,0,0,1-.77-.69,13,13,0,0,1,.1-1.53c0-.33,0-.67.08-1A8.53,8.53,0,0,1,313.06,54.55Z"/><path class="cls-10" d="M342.45,79.17c1.69,2.17.1,3.23-.61,2.6a.59.59,0,0,1,0-1c.16-.1.42.06.35.26s.14.21.21,0-.06-.52-.16-.73c-.24-.48-.55-1.12-1.15-1.21-.89-.14-1.85.75-1.36,2.11a2.4,2.4,0,0,0,4.45-.12,2.92,2.92,0,0,0-1-3c-.17-.13,0-.37.22-.29a2.91,2.91,0,0,1,1.34,3.65,3,3,0,0,1-3.33,1.77,2.83,2.83,0,0,1-2.43-3A1.94,1.94,0,0,1,342.45,79.17Z"/><path class="cls-1" d="M307.45,61c.23.35.37,1.07-.11,1.3a.39.39,0,0,1-.57-.22c-.08-.26.06-.49-.16-.68a.52.52,0,0,0-.67.07c-.55.45-.41,1.43-.12,2a1.34,1.34,0,0,0,2.33.14,3,3,0,0,0,.32-1c0-.18.34-.27.44-.07a1.81,1.81,0,0,1-.79,2.11,2.15,2.15,0,0,1-2.31,0,2.77,2.77,0,0,1-1.07-2.36C304.8,60.47,306.69,59.87,307.45,61Z"/><path class="cls-9" d="M249.31,315.09a1.77,1.77,0,0,0,2.4.52c1.95-1,1.17-2.43,1.17-2.43Z"/><path class="cls-9" d="M319.91,93.66a1.76,1.76,0,0,0,1.94,1.5c2.18,0,2.11-1.68,2.11-1.68Z"/></g></g></svg>